<svg xmlns="http://www.w3.org/2000/svg" width="1500" height="1080" viewBox="0 0 1500 1080"><rect width="1500" height="1080" fill="#ffffff"/><text x="36" y="46" font-size="30" font-family="DejaVu Sans" font-weight="bold" fill="#1a2730">MODULO DRV1  -  A4988</text><text x="36" y="78" font-size="19" font-family="DejaVu Sans" font-weight="normal" fill="#5a6b76">20.32 x 15.24 mm  -  16 pinos  -  barra de 8.5 mm</text><text x="36" y="120" font-size="20" font-family="DejaVu Sans" font-weight="bold" fill="#1a2730">PLANTA DO MODULO (visto de cima, fora da placa)</text><rect x="36" y="130" width="900" height="560" fill="#fafbfc" stroke="#c7d0d6" stroke-width="2"/><svg x="36" y="130" width="900" height="560" viewBox="-20.16 -13.620000000000001 40.32 33.24" preserveAspectRatio="xMidYMid meet"><rect x="-10.16" y="-7.62" width="20.32" height="15.24" rx="0.8" fill="#8b1e2d" stroke="#00000066" stroke-width="0.2"/><rect x="-2.60" y="-3.60" width="5.20" height="5.20" fill="#26262a" stroke="#00000055" stroke-width="0.15"/><text x="0.00" y="-0.40" font-size="1.5" font-family="DejaVu Sans" text-anchor="middle" fill="#ffffff">A4988</text><rect x="-8.70" y="1.50" width="4.20" height="4.20" fill="#1f4fa8" stroke="#00000055" stroke-width="0.15"/><text x="-6.60" y="4.20" font-size="1.5" font-family="DejaVu Sans" text-anchor="middle" fill="#ffffff">Vref</text><rect x="4.80" y="2.90" width="3.20" height="1.80" fill="#3a3a3a" stroke="#00000055" stroke-width="0.15"/><circle cx="-8.89" cy="-6.35" r="0.62" fill="#e8c56a" stroke="#8a6d1f" stroke-width="0.14"/><text x="-8.89" y="-7.95" font-size="1.35" font-family="DejaVu Sans" text-anchor="middle" fill="#22303a">1</text><circle cx="-6.35" cy="-6.35" r="0.62" fill="#e8c56a" stroke="#8a6d1f" stroke-width="0.14"/><text x="-6.35" y="-7.95" font-size="1.35" font-family="DejaVu Sans" text-anchor="middle" fill="#22303a">2</text><circle cx="-3.81" cy="-6.35" r="0.62" fill="#e8c56a" stroke="#8a6d1f" stroke-width="0.14"/><text x="-3.81" y="-7.95" font-size="1.35" font-family="DejaVu Sans" text-anchor="middle" fill="#22303a">3</text><circle cx="-1.27" cy="-6.35" r="0.62" fill="#e8c56a" stroke="#8a6d1f" stroke-width="0.14"/><text x="-1.27" y="-7.95" font-size="1.35" font-family="DejaVu Sans" text-anchor="middle" fill="#22303a">4</text><circle cx="1.27" cy="-6.35" r="0.62" fill="#e8c56a" stroke="#8a6d1f" stroke-width="0.14"/><text x="1.27" y="-7.95" font-size="1.35" font-family="DejaVu Sans" text-anchor="middle" fill="#22303a">5</text><circle cx="3.81" cy="-6.35" r="0.62" fill="#e8c56a" stroke="#8a6d1f" stroke-width="0.14"/><text x="3.81" y="-7.95" font-size="1.35" font-family="DejaVu Sans" text-anchor="middle" fill="#22303a">6</text><circle cx="6.35" cy="-6.35" r="0.62" fill="#e8c56a" stroke="#8a6d1f" stroke-width="0.14"/><text x="6.35" y="-7.95" font-size="1.35" font-family="DejaVu Sans" text-anchor="middle" fill="#22303a">7</text><circle cx="8.89" cy="-6.35" r="0.62" fill="#e8c56a" stroke="#8a6d1f" stroke-width="0.14"/><text x="8.89" y="-7.95" font-size="1.35" font-family="DejaVu Sans" text-anchor="middle" fill="#22303a">8</text><circle cx="8.89" cy="6.35" r="0.62" fill="#e8c56a" stroke="#8a6d1f" stroke-width="0.14"/><text x="8.89" y="8.75" font-size="1.35" font-family="DejaVu Sans" text-anchor="middle" fill="#22303a">9</text><circle cx="6.35" cy="6.35" r="0.62" fill="#e8c56a" stroke="#8a6d1f" stroke-width="0.14"/><text x="6.35" y="8.75" font-size="1.35" font-family="DejaVu Sans" text-anchor="middle" fill="#22303a">10</text><circle cx="3.81" cy="6.35" r="0.62" fill="#e8c56a" stroke="#8a6d1f" stroke-width="0.14"/><text x="3.81" y="8.75" font-size="1.35" font-family="DejaVu Sans" text-anchor="middle" fill="#22303a">11</text><circle cx="1.27" cy="6.35" r="0.62" fill="#e8c56a" stroke="#8a6d1f" stroke-width="0.14"/><text x="1.27" y="8.75" font-size="1.35" font-family="DejaVu Sans" text-anchor="middle" fill="#22303a">12</text><circle cx="-1.27" cy="6.35" r="0.62" fill="#e8c56a" stroke="#8a6d1f" stroke-width="0.14"/><text x="-1.27" y="8.75" font-size="1.35" font-family="DejaVu Sans" text-anchor="middle" fill="#22303a">13</text><circle cx="-3.81" cy="6.35" r="0.62" fill="#e8c56a" stroke="#8a6d1f" stroke-width="0.14"/><text x="-3.81" y="8.75" font-size="1.35" font-family="DejaVu Sans" text-anchor="middle" fill="#22303a">14</text><circle cx="-6.35" cy="6.35" r="0.62" fill="#e8c56a" stroke="#8a6d1f" stroke-width="0.14"/><text x="-6.35" y="8.75" font-size="1.35" font-family="DejaVu Sans" text-anchor="middle" fill="#22303a">15</text><circle cx="-8.89" cy="6.35" r="0.62" fill="#e8c56a" stroke="#8a6d1f" stroke-width="0.14"/><text x="-8.89" y="8.75" font-size="1.35" font-family="DejaVu Sans" text-anchor="middle" fill="#22303a">16</text><line x1="-10.16" y1="11.62" x2="10.16" y2="11.62" stroke="#b0231a" stroke-width="0.18"/><text x="0" y="14.02" font-size="2" font-family="DejaVu Sans" font-weight="bold" text-anchor="middle" fill="#8a1008">20.32 mm</text><line x1="-14.16" y1="-7.62" x2="-14.16" y2="7.62" stroke="#b0231a" stroke-width="0.18"/><text x="-15.36" y="0" font-size="2" font-family="DejaVu Sans" font-weight="bold" text-anchor="middle" fill="#8a1008" transform="rotate(-90 -15.36 0)">15.24 mm</text></svg><text x="36" y="750" font-size="20" font-family="DejaVu Sans" font-weight="bold" fill="#1a2730">ELEVACAO (a barra de pinos faz parte do modulo)</text><rect x="36" y="760" width="900" height="240" fill="#fafbfc" stroke="#c7d0d6" stroke-width="2"/><svg x="36" y="760" width="900" height="240" viewBox="-14.16 -17.3 50.32 20.3" preserveAspectRatio="xMidYMid meet"><line x1="-13.16" y1="0" x2="13.16" y2="0" stroke="#c7d0d6" stroke-width="0.15"/><rect x="-9.24" y="-8.50" width="0.7" height="8.50" fill="#b8b8b8" stroke="#00000044" stroke-width="0.08"/><rect x="-6.70" y="-8.50" width="0.7" height="8.50" fill="#b8b8b8" stroke="#00000044" stroke-width="0.08"/><rect x="-4.16" y="-8.50" width="0.7" height="8.50" fill="#b8b8b8" stroke="#00000044" stroke-width="0.08"/><rect x="-1.62" y="-8.50" width="0.7" height="8.50" fill="#b8b8b8" stroke="#00000044" stroke-width="0.08"/><rect x="0.92" y="-8.50" width="0.7" height="8.50" fill="#b8b8b8" stroke="#00000044" stroke-width="0.08"/><rect x="3.46" y="-8.50" width="0.7" height="8.50" fill="#b8b8b8" stroke="#00000044" stroke-width="0.08"/><rect x="6.00" y="-8.50" width="0.7" height="8.50" fill="#b8b8b8" stroke="#00000044" stroke-width="0.08"/><rect x="8.54" y="-8.50" width="0.7" height="8.50" fill="#b8b8b8" stroke="#00000044" stroke-width="0.08"/><rect x="8.54" y="-8.50" width="0.7" height="8.50" fill="#b8b8b8" stroke="#00000044" stroke-width="0.08"/><rect x="6.00" y="-8.50" width="0.7" height="8.50" fill="#b8b8b8" stroke="#00000044" stroke-width="0.08"/><rect x="3.46" y="-8.50" width="0.7" height="8.50" fill="#b8b8b8" stroke="#00000044" stroke-width="0.08"/><rect x="0.92" y="-8.50" width="0.7" height="8.50" fill="#b8b8b8" stroke="#00000044" stroke-width="0.08"/><rect x="-1.62" y="-8.50" width="0.7" height="8.50" fill="#b8b8b8" stroke="#00000044" stroke-width="0.08"/><rect x="-4.16" y="-8.50" width="0.7" height="8.50" fill="#b8b8b8" stroke="#00000044" stroke-width="0.08"/><rect x="-6.70" y="-8.50" width="0.7" height="8.50" fill="#b8b8b8" stroke="#00000044" stroke-width="0.08"/><rect x="-9.24" y="-8.50" width="0.7" height="8.50" fill="#b8b8b8" stroke="#00000044" stroke-width="0.08"/><rect x="-10.16" y="-10.10" width="20.32" height="1.60" fill="#8b1e2d" stroke="#00000066" stroke-width="0.15"/><rect x="-2.60" y="-11.10" width="5.20" height="1.00" fill="#26262a" stroke="#00000055" stroke-width="0.12"/><rect x="-8.70" y="-12.30" width="4.20" height="2.20" fill="#1f4fa8" stroke="#00000055" stroke-width="0.12"/><rect x="4.80" y="-11.30" width="3.20" height="1.20" fill="#3a3a3a" stroke="#00000055" stroke-width="0.12"/><text x="12.16" y="-7.90" font-size="1.7" font-family="DejaVu Sans" fill="#8a1008">8.5 mm de barra</text><text x="12.16" y="-13.10" font-size="1.7" font-family="DejaVu Sans" fill="#8a1008">12.3 mm no total</text></svg><text x="980" y="120" font-size="20" font-family="DejaVu Sans" font-weight="bold" fill="#1a2730">DE ONDE VEM CADA MEDIDA</text><text x="980" y="158" font-size="18" font-family="DejaVu Sans" font-weight="normal" fill="#3b4a55">Contorno 20.32 x 15.24 mm:</text><text x="980" y="184" font-size="18" font-family="DejaVu Sans" font-weight="normal" fill="#3b4a55">  dimensao publicada do modulo</text><text x="980" y="210" font-size="18" font-family="DejaVu Sans" font-weight="normal" fill="#3b4a55"></text><text x="980" y="236" font-size="18" font-family="DejaVu Sans" font-weight="normal" fill="#3b4a55">Pinos: 16, tirados dos pads da placa.</text><text x="980" y="262" font-size="18" font-family="DejaVu Sans" font-weight="normal" fill="#3b4a55">Passo de 2,54 mm.</text><text x="980" y="288" font-size="18" font-family="DejaVu Sans" font-weight="normal" fill="#3b4a55"></text><text x="980" y="314" font-size="18" font-family="DejaVu Sans" font-weight="normal" fill="#3b4a55">Altura da barra, espessura da placa do</text><text x="980" y="340" font-size="18" font-family="DejaVu Sans" font-weight="normal" fill="#3b4a55">modulo e altura das pecas de cima nao</text><text x="980" y="366" font-size="18" font-family="DejaVu Sans" font-weight="normal" fill="#3b4a55">estao no Gerber. Sao os valores usuais</text><text x="980" y="392" font-size="18" font-family="DejaVu Sans" font-weight="normal" fill="#3b4a55">desse modulo.</text><text x="980" y="418" font-size="18" font-family="DejaVu Sans" font-weight="normal" fill="#3b4a55"></text></svg>