;TYPE=PLATED
;Layer: PTH_Through
;EasyEDA Pro v2.2.47.7, 2026-05-06 12:10:09
;Gerber Generator version 0.3
M48
METRIC,LZ,0000.00000
;Hole size 1 = 0.30500 METRIC
T01C0.30500
;Hole size 2 = 0.86360 METRIC
T02C0.86360
;Hole size 3 = 0.89916 METRIC
T03C0.89916
;Hole size 4 = 0.91440 METRIC
T04C0.91440
;Hole size 5 = 0.95000 METRIC
T05C0.95000
;Hole size 6 = 1.00000 METRIC
T06C1.00000
;Hole size 7 = 1.10002 METRIC
T07C1.10002
;Hole size 8 = 1.20000 METRIC
T08C1.20000
;Hole size 9 = 1.24998 METRIC
T09C1.24998
%
G05
G90
T01
X52.08791Y3.27406
X24.78796Y18.29402
X52.44846Y17.82153
X25.3422Y14.1552
X43.87765Y3.98218
X36.32063Y4.7552
X36.32063Y11.75518
X17.42225Y20.07095
X25.42223Y20.07095
T02
X21.844Y23.114
X21.844Y18.034
X39.116Y22.86
X39.116Y17.78
X16.383Y9.017
X16.383Y3.937
T03
X58.42Y17.907
X48.26Y17.907
X43.561Y13.716
X43.561Y23.876
X2.54Y14.478
X12.7Y14.478
T04
X5.207Y21.84397
X5.207Y18.796
X16.88846Y52.32146
X52.44846Y52.32146
X49.90846Y52.32146
X47.36846Y52.32146
X44.82846Y52.32146
X42.28846Y52.32146
X39.74846Y52.32146
X37.20846Y52.32146
X34.66846Y52.32146
X32.12846Y52.32146
X29.58846Y52.32146
X27.04846Y52.32146
X24.50846Y52.32146
X21.96846Y52.32146
X19.42846Y52.32146
X16.891Y26.924
X19.42846Y26.92146
X21.96846Y26.92146
X24.50846Y26.92146
X27.04846Y26.92146
X29.58846Y26.92146
X32.12846Y26.92146
X34.66846Y26.92146
X37.20846Y26.92146
X39.74846Y26.92146
X42.28846Y26.92146
X44.82846Y26.92146
X47.36846Y26.92146
X49.90846Y26.92146
X52.44846Y26.92146
T05
X21.54062Y14.4552
X24.08062Y14.4552
X26.62062Y14.4552
X29.16062Y14.4552
X31.70062Y14.4552
X34.24062Y14.4552
X36.78062Y14.4552
X39.32062Y14.4552
X39.32062Y1.7552
X36.78062Y1.7552
X34.24062Y1.7552
X31.70062Y1.7552
X29.16062Y1.7552
X26.62062Y1.7552
X24.08062Y1.7552
X21.54062Y1.7552
X47.371Y14.605
X49.911Y14.605
X52.451Y14.605
X54.991Y14.605
X57.531Y14.605
X60.071Y14.605
X62.611Y14.605
X65.151Y14.605
X65.151Y1.905
X62.611Y1.905
X60.071Y1.905
X57.531Y1.905
X54.991Y1.905
X52.451Y1.905
X49.911Y1.905
X47.371Y1.905
T06
X50.87761Y6.98218
X50.87764Y9.52211
X24.92262Y6.90335
X24.92265Y9.44328
X15.23998Y19.05004
X15.24002Y21.58996
X65.659Y22.56107G85X65.659Y22.61105
X65.659Y20.06107G85X65.659Y20.11106
X5.91706Y7.66783G85X5.91706Y5.66783
X8.11695Y1.96766G85X10.11695Y1.96766
X12.11694Y7.66768G85X12.11694Y5.66768
T07
X5.66683Y50.27734
X5.66683Y47.73734
X5.66683Y45.19734
X5.66683Y42.65734
X5.588Y35.814
X5.588Y33.274
X5.588Y30.734
X5.588Y28.194
T08
X27.93987Y20.07095
X33.01987Y20.06095
X30.47987Y20.07095
T09
X53.21305Y22.60102
X50.67318Y22.61103
X55.75305Y22.60102
M30