G04 Layer: TopSolderMaskLayer*
G04 EasyEDA Pro v2.2.47.7, 2026-05-06 12:10:09*
G04 Gerber Generator version 0.3*
G04 Scale: 100 percent, Rotated: No, Reflected: No*
G04 Dimensions in millimeters*
G04 Leading zeros omitted, absolute positions, 4 integers and 5 decimals*
G04 Generated by one-click*
G04 Object Configs: Pad,Via,Track,Text,Image,Dimension,BoardOutline,BoardCutout,CopperFilled,SolidRegion,FPCStiffener,Line,PlaneZone,ComponentProperty,ComponentSilkscreen,TearDrop*
G04 Layer Configs: 1,2,3,4,5,6,7,8,9,10,11,13,14,56*
G04 Copper Areas: 0*
%FSLAX45Y45*%
%MOMM*%
%AMRoundRect*1,1,$1,$2,$3*1,1,$1,$4,$5*1,1,$1,0-$2,0-$3*1,1,$1,0-$4,0-$5*20,1,$1,$2,$3,$4,$5,0*20,1,$1,$4,$5,0-$2,0-$3,0*20,1,$1,0-$2,0-$3,0-$4,0-$5,0*20,1,$1,0-$4,0-$5,$2,$3,0*4,1,4,$2,$3,$4,$5,0-$2,0-$3,0-$4,0-$5,$2,$3,0*%
%ADD10C,1.7016*%
%ADD11C,1.6256*%
%ADD12RoundRect,0.09422X-0.7649X-0.7649X-0.7649X0.7649*%
%ADD13RoundRect,0.09645X-0.90257X-0.90257X-0.90257X0.90257*%
%ADD14C,1.9016*%
%ADD15O,1.6016X3.60159*%
%ADD16O,3.6072X1.6016*%
%ADD17O,3.60159X1.6016*%
%ADD18O,1.9016X2.70159*%
%ADD19RoundRect,0.09645X-0.90257X1.30257X0.90257X1.30257*%
%ADD20C,1.9812*%
%ADD21C,1.7272*%
%ADD22RoundRect,0.18181X-0.77269X-0.77269X-0.77269X0.77269*%
G75*


G04 Pad Start*
G54D10*
G01X5087763Y698218D03*
G01X5087761Y952211D03*
G01X2492264Y690335D03*
G01X2492262Y944328D03*
G54D11*
G01X2184400Y2311400D03*
G01X2184400Y1803400D03*
G01X3911600Y2286000D03*
G01X3911600Y1778000D03*
G01X1638300Y901700D03*
G01X1638300Y393700D03*
G54D10*
G01X1524001Y1905004D03*
G01X1523999Y2158996D03*
G54D12*
G01X6565900Y2258606D03*
G01X6565900Y2008594D03*
G54D13*
G01X566683Y5027734D03*
G54D14*
G01X566683Y4773734D03*
G01X566683Y4519734D03*
G01X566683Y4265734D03*
G54D13*
G01X558800Y3581400D03*
G54D14*
G01X558800Y3327400D03*
G01X558800Y3073400D03*
G01X558800Y2819400D03*
G54D11*
G01X520690Y2184395D03*
G01X520690Y1879595D03*
G54D15*
G01X591693Y666788D03*
G54D17*
G01X911682Y196787D03*
G54D15*
G01X1211682Y666788D03*
G54D18*
G01X5321300Y2260105D03*
G01X5067300Y2261095D03*
G54D19*
G01X5575300Y2260105D03*
G54D20*
G01X5842000Y1790700D03*
G01X4826000Y1790700D03*
G01X4356100Y1371600D03*
G01X4356100Y2387600D03*
G01X254000Y1447800D03*
G01X1270000Y1447800D03*
G54D21*
G01X1688846Y5232146D03*
G01X5244846Y5232146D03*
G01X4990846Y5232146D03*
G01X4736846Y5232146D03*
G01X4482846Y5232146D03*
G01X4228846Y5232146D03*
G01X3974846Y5232146D03*
G01X3720846Y5232146D03*
G01X3466846Y5232146D03*
G01X3212846Y5232146D03*
G01X2958846Y5232146D03*
G01X2704846Y5232146D03*
G01X2450846Y5232146D03*
G01X2196846Y5232146D03*
G01X1942846Y5232146D03*
G54D22*
G01X1689100Y2692400D03*
G54D21*
G01X1942846Y2692146D03*
G01X2196846Y2692146D03*
G01X2450846Y2692146D03*
G01X2704846Y2692146D03*
G01X2958846Y2692146D03*
G01X3212846Y2692146D03*
G01X3466846Y2692146D03*
G01X3720846Y2692146D03*
G01X3974846Y2692146D03*
G01X4228846Y2692146D03*
G01X4482846Y2692146D03*
G01X4736846Y2692146D03*
G01X4990846Y2692146D03*
G01X5244846Y2692146D03*
G54D19*
G01X2793987Y2007095D03*
G54D18*
G01X3302013Y2006105D03*
G01X3047987Y2007095D03*
G54D10*
G01X2154062Y1445520D03*
G01X2408062Y1445520D03*
G01X2662062Y1445520D03*
G01X2916062Y1445520D03*
G01X3170062Y1445520D03*
G01X3424062Y1445520D03*
G01X3678062Y1445520D03*
G01X3932062Y1445520D03*
G01X3932062Y175520D03*
G01X3678062Y175520D03*
G01X3424062Y175520D03*
G01X3170062Y175520D03*
G01X2916062Y175520D03*
G01X2662062Y175520D03*
G01X2408062Y175520D03*
G01X2154062Y175520D03*
G01X4737100Y1460500D03*
G01X4991100Y1460500D03*
G01X5245100Y1460500D03*
G01X5499100Y1460500D03*
G01X5753100Y1460500D03*
G01X6007100Y1460500D03*
G01X6261100Y1460500D03*
G01X6515100Y1460500D03*
G01X6515100Y190500D03*
G01X6261100Y190500D03*
G01X6007100Y190500D03*
G01X5753100Y190500D03*
G01X5499100Y190500D03*
G01X5245100Y190500D03*
G01X4991100Y190500D03*
G01X4737100Y190500D03*
G04 Pad End*

M02*

