G04 Layer: BottomLayer*
G04 EasyEDA Pro v2.2.47.7, 2026-05-06 12:10:09*
G04 Gerber Generator version 0.3*
G04 Scale: 100 percent, Rotated: No, Reflected: No*
G04 Dimensions in millimeters*
G04 Leading zeros omitted, absolute positions, 4 integers and 5 decimals*
G04 Generated by one-click*
G04 Object Configs: Pad,Via,Track,Text,Image,Dimension,BoardOutline,BoardCutout,CopperFilled,SolidRegion,FPCStiffener,Line,PlaneZone,ComponentProperty,ComponentSilkscreen,TearDrop*
G04 Layer Configs: 1,2,3,4,5,6,7,8,9,10,11,13,14,56*
G04 Copper Areas: 77*
%FSLAX45Y45*%
%MOMM*%
%ADD10C,0.2032*%
%ADD11C,0.185*%
%ADD12C,1.6*%
%ADD13C,1.524*%
%ADD14R,1.524X1.524*%
%ADD15R,1.8X1.8*%
%ADD16C,1.8049*%
%ADD17C,1.8*%
%ADD18O,1.5X3.49999*%
%ADD19O,3.49999X1.5*%
%ADD20O,1.8X2.59999*%
%ADD21R,1.8X2.59999*%
%ADD22C,1.8796*%
%ADD23C,0.61*%
%ADD24C,0.3*%
%ADD25C,0.5*%
G75*


G04 Copper Start*
G36*
G01X6682486Y23114D02*
G01X3514559Y23114D01*
G01X3571034Y79590D01*
G01X3579110Y90113D01*
G01X3584186Y102369D01*
G01X3585917Y115520D01*
G01X3585917Y117455D01*
G01X3598114Y101557D01*
G01X3613017Y88163D01*
G01X3630121Y77725D01*
G01X3648848Y70598D01*
G01X3668564Y67021D01*
G01X3688601Y67117D01*
G01X3708281Y70883D01*
G01X3726939Y78189D01*
G01X3743943Y88791D01*
G01X3758716Y102327D01*
G01X3770760Y118341D01*
G01X3779666Y136291D01*
G01X3785133Y155568D01*
G01X3786976Y175520D01*
G01X3785133Y195473D01*
G01X3779666Y214750D01*
G01X3770760Y232699D01*
G01X3758716Y248713D01*
G01X3743943Y262250D01*
G01X3726939Y272851D01*
G01X3708281Y280158D01*
G01X3688601Y283923D01*
G01X3668564Y284019D01*
G01X3648848Y280443D01*
G01X3630121Y273316D01*
G01X3613017Y262878D01*
G01X3598114Y249484D01*
G01X3585917Y233586D01*
G01X3585917Y427895D01*
G01X3598329Y418427D01*
G01X3612611Y412123D01*
G01X3627970Y409332D01*
G01X3643556Y410209D01*
G01X3658506Y414706D01*
G01X3855909Y414706D01*
G01X3871248Y399366D01*
G01X3871248Y274083D01*
G01X3854163Y261221D01*
G01X3839734Y245438D01*
G01X3828453Y227271D01*
G01X3820705Y207339D01*
G01X3816753Y186322D01*
G01X3816733Y164938D01*
G01X3820645Y143914D01*
G01X3828355Y123967D01*
G01X3839602Y105779D01*
G01X3854001Y89968D01*
G01X3871061Y77074D01*
G01X3890201Y67536D01*
G01X3910769Y61681D01*
G01X3932062Y59706D01*
G01X3953356Y61681D01*
G01X3973923Y67536D01*
G01X3993063Y77074D01*
G01X4010124Y89968D01*
G01X4024523Y105779D01*
G01X4035769Y123967D01*
G01X4043480Y143914D01*
G01X4047392Y164938D01*
G01X4047371Y186322D01*
G01X4044696Y200549D01*
G01X4628651Y200549D01*
G01X4628651Y180451D01*
G01X4632344Y160694D01*
G01X4639604Y141953D01*
G01X4650185Y124865D01*
G01X4663725Y110012D01*
G01X4679764Y97899D01*
G01X4697756Y88941D01*
G01X4717087Y83440D01*
G01X4737100Y81586D01*
G01X4757113Y83440D01*
G01X4776444Y88941D01*
G01X4794436Y97899D01*
G01X4810475Y110012D01*
G01X4824015Y124865D01*
G01X4834596Y141953D01*
G01X4841856Y160694D01*
G01X4845549Y180451D01*
G01X4845549Y200549D01*
G01X4841856Y220306D01*
G01X4834596Y239047D01*
G01X4824015Y256135D01*
G01X4810475Y270988D01*
G01X4794436Y283101D01*
G01X4776444Y292059D01*
G01X4757113Y297560D01*
G01X4737100Y299414D01*
G01X4737100Y299414D01*
G01X4717087Y297560D01*
G01X4697756Y292059D01*
G01X4679764Y283101D01*
G01X4663725Y270988D01*
G01X4650185Y256135D01*
G01X4639604Y239047D01*
G01X4632344Y220306D01*
G01X4628651Y200549D01*
G01X4044696Y200549D01*
G01X4043420Y207339D01*
G01X4035671Y227271D01*
G01X4024390Y245438D01*
G01X4009961Y261221D01*
G01X3992876Y274083D01*
G01X3992876Y293036D01*
G01X4037244Y337404D01*
G01X4361322Y337404D01*
G01X4377034Y332778D01*
G01X4393400Y332144D01*
G01X4409423Y335541D01*
G01X4424124Y342761D01*
G01X4436608Y353364D01*
G01X4446111Y366703D01*
G01X4452056Y381965D01*
G01X4454079Y398218D01*
G01X4452056Y414472D01*
G01X4446111Y429734D01*
G01X4436608Y443073D01*
G01X4424124Y453676D01*
G01X4409423Y460896D01*
G01X4393400Y464293D01*
G01X4377034Y463658D01*
G01X4361322Y459032D01*
G01X4012054Y459032D01*
G01X3998583Y457521D01*
G01X3985781Y453064D01*
G01X3980962Y460710D01*
G01X3975064Y467558D01*
G01X3924101Y518522D01*
G01X3914885Y526085D01*
G01X3904371Y531705D01*
G01X3892963Y535165D01*
G01X3881099Y536334D01*
G01X3692877Y536334D01*
G01X3692877Y1016912D01*
G01X3703246Y1009260D01*
G01X3715207Y1004463D01*
G01X3727990Y1002828D01*
G01X4832227Y1002828D01*
G01X4924287Y1000086D01*
G01X4924287Y285098D01*
G01X4908530Y271710D01*
G01X4895406Y255734D01*
G01X4885331Y237679D01*
G01X4878628Y218120D01*
G01X4875509Y197681D01*
G01X4876074Y177013D01*
G01X4880305Y156775D01*
G01X4888068Y137611D01*
G01X4899114Y120133D01*
G01X4913092Y104898D01*
G01X4929556Y92392D01*
G01X4947982Y83012D01*
G01X4967782Y77058D01*
G01X4988325Y74719D01*
G01X5008957Y76071D01*
G01X5029019Y81070D01*
G01X5047873Y89556D01*
G01X5064918Y101260D01*
G01X5079609Y115808D01*
G01X5091480Y132736D01*
G01X5100152Y151505D01*
G01X5105348Y171518D01*
G01X5106902Y192135D01*
G01X5105990Y200917D01*
G01X5129755Y200917D01*
G01X5129807Y179523D01*
G01X5133793Y158504D01*
G01X5141578Y138577D01*
G01X5152894Y120421D01*
G01X5167357Y104657D01*
G01X5184473Y91822D01*
G01X5203658Y82355D01*
G01X5224257Y76577D01*
G01X5245567Y74687D01*
G01X5245567Y74687D01*
G01X5266861Y76749D01*
G01X5287413Y82692D01*
G01X5306520Y92314D01*
G01X5323532Y105287D01*
G01X5337868Y121167D01*
G01X5349038Y139414D01*
G01X5356661Y159403D01*
G01X5360477Y180454D01*
G01X5360357Y201847D01*
G01X5356303Y222853D01*
G01X5348455Y242755D01*
G01X5337080Y260874D01*
G01X5322566Y276592D01*
G01X5421634Y276592D01*
G01X5407323Y261139D01*
G01X5396048Y243350D01*
G01X5388181Y223814D01*
G01X5383982Y203175D01*
G01X5383590Y182117D01*
G01X5387018Y161337D01*
G01X5394153Y141521D01*
G01X5404758Y123325D01*
G01X5418484Y107350D01*
G01X5434875Y94126D01*
G01X5453391Y84088D01*
G01X5473418Y77569D01*
G01X5494294Y74786D01*
G01X5515330Y75829D01*
G01X5535828Y80664D01*
G01X5555112Y89132D01*
G01X5572544Y100952D01*
G01X5587547Y115734D01*
G01X5599625Y132988D01*
G01X5608378Y152144D01*
G01X5613517Y172568D01*
G01X5614873Y193586D01*
G01X5613974Y201186D01*
G01X5637780Y201186D01*
G01X5637780Y179814D01*
G01X5641707Y158806D01*
G01X5649428Y138877D01*
G01X5660678Y120706D01*
G01X5675077Y104912D01*
G01X5692132Y92033D01*
G01X5711263Y82507D01*
G01X5731819Y76658D01*
G01X5753100Y74686D01*
G01X5774381Y76658D01*
G01X5794937Y82507D01*
G01X5814068Y92033D01*
G01X5831123Y104912D01*
G01X5845522Y120706D01*
G01X5856772Y138877D01*
G01X5864493Y158806D01*
G01X5868420Y179814D01*
G01X5868420Y201186D01*
G01X5868420Y201186D01*
G01X5891780Y201186D01*
G01X5891780Y179814D01*
G01X5895707Y158806D01*
G01X5903428Y138877D01*
G01X5914678Y120706D01*
G01X5929077Y104912D01*
G01X5946132Y92033D01*
G01X5965263Y82507D01*
G01X5985819Y76658D01*
G01X6007100Y74686D01*
G01X6028381Y76658D01*
G01X6048937Y82507D01*
G01X6068068Y92033D01*
G01X6085123Y104912D01*
G01X6099522Y120706D01*
G01X6110772Y138877D01*
G01X6118493Y158806D01*
G01X6122420Y179814D01*
G01X6122420Y200549D01*
G01X6152651Y200549D01*
G01X6152651Y180451D01*
G01X6156344Y160694D01*
G01X6163604Y141953D01*
G01X6174185Y124865D01*
G01X6187725Y110012D01*
G01X6203764Y97899D01*
G01X6221756Y88941D01*
G01X6241087Y83440D01*
G01X6261100Y81586D01*
G01X6281113Y83440D01*
G01X6300444Y88941D01*
G01X6318436Y97899D01*
G01X6334475Y110012D01*
G01X6348015Y124865D01*
G01X6358596Y141953D01*
G01X6365856Y160694D01*
G01X6369549Y180451D01*
G01X6369549Y200549D01*
G01X6365856Y220306D01*
G01X6358596Y239047D01*
G01X6348015Y256135D01*
G01X6334475Y270988D01*
G01X6318436Y283101D01*
G01X6300444Y292059D01*
G01X6281113Y297560D01*
G01X6261100Y299414D01*
G01X6261100Y299414D01*
G01X6241087Y297560D01*
G01X6221756Y292059D01*
G01X6203764Y283101D01*
G01X6187725Y270988D01*
G01X6174185Y256135D01*
G01X6163604Y239047D01*
G01X6156344Y220306D01*
G01X6152651Y200549D01*
G01X6122420Y200549D01*
G01X6122420Y201186D01*
G01X6118493Y222194D01*
G01X6110772Y242123D01*
G01X6099522Y260294D01*
G01X6085123Y276088D01*
G01X6068068Y288967D01*
G01X6048937Y298493D01*
G01X6028381Y304342D01*
G01X6007100Y306314D01*
G01X6007100Y306314D01*
G01X5985819Y304342D01*
G01X5965263Y298493D01*
G01X5946132Y288967D01*
G01X5929077Y276088D01*
G01X5914678Y260294D01*
G01X5903428Y242123D01*
G01X5895707Y222194D01*
G01X5891780Y201186D01*
G01X5868420Y201186D01*
G01X5864493Y222194D01*
G01X5856772Y242123D01*
G01X5845522Y260294D01*
G01X5831123Y276088D01*
G01X5814068Y288967D01*
G01X5794937Y298493D01*
G01X5774381Y304342D01*
G01X5753100Y306314D01*
G01X5753100Y306314D01*
G01X5731819Y304342D01*
G01X5711263Y298493D01*
G01X5692132Y288967D01*
G01X5675077Y276088D01*
G01X5660678Y260294D01*
G01X5649428Y242123D01*
G01X5641707Y222194D01*
G01X5637780Y201186D01*
G01X5613974Y201186D01*
G01X5612400Y214502D01*
G01X5606179Y234623D01*
G01X5596418Y253286D01*
G01X5583438Y269872D01*
G01X5567669Y283833D01*
G01X5549633Y294708D01*
G01X5547139Y305930D01*
G01X5542188Y316304D01*
G01X5535031Y325299D01*
G01X5496993Y363337D01*
G01X5486469Y371412D01*
G01X5474214Y376489D01*
G01X5461062Y378220D01*
G01X5251399Y378220D01*
G01X5238961Y386459D01*
G01X5224996Y391710D01*
G01X5210210Y393705D01*
G01X5195353Y392344D01*
G01X5181176Y387697D01*
G01X5168396Y379997D01*
G01X5157662Y369636D01*
G01X5149515Y357137D01*
G01X5144369Y343133D01*
G01X5142483Y328333D01*
G01X5143954Y313486D01*
G01X5148707Y299344D01*
G01X5156501Y286622D01*
G01X5166942Y275964D01*
G01X5152555Y260130D01*
G01X5141327Y241920D01*
G01X5133639Y221955D01*
G01X5129755Y200917D01*
G01X5105990Y200917D01*
G01X5104766Y212700D01*
G01X5099007Y232558D01*
G01X5089809Y251075D01*
G01X5077465Y267662D01*
G01X5062369Y281789D01*
G01X5045001Y293007D01*
G01X5025915Y300957D01*
G01X5025915Y600302D01*
G01X5043983Y590998D01*
G01X5063399Y584996D01*
G01X5083565Y582480D01*
G01X5103861Y583528D01*
G01X5123661Y588108D01*
G01X5142355Y596078D01*
G01X5159369Y607193D01*
G01X5174178Y621111D01*
G01X5186325Y637404D01*
G01X6378831Y637404D01*
G01X6454286Y561949D01*
G01X6454286Y289062D01*
G01X6437201Y276201D01*
G01X6422772Y260417D01*
G01X6411491Y242250D01*
G01X6403743Y222319D01*
G01X6399791Y201302D01*
G01X6399771Y179917D01*
G01X6403682Y158893D01*
G01X6411393Y138947D01*
G01X6422639Y120758D01*
G01X6437038Y104947D01*
G01X6454099Y92053D01*
G01X6473239Y82516D01*
G01X6493807Y76660D01*
G01X6515100Y74686D01*
G01X6536393Y76660D01*
G01X6556961Y82516D01*
G01X6576101Y92053D01*
G01X6593162Y104947D01*
G01X6607561Y120758D01*
G01X6618807Y138947D01*
G01X6626518Y158893D01*
G01X6630429Y179917D01*
G01X6630409Y201302D01*
G01X6626457Y222319D01*
G01X6618709Y242250D01*
G01X6607428Y260417D01*
G01X6592999Y276201D01*
G01X6575914Y289062D01*
G01X6575914Y587139D01*
G01X6574745Y599003D01*
G01X6571285Y610412D01*
G01X6565665Y620925D01*
G01X6558102Y630141D01*
G01X6447023Y741220D01*
G01X6437808Y748783D01*
G01X6427294Y754403D01*
G01X6415885Y757863D01*
G01X6404021Y759032D01*
G01X5186325Y759032D01*
G01X5174178Y775324D01*
G01X5159369Y789242D01*
G01X5142355Y800358D01*
G01X5123661Y808328D01*
G01X5103861Y812907D01*
G01X5083565Y813955D01*
G01X5063399Y811440D01*
G01X5043983Y805438D01*
G01X5025915Y796134D01*
G01X5025915Y862560D01*
G01X5042639Y853083D01*
G01X5060769Y846695D01*
G01X5079740Y843593D01*
G01X5098961Y843874D01*
G01X5117832Y847530D01*
G01X5135768Y854448D01*
G01X5152207Y864410D01*
G01X5166639Y877108D01*
G01X5178615Y892145D01*
G01X5187759Y909053D01*
G01X5193789Y927306D01*
G01X5196516Y946334D01*
G01X5195856Y965545D01*
G01X5191828Y984341D01*
G01X5184558Y1002137D01*
G01X5174273Y1018377D01*
G01X5161293Y1032555D01*
G01X5146023Y1044231D01*
G01X5236108Y1044231D01*
G01X5249260Y1045963D01*
G01X5261515Y1051039D01*
G01X5272039Y1059115D01*
G01X5293252Y1080328D01*
G01X5301327Y1090852D01*
G01X5306404Y1103107D01*
G01X5308135Y1116259D01*
G01X5308135Y1267788D01*
G01X5306726Y1279674D01*
G01X5302575Y1290900D01*
G01X5295914Y1300844D01*
G01X5295914Y1356429D01*
G01X5312374Y1366228D01*
G01X5326993Y1378607D01*
G01X5339372Y1393226D01*
G01X5349171Y1409686D01*
G01X5395029Y1409686D01*
G01X5405750Y1391954D01*
G01X5419459Y1376416D01*
G01X5435718Y1363569D01*
G01X5454005Y1353826D01*
G01X5473737Y1347497D01*
G01X5494280Y1344786D01*
G01X5514977Y1345780D01*
G01X5535167Y1350445D01*
G01X5554201Y1358634D01*
G01X5571472Y1370083D01*
G01X5586426Y1384428D01*
G01X5598585Y1401207D01*
G01X5607558Y1419884D01*
G01X5613060Y1439862D01*
G01X5614914Y1460500D01*
G01X5614011Y1470549D01*
G01X5644651Y1470549D01*
G01X5644651Y1450451D01*
G01X5648344Y1430694D01*
G01X5655604Y1411953D01*
G01X5666185Y1394865D01*
G01X5679725Y1380012D01*
G01X5695764Y1367899D01*
G01X5713756Y1358941D01*
G01X5733087Y1353440D01*
G01X5753100Y1351586D01*
G01X5753100Y1351586D01*
G01X5773113Y1353440D01*
G01X5792444Y1358941D01*
G01X5810436Y1367899D01*
G01X5826475Y1380012D01*
G01X5840015Y1394865D01*
G01X5850596Y1411953D01*
G01X5857856Y1430694D01*
G01X5861549Y1450451D01*
G01X5861549Y1470549D01*
G01X5861549Y1470549D01*
G01X5898651Y1470549D01*
G01X5898651Y1450451D01*
G01X5902344Y1430694D01*
G01X5909604Y1411953D01*
G01X5920185Y1394865D01*
G01X5933725Y1380012D01*
G01X5949764Y1367899D01*
G01X5967756Y1358941D01*
G01X5987087Y1353440D01*
G01X6007100Y1351586D01*
G01X6007100Y1351586D01*
G01X6027113Y1353440D01*
G01X6046444Y1358941D01*
G01X6064436Y1367899D01*
G01X6080475Y1380012D01*
G01X6094015Y1394865D01*
G01X6104596Y1411953D01*
G01X6111856Y1430694D01*
G01X6115549Y1450451D01*
G01X6115549Y1470549D01*
G01X6115549Y1470549D01*
G01X6152651Y1470549D01*
G01X6152651Y1450451D01*
G01X6156344Y1430694D01*
G01X6163604Y1411953D01*
G01X6174185Y1394865D01*
G01X6187725Y1380012D01*
G01X6203764Y1367899D01*
G01X6221756Y1358941D01*
G01X6241087Y1353440D01*
G01X6261100Y1351586D01*
G01X6261100Y1351586D01*
G01X6281113Y1353440D01*
G01X6300444Y1358941D01*
G01X6318436Y1367899D01*
G01X6334475Y1380012D01*
G01X6348015Y1394865D01*
G01X6358596Y1411953D01*
G01X6365856Y1430694D01*
G01X6369549Y1450451D01*
G01X6369549Y1470549D01*
G01X6369430Y1471186D01*
G01X6399780Y1471186D01*
G01X6399780Y1449814D01*
G01X6403707Y1428806D01*
G01X6411428Y1408877D01*
G01X6422678Y1390706D01*
G01X6437077Y1374912D01*
G01X6454132Y1362033D01*
G01X6473263Y1352507D01*
G01X6493819Y1346658D01*
G01X6515100Y1344686D01*
G01X6515100Y1344686D01*
G01X6536381Y1346658D01*
G01X6556937Y1352507D01*
G01X6576068Y1362033D01*
G01X6593123Y1374912D01*
G01X6607522Y1390706D01*
G01X6618772Y1408877D01*
G01X6626493Y1428806D01*
G01X6630420Y1449814D01*
G01X6630420Y1471186D01*
G01X6626493Y1492194D01*
G01X6618772Y1512123D01*
G01X6607522Y1530294D01*
G01X6593123Y1546088D01*
G01X6576068Y1558967D01*
G01X6556937Y1568493D01*
G01X6536381Y1574342D01*
G01X6515100Y1576314D01*
G01X6493819Y1574342D01*
G01X6473263Y1568493D01*
G01X6454132Y1558967D01*
G01X6437077Y1546088D01*
G01X6422678Y1530294D01*
G01X6411428Y1512123D01*
G01X6403707Y1492194D01*
G01X6399780Y1471186D01*
G01X6369430Y1471186D01*
G01X6365856Y1490306D01*
G01X6358596Y1509047D01*
G01X6348015Y1526135D01*
G01X6334475Y1540988D01*
G01X6318436Y1553101D01*
G01X6300444Y1562059D01*
G01X6281113Y1567560D01*
G01X6261100Y1569414D01*
G01X6241087Y1567560D01*
G01X6221756Y1562059D01*
G01X6203764Y1553101D01*
G01X6187725Y1540988D01*
G01X6174185Y1526135D01*
G01X6163604Y1509047D01*
G01X6156344Y1490306D01*
G01X6152651Y1470549D01*
G01X6115549Y1470549D01*
G01X6111856Y1490306D01*
G01X6104596Y1509047D01*
G01X6094015Y1526135D01*
G01X6080475Y1540988D01*
G01X6064436Y1553101D01*
G01X6046444Y1562059D01*
G01X6027113Y1567560D01*
G01X6007100Y1569414D01*
G01X5987087Y1567560D01*
G01X5967756Y1562059D01*
G01X5949764Y1553101D01*
G01X5933725Y1540988D01*
G01X5920185Y1526135D01*
G01X5909604Y1509047D01*
G01X5902344Y1490306D01*
G01X5898651Y1470549D01*
G01X5861549Y1470549D01*
G01X5857856Y1490306D01*
G01X5850596Y1509047D01*
G01X5840015Y1526135D01*
G01X5826475Y1540988D01*
G01X5810436Y1553101D01*
G01X5792444Y1562059D01*
G01X5773113Y1567560D01*
G01X5753100Y1569414D01*
G01X5733087Y1567560D01*
G01X5713756Y1562059D01*
G01X5695764Y1553101D01*
G01X5679725Y1540988D01*
G01X5666185Y1526135D01*
G01X5655604Y1509047D01*
G01X5648344Y1490306D01*
G01X5644651Y1470549D01*
G01X5614011Y1470549D01*
G01X5613060Y1481138D01*
G01X5607558Y1501116D01*
G01X5598585Y1519793D01*
G01X5586426Y1536572D01*
G01X5571472Y1550917D01*
G01X5554201Y1562366D01*
G01X5535167Y1570555D01*
G01X5514977Y1575220D01*
G01X5494280Y1576214D01*
G01X5473737Y1573503D01*
G01X5454005Y1567174D01*
G01X5435718Y1557431D01*
G01X5419459Y1544584D01*
G01X5405750Y1529046D01*
G01X5395029Y1511314D01*
G01X5349171Y1511314D01*
G01X5339331Y1527831D01*
G01X5326893Y1542493D01*
G01X5312201Y1554894D01*
G01X5295660Y1564695D01*
G01X5295660Y1739544D01*
G01X5303941Y1752065D01*
G01X5309195Y1766128D01*
G01X5311150Y1781011D01*
G01X5310215Y1790700D01*
G01X5712206Y1790700D01*
G01X5714178Y1768162D01*
G01X5720034Y1746308D01*
G01X5729595Y1725803D01*
G01X5742572Y1707270D01*
G01X5758570Y1691272D01*
G01X5777103Y1678295D01*
G01X5797608Y1668734D01*
G01X5819462Y1662878D01*
G01X5842000Y1660906D01*
G01X5864538Y1662878D01*
G01X5886392Y1668734D01*
G01X5906897Y1678295D01*
G01X5925430Y1691272D01*
G01X5941428Y1707270D01*
G01X5954405Y1725803D01*
G01X5963966Y1746308D01*
G01X5969822Y1768162D01*
G01X5971794Y1790700D01*
G01X5971794Y1790700D01*
G01X5969822Y1813238D01*
G01X5963966Y1835092D01*
G01X5954405Y1855597D01*
G01X5941428Y1874130D01*
G01X5925430Y1890128D01*
G01X5906897Y1903105D01*
G01X5886392Y1912666D01*
G01X5864538Y1918522D01*
G01X5842000Y1920494D01*
G01X5819462Y1918522D01*
G01X5797608Y1912666D01*
G01X5777103Y1903105D01*
G01X5758570Y1890128D01*
G01X5742572Y1874130D01*
G01X5729595Y1855597D01*
G01X5720034Y1835092D01*
G01X5714178Y1813238D01*
G01X5712206Y1790700D01*
G01X5310215Y1790700D01*
G01X5309708Y1795954D01*
G01X5304942Y1810189D01*
G01X5297097Y1822987D01*
G01X5286574Y1833693D01*
G01X5273912Y1841758D01*
G01X5259761Y1846768D01*
G01X5244846Y1848467D01*
G01X5229931Y1846768D01*
G01X5215780Y1841758D01*
G01X5203118Y1833693D01*
G01X5192595Y1822987D01*
G01X5184750Y1810189D01*
G01X5179984Y1795954D01*
G01X5178542Y1781011D01*
G01X5180497Y1766128D01*
G01X5185751Y1752065D01*
G01X5194032Y1739544D01*
G01X5194032Y1564447D01*
G01X5175700Y1553217D01*
G01X5159759Y1538793D01*
G01X5146759Y1521671D01*
G01X5137147Y1502441D01*
G01X5131255Y1481766D01*
G01X5129286Y1460359D01*
G01X5131308Y1438956D01*
G01X5137250Y1418295D01*
G01X5146909Y1399089D01*
G01X5159951Y1381999D01*
G01X5175927Y1367613D01*
G01X5194286Y1356429D01*
G01X5194286Y1276818D01*
G01X5195696Y1264932D01*
G01X5199846Y1253706D01*
G01X5206507Y1243762D01*
G01X5206507Y1145859D01*
G01X5072576Y1145859D01*
G01X5059425Y1144128D01*
G01X5047169Y1139052D01*
G01X5036646Y1130976D01*
G01X5005892Y1100223D01*
G01X4975857Y1100223D01*
G01X4910903Y1102158D01*
G01X4973613Y1102158D01*
G01X4986765Y1103889D01*
G01X4999020Y1108965D01*
G01X5009544Y1117041D01*
G01X5030757Y1138254D01*
G01X5038833Y1148778D01*
G01X5043909Y1161033D01*
G01X5045641Y1174185D01*
G01X5045641Y1358332D01*
G01X5062972Y1369685D01*
G01X5078003Y1383945D01*
G01X5090253Y1400655D01*
G01X5099330Y1419280D01*
G01X5104943Y1439224D01*
G01X5106912Y1459849D01*
G01X5105175Y1480495D01*
G01X5099787Y1500501D01*
G01X5090920Y1519227D01*
G01X5078859Y1536073D01*
G01X5063989Y1550501D01*
G01X5046786Y1562048D01*
G01X5027801Y1570345D01*
G01X5007641Y1575127D01*
G01X4986952Y1576240D01*
G01X4966396Y1573649D01*
G01X4946630Y1567436D01*
G01X4928288Y1557801D01*
G01X4911956Y1545052D01*
G01X4898157Y1529597D01*
G01X4887332Y1511931D01*
G01X4879829Y1492618D01*
G01X4875886Y1472278D01*
G01X4875632Y1451561D01*
G01X4879072Y1431129D01*
G01X4886098Y1411638D01*
G01X4896485Y1393711D01*
G01X4909899Y1377921D01*
G01X4925913Y1364774D01*
G01X4944013Y1354691D01*
G01X4944013Y1203786D01*
G01X4258769Y1203786D01*
G01X4194589Y1267966D01*
G01X4194589Y1367717D01*
G01X4226364Y1367717D01*
G01X4228922Y1345670D01*
G01X4235200Y1324382D01*
G01X4245012Y1304474D01*
G01X4258073Y1286529D01*
G01X4274000Y1271071D01*
G01X4292327Y1258553D01*
G01X4312520Y1249341D01*
G01X4333987Y1243704D01*
G01X4356100Y1241806D01*
G01X4378213Y1243704D01*
G01X4399680Y1249341D01*
G01X4419873Y1258553D01*
G01X4438200Y1271071D01*
G01X4454127Y1286529D01*
G01X4467188Y1304474D01*
G01X4477000Y1324382D01*
G01X4483278Y1345670D01*
G01X4485836Y1367717D01*
G01X4484601Y1389877D01*
G01X4479608Y1411503D01*
G01X4471004Y1431962D01*
G01X4459040Y1450656D01*
G01X4444066Y1467039D01*
G01X4438712Y1471186D01*
G01X4621780Y1471186D01*
G01X4621780Y1449814D01*
G01X4625707Y1428806D01*
G01X4633428Y1408877D01*
G01X4644678Y1390706D01*
G01X4659077Y1374912D01*
G01X4676132Y1362033D01*
G01X4695263Y1352507D01*
G01X4715819Y1346658D01*
G01X4737100Y1344686D01*
G01X4737100Y1344686D01*
G01X4758381Y1346658D01*
G01X4778937Y1352507D01*
G01X4798068Y1362033D01*
G01X4815123Y1374912D01*
G01X4829522Y1390706D01*
G01X4840772Y1408877D01*
G01X4848493Y1428806D01*
G01X4852420Y1449814D01*
G01X4852420Y1471186D01*
G01X4848493Y1492194D01*
G01X4840772Y1512123D01*
G01X4829522Y1530294D01*
G01X4815123Y1546088D01*
G01X4798068Y1558967D01*
G01X4778937Y1568493D01*
G01X4758381Y1574342D01*
G01X4737100Y1576314D01*
G01X4715819Y1574342D01*
G01X4695263Y1568493D01*
G01X4676132Y1558967D01*
G01X4659077Y1546088D01*
G01X4644678Y1530294D01*
G01X4633428Y1512123D01*
G01X4625707Y1492194D01*
G01X4621780Y1471186D01*
G01X4438712Y1471186D01*
G01X4426519Y1480630D01*
G01X4406914Y1491034D01*
G01X4406914Y1711515D01*
G01X4435285Y1739886D01*
G01X4706566Y1739886D01*
G01X4716988Y1720252D01*
G01X4730607Y1702685D01*
G01X4747024Y1687699D01*
G01X4765757Y1675734D01*
G01X4786256Y1667141D01*
G01X4807922Y1662171D01*
G01X4830118Y1660971D01*
G01X4852193Y1663576D01*
G01X4873499Y1669910D01*
G01X4893413Y1679786D01*
G01X4911350Y1692915D01*
G01X4926783Y1708912D01*
G01X4939260Y1727308D01*
G01X4948416Y1747563D01*
G01X4953981Y1769083D01*
G01X4955793Y1791237D01*
G01X4953798Y1813375D01*
G01X4948055Y1834849D01*
G01X4938732Y1855027D01*
G01X4926103Y1873319D01*
G01X4910538Y1889188D01*
G01X4892493Y1902168D01*
G01X5512981Y1902168D01*
G01X5526133Y1903900D01*
G01X5538388Y1908976D01*
G01X5548912Y1917051D01*
G01X5611871Y1980010D01*
G01X5619946Y1990534D01*
G01X5625022Y2002789D01*
G01X5626754Y2015941D01*
G01X5626754Y2094291D01*
G01X5665300Y2094291D01*
G01X5676367Y2096044D01*
G01X5686351Y2101131D01*
G01X5694274Y2109054D01*
G01X5699361Y2119038D01*
G01X5701114Y2130105D01*
G01X5701114Y2390104D01*
G01X5699361Y2401172D01*
G01X5694274Y2411155D01*
G01X5686351Y2419079D01*
G01X5676367Y2424166D01*
G01X5665300Y2425918D01*
G01X5485300Y2425918D01*
G01X5474233Y2424166D01*
G01X5464249Y2419079D01*
G01X5456326Y2411155D01*
G01X5451239Y2401172D01*
G01X5449486Y2390104D01*
G01X5449486Y2130105D01*
G01X5451239Y2119038D01*
G01X5456326Y2109054D01*
G01X5464249Y2101131D01*
G01X5474233Y2096044D01*
G01X5485300Y2094291D01*
G01X5525126Y2094291D01*
G01X5525126Y2036988D01*
G01X5491933Y2003796D01*
G01X4870804Y2003796D01*
G01X4857652Y2002065D01*
G01X4845397Y1996988D01*
G01X4834873Y1988913D01*
G01X4797098Y1951138D01*
G01X4797098Y1951138D01*
G01X4789022Y1940614D01*
G01X4783946Y1928359D01*
G01X4782214Y1915207D01*
G01X4782214Y1912886D01*
G01X4762753Y1904041D01*
G01X4745006Y1892122D01*
G01X4729457Y1877452D01*
G01X4716527Y1860429D01*
G01X4706566Y1841514D01*
G01X4414238Y1841514D01*
G01X4401086Y1839783D01*
G01X4388831Y1834706D01*
G01X4378307Y1826631D01*
G01X4320169Y1768493D01*
G01X4312094Y1757969D01*
G01X4307017Y1745714D01*
G01X4305286Y1732562D01*
G01X4305286Y1491034D01*
G01X4285681Y1480630D01*
G01X4268134Y1467039D01*
G01X4253160Y1450656D01*
G01X4241196Y1431962D01*
G01X4232592Y1411503D01*
G01X4227599Y1389877D01*
G01X4226364Y1367717D01*
G01X4194589Y1367717D01*
G01X4194589Y2462702D01*
G01X4250241Y2462702D01*
G01X4239183Y2443965D01*
G01X4231411Y2423644D01*
G01X4227142Y2402311D01*
G01X4226497Y2380564D01*
G01X4229493Y2359015D01*
G01X4236046Y2338269D01*
G01X4245973Y2318909D01*
G01X4258993Y2301479D01*
G01X4274742Y2286469D01*
G01X4292777Y2274301D01*
G01X4312592Y2265315D01*
G01X4333628Y2259766D01*
G01X4355296Y2257808D01*
G01X4376987Y2259498D01*
G01X4398091Y2264786D01*
G01X4418015Y2273525D01*
G01X4436199Y2285470D01*
G01X4452133Y2300283D01*
G01X4452755Y2301095D01*
G01X4941486Y2301095D01*
G01X4941486Y2221095D01*
G01X4943398Y2199248D01*
G01X4949074Y2178065D01*
G01X4958342Y2158188D01*
G01X4970921Y2140224D01*
G01X4986428Y2124716D01*
G01X5004393Y2112137D01*
G01X5024269Y2102869D01*
G01X5045453Y2097193D01*
G01X5067300Y2095282D01*
G01X5089147Y2097193D01*
G01X5110331Y2102869D01*
G01X5130207Y2112137D01*
G01X5148172Y2124716D01*
G01X5163679Y2140224D01*
G01X5176258Y2158188D01*
G01X5185526Y2178065D01*
G01X5191202Y2199248D01*
G01X5193114Y2221095D01*
G01X5193114Y2221095D01*
G01X5193114Y2300105D01*
G01X5195486Y2300105D01*
G01X5195486Y2220105D01*
G01X5197398Y2198257D01*
G01X5203074Y2177074D01*
G01X5212342Y2157198D01*
G01X5224921Y2139233D01*
G01X5240428Y2123726D01*
G01X5258393Y2111147D01*
G01X5278269Y2101878D01*
G01X5299453Y2096202D01*
G01X5321300Y2094291D01*
G01X5343147Y2096202D01*
G01X5364331Y2101878D01*
G01X5384207Y2111147D01*
G01X5402172Y2123726D01*
G01X5417679Y2139233D01*
G01X5430258Y2157198D01*
G01X5439526Y2177074D01*
G01X5445202Y2198257D01*
G01X5447114Y2220105D01*
G01X5447114Y2220105D01*
G01X5447114Y2300105D01*
G01X5445202Y2321952D01*
G01X5439526Y2343135D01*
G01X5430258Y2363012D01*
G01X5417679Y2380976D01*
G01X5402172Y2396484D01*
G01X5384207Y2409063D01*
G01X5364331Y2418331D01*
G01X5343147Y2424007D01*
G01X5321300Y2425918D01*
G01X5299453Y2424007D01*
G01X5278269Y2418331D01*
G01X5258393Y2409063D01*
G01X5240428Y2396484D01*
G01X5224921Y2380976D01*
G01X5212342Y2363012D01*
G01X5203074Y2343135D01*
G01X5197398Y2321952D01*
G01X5195486Y2300105D01*
G01X5193114Y2300105D01*
G01X5193114Y2301095D01*
G01X5191202Y2322943D01*
G01X5185526Y2344126D01*
G01X5176258Y2364002D01*
G01X5163679Y2381967D01*
G01X5148172Y2397474D01*
G01X5130207Y2410053D01*
G01X5110331Y2419322D01*
G01X5089147Y2424998D01*
G01X5067300Y2426909D01*
G01X5045453Y2424998D01*
G01X5024269Y2419322D01*
G01X5004393Y2410053D01*
G01X4986428Y2397474D01*
G01X4970921Y2381967D01*
G01X4958342Y2364002D01*
G01X4949074Y2344126D01*
G01X4943398Y2322943D01*
G01X4941486Y2301095D01*
G01X4452755Y2301095D01*
G01X4465368Y2317551D01*
G01X4475534Y2336786D01*
G01X4654754Y2336786D01*
G01X4667905Y2338517D01*
G01X4680161Y2343594D01*
G01X4690685Y2351669D01*
G01X4772777Y2433761D01*
G01X4780852Y2444285D01*
G01X4785929Y2456541D01*
G01X4787660Y2469692D01*
G01X4787660Y2592321D01*
G01X4804405Y2602799D01*
G01X4819049Y2616055D01*
G01X4831136Y2631677D01*
G01X4840292Y2649180D01*
G01X4846231Y2668019D01*
G01X4848768Y2687608D01*
G01X4847825Y2707338D01*
G01X4843431Y2726596D01*
G01X4835723Y2744782D01*
G01X4824939Y2761332D01*
G01X4911711Y2761332D01*
G01X4900028Y2745072D01*
G01X4891640Y2726891D01*
G01X4886852Y2707450D01*
G01X4885837Y2687454D01*
G01X4888631Y2667628D01*
G01X4895135Y2648692D01*
G01X4905110Y2631332D01*
G01X4918197Y2616178D01*
G01X4933919Y2603781D01*
G01X4951707Y2594590D01*
G01X4970915Y2588939D01*
G01X4990846Y2587032D01*
G01X5010777Y2588939D01*
G01X5029985Y2594590D01*
G01X5047773Y2603781D01*
G01X5063495Y2616178D01*
G01X5076582Y2631332D01*
G01X5086557Y2648692D01*
G01X5093061Y2667628D01*
G01X5095855Y2687454D01*
G01X5094840Y2707450D01*
G01X5090052Y2726891D01*
G01X5081664Y2745072D01*
G01X5069981Y2761332D01*
G01X5103798Y2761332D01*
G01X5138328Y2726802D01*
G01X5133748Y2706442D01*
G01X5133024Y2685585D01*
G01X5136182Y2664956D01*
G01X5143112Y2645270D01*
G01X5153573Y2627212D01*
G01X5167203Y2611408D01*
G01X5183527Y2598406D01*
G01X5201980Y2588659D01*
G01X5221921Y2582503D01*
G01X5242658Y2580153D01*
G01X5263470Y2581691D01*
G01X5283637Y2587063D01*
G01X5302456Y2596083D01*
G01X5319276Y2608437D01*
G01X5333513Y2623696D01*
G01X5344671Y2641332D01*
G01X5870810Y2641332D01*
G01X5878258Y2639621D01*
G01X5885880Y2639046D01*
G01X6276161Y2639046D01*
G01X6300959Y2614248D01*
G01X6300959Y2081260D01*
G01X6302691Y2068109D01*
G01X6307767Y2055853D01*
G01X6315842Y2045329D01*
G01X6387195Y1973976D01*
G01X6397719Y1965901D01*
G01X6409974Y1960825D01*
G01X6423126Y1959093D01*
G01X6453886Y1959093D01*
G01X6453886Y1932394D01*
G01X6455639Y1921327D01*
G01X6460726Y1911343D01*
G01X6468649Y1903420D01*
G01X6478633Y1898333D01*
G01X6489700Y1896580D01*
G01X6642100Y1896580D01*
G01X6653167Y1898333D01*
G01X6663151Y1903420D01*
G01X6671074Y1911343D01*
G01X6676161Y1921327D01*
G01X6677914Y1932394D01*
G01X6677914Y2084794D01*
G01X6676161Y2095861D01*
G01X6671074Y2105845D01*
G01X6663151Y2113768D01*
G01X6653167Y2118855D01*
G01X6642100Y2120608D01*
G01X6489700Y2120608D01*
G01X6478633Y2118855D01*
G01X6468649Y2113768D01*
G01X6460726Y2105845D01*
G01X6455639Y2095861D01*
G01X6453886Y2084794D01*
G01X6453886Y2060721D01*
G01X6444174Y2060721D01*
G01X6402587Y2102308D01*
G01X6402587Y2182406D01*
G01X6453886Y2182406D01*
G01X6455639Y2171339D01*
G01X6460726Y2161355D01*
G01X6468649Y2153432D01*
G01X6478633Y2148345D01*
G01X6489700Y2146592D01*
G01X6642100Y2146592D01*
G01X6653167Y2148345D01*
G01X6663151Y2153432D01*
G01X6671074Y2161355D01*
G01X6676161Y2171339D01*
G01X6677914Y2182406D01*
G01X6677914Y2334806D01*
G01X6676161Y2345873D01*
G01X6671074Y2355857D01*
G01X6663151Y2363780D01*
G01X6653167Y2368867D01*
G01X6642100Y2370620D01*
G01X6489700Y2370620D01*
G01X6478633Y2368867D01*
G01X6468649Y2363780D01*
G01X6460726Y2355857D01*
G01X6455639Y2345873D01*
G01X6453886Y2334806D01*
G01X6453886Y2182406D01*
G01X6453886Y2182406D01*
G01X6402587Y2182406D01*
G01X6402587Y2635296D01*
G01X6400856Y2648447D01*
G01X6395779Y2660703D01*
G01X6387704Y2671227D01*
G01X6333140Y2725791D01*
G01X6322616Y2733866D01*
G01X6310361Y2738943D01*
G01X6297209Y2740674D01*
G01X5897418Y2740674D01*
G01X5889969Y2742385D01*
G01X5882348Y2742960D01*
G01X5344671Y2742960D01*
G01X5334177Y2759726D01*
G01X5320897Y2774385D01*
G01X5305246Y2786480D01*
G01X5287712Y2795633D01*
G01X5268841Y2801560D01*
G01X5249222Y2804075D01*
G01X5229466Y2803099D01*
G01X5210190Y2798664D01*
G01X5160777Y2848077D01*
G01X5150253Y2856152D01*
G01X5137998Y2861228D01*
G01X5124846Y2862960D01*
G01X3941600Y2862960D01*
G01X3928448Y2861228D01*
G01X3916193Y2856152D01*
G01X3905669Y2848077D01*
G01X3815669Y2758077D01*
G01X3813241Y2755473D01*
G01X3800507Y2770894D01*
G01X3785234Y2783805D01*
G01X3767908Y2793794D01*
G01X3749081Y2800543D01*
G01X3729355Y2803836D01*
G01X3709357Y2803569D01*
G01X3689726Y2799750D01*
G01X3671086Y2792501D01*
G01X3654033Y2782053D01*
G01X3639110Y2768738D01*
G01X3626792Y2752982D01*
G01X3617473Y2735287D01*
G01X3611449Y2716216D01*
G01X3608912Y2696378D01*
G01X3609943Y2676405D01*
G01X3614510Y2656934D01*
G01X3622467Y2638586D01*
G01X3633560Y2621945D01*
G01X3647435Y2607541D01*
G01X3663650Y2595835D01*
G01X3663650Y2412975D01*
G01X3228757Y2412975D01*
G01X3215605Y2411243D01*
G01X3203350Y2406167D01*
G01X3192826Y2398092D01*
G01X3144085Y2349351D01*
G01X3136010Y2338827D01*
G01X3130933Y2326572D01*
G01X3129202Y2313420D01*
G01X3129202Y2152063D01*
G01X3129232Y2133928D01*
G01X3112505Y2146985D01*
G01X3093723Y2156862D01*
G01X3073485Y2163243D01*
G01X3052435Y2165926D01*
G01X3031243Y2164824D01*
G01X3010584Y2159974D01*
G01X2991117Y2151528D01*
G01X2973460Y2139757D01*
G01X2958177Y2125035D01*
G01X2945754Y2107832D01*
G01X2936587Y2088694D01*
G01X2930967Y2068231D01*
G01X2929073Y2047095D01*
G01X2929073Y1967095D01*
G01X2930975Y1945916D01*
G01X2936618Y1925414D01*
G01X2945822Y1906245D01*
G01X2958293Y1889022D01*
G01X2973633Y1874295D01*
G01X2991350Y1862536D01*
G01X3010878Y1854120D01*
G01X3031593Y1849317D01*
G01X3052832Y1848280D01*
G01X3073916Y1851043D01*
G01X3094171Y1857516D01*
G01X3112949Y1867494D01*
G01X3129650Y1880657D01*
G01X3129998Y1670134D01*
G01X3092827Y1632962D01*
G01X2630181Y1632962D01*
G01X2656315Y1659096D01*
G01X2664390Y1669620D01*
G01X2669466Y1681875D01*
G01X2671198Y1695027D01*
G01X2671198Y1862691D01*
G01X2676668Y1853938D01*
G01X2684407Y1847108D01*
G01X2693773Y1842769D01*
G01X2703987Y1841282D01*
G01X2883987Y1841282D01*
G01X2895054Y1843034D01*
G01X2905038Y1848121D01*
G01X2912961Y1856045D01*
G01X2918048Y1866028D01*
G01X2919801Y1877096D01*
G01X2919801Y2137095D01*
G01X2918048Y2148162D01*
G01X2912961Y2158146D01*
G01X2905038Y2166069D01*
G01X2895054Y2171156D01*
G01X2883987Y2172909D01*
G01X2703987Y2172909D01*
G01X2693773Y2171422D01*
G01X2684407Y2167083D01*
G01X2676668Y2160253D01*
G01X2671198Y2151499D01*
G01X2671198Y2499277D01*
G01X3434648Y2499277D01*
G01X3447800Y2501009D01*
G01X3460055Y2506085D01*
G01X3470579Y2514160D01*
G01X3501359Y2544940D01*
G01X3509434Y2555464D01*
G01X3514511Y2567719D01*
G01X3516242Y2580871D01*
G01X3516242Y2591612D01*
G01X3533981Y2602480D01*
G01X3549404Y2616440D01*
G01X3561979Y2633012D01*
G01X3571273Y2651624D01*
G01X3576966Y2671633D01*
G01X3578860Y2692350D01*
G01X3576890Y2713060D01*
G01X3571125Y2733048D01*
G01X3561763Y2751626D01*
G01X3549128Y2768152D01*
G01X3533654Y2782056D01*
G01X3515876Y2792859D01*
G01X3496407Y2800189D01*
G01X3475918Y2803792D01*
G01X3455116Y2803544D01*
G01X3434719Y2799454D01*
G01X3415430Y2791663D01*
G01X3397915Y2780439D01*
G01X3382777Y2766169D01*
G01X3370538Y2749347D01*
G01X3361622Y2730552D01*
G01X3356335Y2710431D01*
G01X3354859Y2689681D01*
G01X3357246Y2669015D01*
G01X3363414Y2649147D01*
G01X3373149Y2630762D01*
G01X3386116Y2614495D01*
G01X3401867Y2600905D01*
G01X3277825Y2600905D01*
G01X3293125Y2614028D01*
G01X3305826Y2629681D01*
G01X3315516Y2647357D01*
G01X3321880Y2666482D01*
G01X3324715Y2686439D01*
G01X3323926Y2706581D01*
G01X3319540Y2726255D01*
G01X3311700Y2744825D01*
G01X3300658Y2761689D01*
G01X3286772Y2776301D01*
G01X3270493Y2788188D01*
G01X3252347Y2796964D01*
G01X3232921Y2802346D01*
G01X3212846Y2804160D01*
G01X3192771Y2802346D01*
G01X3173345Y2796964D01*
G01X3155199Y2788188D01*
G01X3138920Y2776301D01*
G01X3125034Y2761689D01*
G01X3113992Y2744825D01*
G01X3106152Y2726255D01*
G01X3101766Y2706581D01*
G01X3100977Y2686439D01*
G01X3103812Y2666482D01*
G01X3110176Y2647357D01*
G01X3119866Y2629681D01*
G01X3132567Y2614028D01*
G01X3147867Y2600905D01*
G01X3023825Y2600905D01*
G01X3039125Y2614028D01*
G01X3051826Y2629681D01*
G01X3061516Y2647357D01*
G01X3067880Y2666482D01*
G01X3070715Y2686439D01*
G01X3069926Y2706581D01*
G01X3065540Y2726255D01*
G01X3057700Y2744825D01*
G01X3046658Y2761689D01*
G01X3032772Y2776301D01*
G01X3016493Y2788188D01*
G01X2998347Y2796964D01*
G01X2978921Y2802346D01*
G01X2958846Y2804160D01*
G01X2938771Y2802346D01*
G01X2919345Y2796964D01*
G01X2901199Y2788188D01*
G01X2884920Y2776301D01*
G01X2871034Y2761689D01*
G01X2859992Y2744825D01*
G01X2852152Y2726255D01*
G01X2847766Y2706581D01*
G01X2846977Y2686439D01*
G01X2849812Y2666482D01*
G01X2856176Y2647357D01*
G01X2865866Y2629681D01*
G01X2878567Y2614028D01*
G01X2893867Y2600905D01*
G01X2769825Y2600905D01*
G01X2785127Y2614030D01*
G01X2797828Y2629684D01*
G01X2807518Y2647361D01*
G01X2813882Y2666489D01*
G01X2816715Y2686448D01*
G01X2815925Y2706591D01*
G01X2811537Y2726267D01*
G01X2803693Y2744837D01*
G01X2792648Y2761701D01*
G01X2778759Y2776312D01*
G01X2762477Y2788197D01*
G01X2744327Y2796971D01*
G01X2724899Y2802350D01*
G01X2704822Y2804160D01*
G01X2684745Y2802342D01*
G01X2665319Y2796954D01*
G01X2647174Y2788172D01*
G01X2630896Y2776280D01*
G01X2617014Y2761663D01*
G01X2605976Y2744795D01*
G01X2598141Y2726221D01*
G01X2593761Y2706543D01*
G01X2592979Y2686400D01*
G01X2595821Y2666442D01*
G01X2602194Y2647317D01*
G01X2611891Y2629644D01*
G01X2624599Y2613995D01*
G01X2639906Y2600877D01*
G01X2627360Y2598870D01*
G01X2615704Y2593813D01*
G01X2605667Y2586023D01*
G01X2584453Y2564809D01*
G01X2576378Y2554286D01*
G01X2571301Y2542030D01*
G01X2569570Y2528878D01*
G01X2569570Y2067508D01*
G01X2556453Y2071865D01*
G01X2542718Y2073408D01*
G01X2528961Y2072070D01*
G01X2515780Y2067909D01*
G01X2253038Y2067909D01*
G01X2253038Y2222879D01*
G01X2268019Y2236868D01*
G01X2280200Y2253353D01*
G01X2289174Y2271782D01*
G01X2294639Y2291537D01*
G01X2296413Y2311958D01*
G01X2294436Y2332359D01*
G01X2288774Y2352059D01*
G01X2279618Y2370398D01*
G01X2267273Y2386761D01*
G01X2252153Y2400600D01*
G01X2234764Y2411453D01*
G01X2215689Y2418955D01*
G01X2195567Y2422856D01*
G01X2175070Y2423025D01*
G01X2154886Y2419456D01*
G01X2135690Y2412269D01*
G01X2118125Y2401704D01*
G01X2102779Y2388115D01*
G01X2090167Y2371958D01*
G01X2080710Y2353772D01*
G01X2074724Y2334168D01*
G01X2072412Y2313802D01*
G01X2073849Y2293355D01*
G01X2078988Y2273512D01*
G01X2087657Y2254938D01*
G01X2099565Y2238255D01*
G01X2114314Y2224021D01*
G01X2131410Y2212713D01*
G01X2131410Y2067909D01*
G01X1768667Y2067909D01*
G01X1752956Y2072535D01*
G01X1736589Y2073169D01*
G01X1720567Y2069773D01*
G01X1705865Y2062553D01*
G01X1693382Y2051950D01*
G01X1683878Y2038610D01*
G01X1677933Y2023349D01*
G01X1675911Y2007095D01*
G01X1677933Y1990842D01*
G01X1683878Y1975580D01*
G01X1693382Y1962241D01*
G01X1705865Y1951638D01*
G01X1720567Y1944418D01*
G01X1736589Y1941021D01*
G01X1752956Y1941655D01*
G01X1768667Y1946281D01*
G01X2515780Y1946281D01*
G01X2528961Y1942121D01*
G01X2542718Y1940783D01*
G01X2556453Y1942326D01*
G01X2569570Y1946683D01*
G01X2569570Y1716075D01*
G01X2537777Y1684281D01*
G01X2494373Y1684281D01*
G01X2510636Y1700544D01*
G01X2518711Y1711068D01*
G01X2523787Y1723323D01*
G01X2525519Y1736475D01*
G01X2525519Y1782343D01*
G01X2534886Y1794026D01*
G01X2541393Y1807513D01*
G01X2544709Y1822116D01*
G01X2544663Y1837090D01*
G01X2541259Y1851673D01*
G01X2534669Y1865119D01*
G01X2525231Y1876745D01*
G01X2513425Y1885957D01*
G01X2499853Y1892284D01*
G01X2485207Y1895405D01*
G01X2470234Y1895161D01*
G01X2455698Y1891563D01*
G01X2442340Y1884796D01*
G01X2430841Y1875204D01*
G01X2421787Y1863277D01*
G01X2415640Y1849622D01*
G01X2412713Y1834936D01*
G01X2413157Y1819968D01*
G01X2416947Y1805481D01*
G01X2423891Y1792214D01*
G01X2423891Y1757522D01*
G01X2411458Y1745089D01*
G01X2271858Y1745089D01*
G01X2281549Y1763263D01*
G01X2287511Y1782978D01*
G01X2289514Y1803476D01*
G01X2287481Y1823972D01*
G01X2281491Y1843678D01*
G01X2271773Y1861838D01*
G01X2258700Y1877754D01*
G01X2242774Y1890815D01*
G01X2224608Y1900520D01*
G01X2204897Y1906496D01*
G01X2184400Y1908514D01*
G01X2163903Y1906496D01*
G01X2144192Y1900520D01*
G01X2126026Y1890815D01*
G01X2110100Y1877754D01*
G01X2097027Y1861838D01*
G01X2087309Y1843678D01*
G01X2081319Y1823972D01*
G01X2079286Y1803476D01*
G01X2081289Y1782978D01*
G01X2087251Y1763263D01*
G01X2096942Y1745089D01*
G01X1457862Y1745089D01*
G01X1396462Y1806490D01*
G01X1396462Y1915689D01*
G01X1408681Y1915689D01*
G01X1408681Y1894318D01*
G01X1412608Y1873310D01*
G01X1420329Y1853381D01*
G01X1431580Y1835210D01*
G01X1445978Y1819416D01*
G01X1463033Y1806537D01*
G01X1482164Y1797010D01*
G01X1502720Y1791162D01*
G01X1524001Y1789190D01*
G01X1524001Y1789190D01*
G01X1545282Y1791162D01*
G01X1565838Y1797010D01*
G01X1584969Y1806537D01*
G01X1602024Y1819416D01*
G01X1616422Y1835210D01*
G01X1627673Y1853381D01*
G01X1635394Y1873310D01*
G01X1639321Y1894318D01*
G01X1639321Y1915689D01*
G01X1635394Y1936697D01*
G01X1627673Y1956626D01*
G01X1616422Y1974797D01*
G01X1602024Y1990591D01*
G01X1584969Y2003470D01*
G01X1565838Y2012997D01*
G01X1545282Y2018845D01*
G01X1524001Y2020817D01*
G01X1502720Y2018845D01*
G01X1482164Y2012997D01*
G01X1463033Y2003470D01*
G01X1445978Y1990591D01*
G01X1431580Y1974797D01*
G01X1420329Y1956626D01*
G01X1412608Y1936697D01*
G01X1408681Y1915689D01*
G01X1396462Y1915689D01*
G01X1396462Y2169046D01*
G01X1415550Y2169046D01*
G01X1415550Y2148947D01*
G01X1419243Y2129191D01*
G01X1426503Y2110449D01*
G01X1437084Y2093361D01*
G01X1450624Y2078508D01*
G01X1466663Y2066396D01*
G01X1484655Y2057437D01*
G01X1503986Y2051937D01*
G01X1523999Y2050083D01*
G01X1523999Y2050083D01*
G01X1544012Y2051937D01*
G01X1563343Y2057437D01*
G01X1581335Y2066396D01*
G01X1597374Y2078508D01*
G01X1610914Y2093361D01*
G01X1621495Y2110449D01*
G01X1628755Y2129191D01*
G01X1632448Y2148947D01*
G01X1632448Y2169046D01*
G01X1628755Y2188802D01*
G01X1621495Y2207544D01*
G01X1610914Y2224632D01*
G01X1597374Y2239485D01*
G01X1581335Y2251597D01*
G01X1563343Y2260556D01*
G01X1544012Y2266056D01*
G01X1523999Y2267910D01*
G01X1503986Y2266056D01*
G01X1484655Y2260556D01*
G01X1466663Y2251597D01*
G01X1450624Y2239485D01*
G01X1437084Y2224632D01*
G01X1426503Y2207544D01*
G01X1419243Y2188802D01*
G01X1415550Y2169046D01*
G01X1396462Y2169046D01*
G01X1396462Y2766897D01*
G01X1396237Y2768600D01*
G01X1577086Y2768600D01*
G01X1577086Y2616200D01*
G01X1578839Y2605133D01*
G01X1583926Y2595149D01*
G01X1591849Y2587226D01*
G01X1601833Y2582139D01*
G01X1612900Y2580386D01*
G01X1765300Y2580386D01*
G01X1776367Y2582139D01*
G01X1786351Y2587226D01*
G01X1794274Y2595149D01*
G01X1799361Y2605133D01*
G01X1801114Y2616200D01*
G01X1801114Y2702481D01*
G01X1831310Y2702481D01*
G01X1831310Y2681811D01*
G01X1835108Y2661492D01*
G01X1842575Y2642217D01*
G01X1853457Y2624642D01*
G01X1867383Y2609367D01*
G01X1883878Y2596910D01*
G01X1902382Y2587696D01*
G01X1922263Y2582039D01*
G01X1942846Y2580132D01*
G01X1942846Y2580132D01*
G01X1963429Y2582039D01*
G01X1983310Y2587696D01*
G01X2001814Y2596910D01*
G01X2018309Y2609367D01*
G01X2032235Y2624642D01*
G01X2043117Y2642217D01*
G01X2050584Y2661492D01*
G01X2054382Y2681811D01*
G01X2054382Y2702481D01*
G01X2054382Y2702481D01*
G01X2085310Y2702481D01*
G01X2085310Y2681811D01*
G01X2089108Y2661492D01*
G01X2096575Y2642217D01*
G01X2107457Y2624642D01*
G01X2121383Y2609367D01*
G01X2137878Y2596910D01*
G01X2156382Y2587696D01*
G01X2176263Y2582039D01*
G01X2196846Y2580132D01*
G01X2196846Y2580132D01*
G01X2217429Y2582039D01*
G01X2237310Y2587696D01*
G01X2255814Y2596910D01*
G01X2272309Y2609367D01*
G01X2286235Y2624642D01*
G01X2297117Y2642217D01*
G01X2304584Y2661492D01*
G01X2308382Y2681811D01*
G01X2308382Y2702481D01*
G01X2308382Y2702481D01*
G01X2339310Y2702481D01*
G01X2339310Y2681811D01*
G01X2343108Y2661492D01*
G01X2350575Y2642217D01*
G01X2361457Y2624642D01*
G01X2375383Y2609367D01*
G01X2391878Y2596910D01*
G01X2410382Y2587696D01*
G01X2430263Y2582039D01*
G01X2450846Y2580132D01*
G01X2450846Y2580132D01*
G01X2471429Y2582039D01*
G01X2491310Y2587696D01*
G01X2509814Y2596910D01*
G01X2526309Y2609367D01*
G01X2540235Y2624642D01*
G01X2551117Y2642217D01*
G01X2558584Y2661492D01*
G01X2562382Y2681811D01*
G01X2562382Y2702481D01*
G01X2558584Y2722800D01*
G01X2551117Y2742075D01*
G01X2540235Y2759650D01*
G01X2526309Y2774925D01*
G01X2509814Y2787382D01*
G01X2491310Y2796596D01*
G01X2471429Y2802253D01*
G01X2450846Y2804160D01*
G01X2430263Y2802253D01*
G01X2410382Y2796596D01*
G01X2391878Y2787382D01*
G01X2375383Y2774925D01*
G01X2361457Y2759650D01*
G01X2350575Y2742075D01*
G01X2343108Y2722800D01*
G01X2339310Y2702481D01*
G01X2308382Y2702481D01*
G01X2304584Y2722800D01*
G01X2297117Y2742075D01*
G01X2286235Y2759650D01*
G01X2272309Y2774925D01*
G01X2255814Y2787382D01*
G01X2237310Y2796596D01*
G01X2217429Y2802253D01*
G01X2196846Y2804160D01*
G01X2176263Y2802253D01*
G01X2156382Y2796596D01*
G01X2137878Y2787382D01*
G01X2121383Y2774925D01*
G01X2107457Y2759650D01*
G01X2096575Y2742075D01*
G01X2089108Y2722800D01*
G01X2085310Y2702481D01*
G01X2054382Y2702481D01*
G01X2050584Y2722800D01*
G01X2043117Y2742075D01*
G01X2032235Y2759650D01*
G01X2018309Y2774925D01*
G01X2001814Y2787382D01*
G01X1983310Y2796596D01*
G01X1963429Y2802253D01*
G01X1942846Y2804160D01*
G01X1922263Y2802253D01*
G01X1902382Y2796596D01*
G01X1883878Y2787382D01*
G01X1867383Y2774925D01*
G01X1853457Y2759650D01*
G01X1842575Y2742075D01*
G01X1835108Y2722800D01*
G01X1831310Y2702481D01*
G01X1801114Y2702481D01*
G01X1801114Y2768600D01*
G01X1801114Y2768600D01*
G01X1799361Y2779667D01*
G01X1794274Y2789651D01*
G01X1786351Y2797574D01*
G01X1776367Y2802661D01*
G01X1765300Y2804414D01*
G01X1612900Y2804414D01*
G01X1601833Y2802661D01*
G01X1591849Y2797574D01*
G01X1583926Y2789651D01*
G01X1578839Y2779667D01*
G01X1577086Y2768600D01*
G01X1396237Y2768600D01*
G01X1394730Y2780048D01*
G01X1389654Y2792304D01*
G01X1381578Y2802828D01*
G01X1331212Y2853195D01*
G01X1320688Y2861270D01*
G01X1308432Y2866346D01*
G01X1295281Y2868078D01*
G01X674816Y2868078D01*
G01X664883Y2887042D01*
G01X651880Y2904048D01*
G01X636182Y2918603D01*
G01X618243Y2930286D01*
G01X598583Y2938758D01*
G01X577771Y2943775D01*
G01X556411Y2945191D01*
G01X535119Y2942965D01*
G01X514513Y2937161D01*
G01X495189Y2927948D01*
G01X477707Y2915593D01*
G01X462573Y2900452D01*
G01X450224Y2882964D01*
G01X441020Y2863637D01*
G01X435225Y2843028D01*
G01X433008Y2821735D01*
G01X434433Y2800375D01*
G01X439459Y2779566D01*
G01X447940Y2759910D01*
G01X459630Y2741976D01*
G01X474192Y2726284D01*
G01X491204Y2713288D01*
G01X510172Y2703364D01*
G01X530549Y2696799D01*
G01X551743Y2693784D01*
G01X573142Y2694406D01*
G01X594125Y2698647D01*
G01X614086Y2706384D01*
G01X632446Y2717393D01*
G01X648674Y2731356D01*
G01X662300Y2747867D01*
G01X672929Y2766450D01*
G01X1274233Y2766450D01*
G01X1294834Y2745849D01*
G01X1294834Y1785442D01*
G01X1296565Y1772291D01*
G01X1301641Y1760036D01*
G01X1309717Y1749512D01*
G01X1400884Y1658344D01*
G01X1411407Y1650269D01*
G01X1423663Y1645193D01*
G01X1436815Y1643461D01*
G01X2390627Y1643461D01*
G01X2371793Y1624628D01*
G01X2363718Y1614104D01*
G01X2358641Y1601848D01*
G01X2356910Y1588697D01*
G01X2356910Y1549426D01*
G01X2339666Y1538981D01*
G01X2324495Y1525704D01*
G01X2311856Y1509997D01*
G01X2302133Y1492337D01*
G01X2295619Y1473258D01*
G01X2292512Y1453338D01*
G01X2292907Y1433182D01*
G01X2296792Y1413399D01*
G01X2304048Y1394590D01*
G01X2314456Y1377324D01*
G01X2327701Y1362124D01*
G01X2343380Y1349452D01*
G01X2361020Y1339691D01*
G01X2380085Y1333136D01*
G01X2399998Y1329987D01*
G01X2420155Y1330339D01*
G01X2439946Y1334182D01*
G01X2458771Y1341398D01*
G01X2476059Y1351769D01*
G01X2491286Y1364981D01*
G01X2504400Y1356290D01*
G01X2519191Y1350932D01*
G01X2534829Y1349209D01*
G01X2550432Y1351219D01*
G01X2565123Y1356847D01*
G01X2578074Y1365777D01*
G01X2591912Y1353369D01*
G01X2607557Y1343334D01*
G01X2624606Y1335931D01*
G01X2642619Y1331350D01*
G01X2661133Y1329710D01*
G01X2679671Y1331053D01*
G01X2697755Y1335344D01*
G01X2714920Y1342472D01*
G01X2730724Y1352255D01*
G01X2744759Y1364440D01*
G01X2756665Y1378713D01*
G01X2766133Y1394706D01*
G01X2811991Y1394706D01*
G01X2821791Y1378247D01*
G01X2834169Y1363628D01*
G01X2848789Y1351249D01*
G01X2865248Y1341449D01*
G01X2865248Y1341056D01*
G01X2866980Y1327904D01*
G01X2872056Y1315649D01*
G01X2880131Y1305125D01*
G01X2910687Y1274569D01*
G01X2921171Y1266517D01*
G01X2933377Y1261442D01*
G01X2946480Y1259687D01*
G01X3484289Y1258230D01*
G01X3484289Y274442D01*
G01X3468499Y282470D01*
G01X3468499Y1111785D01*
G01X3466767Y1124937D01*
G01X3461691Y1137192D01*
G01X3453615Y1147716D01*
G01X3406396Y1194935D01*
G01X3395872Y1203011D01*
G01X3383617Y1208087D01*
G01X3370465Y1209818D01*
G01X783978Y1209818D01*
G01X739244Y1254553D01*
G01X739244Y1447800D01*
G01X1140206Y1447800D01*
G01X1142178Y1425262D01*
G01X1148034Y1403408D01*
G01X1157595Y1382903D01*
G01X1170572Y1364370D01*
G01X1186570Y1348372D01*
G01X1205103Y1335395D01*
G01X1225608Y1325834D01*
G01X1247462Y1319978D01*
G01X1270000Y1318006D01*
G01X1292538Y1319978D01*
G01X1314392Y1325834D01*
G01X1334897Y1335395D01*
G01X1353430Y1348372D01*
G01X1369428Y1364370D01*
G01X1382405Y1382903D01*
G01X1391966Y1403408D01*
G01X1397822Y1425262D01*
G01X1399794Y1447800D01*
G01X1399059Y1456206D01*
G01X2038742Y1456206D01*
G01X2038742Y1434834D01*
G01X2042669Y1413826D01*
G01X2050390Y1393898D01*
G01X2061641Y1375727D01*
G01X2076039Y1359933D01*
G01X2093094Y1347053D01*
G01X2112225Y1337527D01*
G01X2132781Y1331678D01*
G01X2154062Y1329706D01*
G01X2154062Y1329706D01*
G01X2175343Y1331678D01*
G01X2195899Y1337527D01*
G01X2215030Y1347053D01*
G01X2232086Y1359933D01*
G01X2246484Y1375727D01*
G01X2257735Y1393898D01*
G01X2265455Y1413826D01*
G01X2269382Y1434834D01*
G01X2269382Y1456206D01*
G01X2265455Y1477214D01*
G01X2257735Y1497143D01*
G01X2246484Y1515314D01*
G01X2232086Y1531108D01*
G01X2215030Y1543987D01*
G01X2195899Y1553514D01*
G01X2175343Y1559362D01*
G01X2154062Y1561334D01*
G01X2132781Y1559362D01*
G01X2112225Y1553514D01*
G01X2093094Y1543987D01*
G01X2076039Y1531108D01*
G01X2061641Y1515314D01*
G01X2050390Y1497143D01*
G01X2042669Y1477214D01*
G01X2038742Y1456206D01*
G01X1399059Y1456206D01*
G01X1397822Y1470338D01*
G01X1391966Y1492192D01*
G01X1382405Y1512697D01*
G01X1369428Y1531230D01*
G01X1353430Y1547228D01*
G01X1334897Y1560205D01*
G01X1314392Y1569766D01*
G01X1292538Y1575622D01*
G01X1270000Y1577594D01*
G01X1247462Y1575622D01*
G01X1225608Y1569766D01*
G01X1205103Y1560205D01*
G01X1186570Y1547228D01*
G01X1170572Y1531230D01*
G01X1157595Y1512697D01*
G01X1148034Y1492192D01*
G01X1142178Y1470338D01*
G01X1140206Y1447800D01*
G01X1140206Y1447800D01*
G01X739244Y1447800D01*
G01X739244Y2473790D01*
G01X737512Y2486941D01*
G01X732436Y2499197D01*
G01X724361Y2509720D01*
G01X669797Y2564284D01*
G01X659273Y2572360D01*
G01X647017Y2577436D01*
G01X633866Y2579168D01*
G01X360058Y2579168D01*
G01X333161Y2606064D01*
G01X333161Y3073400D01*
G01X432986Y3073400D01*
G01X434898Y3051553D01*
G01X440574Y3030369D01*
G01X449842Y3010493D01*
G01X462421Y2992528D01*
G01X477928Y2977021D01*
G01X495893Y2964442D01*
G01X515769Y2955174D01*
G01X536953Y2949498D01*
G01X558800Y2947586D01*
G01X580647Y2949498D01*
G01X601831Y2955174D01*
G01X621707Y2964442D01*
G01X639672Y2977021D01*
G01X655179Y2992528D01*
G01X667758Y3010493D01*
G01X677026Y3030369D01*
G01X682702Y3051553D01*
G01X684614Y3073400D01*
G01X682702Y3095247D01*
G01X677026Y3116431D01*
G01X667758Y3136307D01*
G01X655179Y3154272D01*
G01X639672Y3169779D01*
G01X621707Y3182358D01*
G01X601831Y3191626D01*
G01X580647Y3197302D01*
G01X558800Y3199214D01*
G01X558800Y3199214D01*
G01X536953Y3197302D01*
G01X515769Y3191626D01*
G01X495893Y3182358D01*
G01X477928Y3169779D01*
G01X462421Y3154272D01*
G01X449842Y3136307D01*
G01X440574Y3116431D01*
G01X434898Y3095247D01*
G01X432986Y3073400D01*
G01X333161Y3073400D01*
G01X333161Y3327400D01*
G01X432986Y3327400D01*
G01X434898Y3305553D01*
G01X440574Y3284369D01*
G01X449842Y3264493D01*
G01X462421Y3246528D01*
G01X477928Y3231021D01*
G01X495893Y3218442D01*
G01X515769Y3209174D01*
G01X536953Y3203498D01*
G01X558800Y3201586D01*
G01X580647Y3203498D01*
G01X601831Y3209174D01*
G01X621707Y3218442D01*
G01X639672Y3231021D01*
G01X655179Y3246528D01*
G01X667758Y3264493D01*
G01X677026Y3284369D01*
G01X682702Y3305553D01*
G01X684614Y3327400D01*
G01X682702Y3349247D01*
G01X677026Y3370431D01*
G01X667758Y3390307D01*
G01X655179Y3408272D01*
G01X639672Y3423779D01*
G01X621707Y3436358D01*
G01X601831Y3445626D01*
G01X580647Y3451302D01*
G01X558800Y3453214D01*
G01X558800Y3453214D01*
G01X536953Y3451302D01*
G01X515769Y3445626D01*
G01X495893Y3436358D01*
G01X477928Y3423779D01*
G01X462421Y3408272D01*
G01X449842Y3390307D01*
G01X440574Y3370431D01*
G01X434898Y3349247D01*
G01X432986Y3327400D01*
G01X333161Y3327400D01*
G01X333161Y3491400D01*
G01X432986Y3491400D01*
G01X434739Y3480333D01*
G01X439826Y3470349D01*
G01X447749Y3462426D01*
G01X457733Y3457339D01*
G01X468800Y3455586D01*
G01X648800Y3455586D01*
G01X659867Y3457339D01*
G01X669851Y3462426D01*
G01X677774Y3470349D01*
G01X682861Y3480333D01*
G01X684614Y3491400D01*
G01X684614Y3671400D01*
G01X682861Y3682467D01*
G01X677774Y3692451D01*
G01X669851Y3700374D01*
G01X659867Y3705461D01*
G01X648800Y3707214D01*
G01X468800Y3707214D01*
G01X457733Y3705461D01*
G01X447749Y3700374D01*
G01X439826Y3692451D01*
G01X434739Y3682467D01*
G01X432986Y3671400D01*
G01X432986Y3491400D01*
G01X432986Y3491400D01*
G01X333161Y3491400D01*
G01X333161Y4179906D01*
G01X367403Y4214147D01*
G01X451931Y4214147D01*
G01X462339Y4195439D01*
G01X475767Y4178766D01*
G01X491828Y4164611D01*
G01X510057Y4153384D01*
G01X529924Y4145410D01*
G01X550856Y4140920D01*
G01X572247Y4140044D01*
G01X593476Y4142807D01*
G01X613929Y4149129D01*
G01X633015Y4158827D01*
G01X650180Y4171621D01*
G01X664927Y4187139D01*
G01X676830Y4204934D01*
G01X685544Y4224488D01*
G01X690816Y4245237D01*
G01X692494Y4266580D01*
G01X690529Y4287898D01*
G01X684979Y4308574D01*
G01X676003Y4328010D01*
G01X663862Y4345642D01*
G01X648908Y4360961D01*
G01X631573Y4373523D01*
G01X612358Y4382964D01*
G01X591822Y4389011D01*
G01X570558Y4391489D01*
G01X549181Y4390325D01*
G01X528311Y4385554D01*
G01X508552Y4377314D01*
G01X490476Y4365843D01*
G01X474607Y4351473D01*
G01X461404Y4334622D01*
G01X451249Y4315775D01*
G01X346355Y4315775D01*
G01X333203Y4314044D01*
G01X320948Y4308967D01*
G01X310424Y4300892D01*
G01X246416Y4236884D01*
G01X238341Y4226361D01*
G01X233264Y4214105D01*
G01X231533Y4200953D01*
G01X231533Y2585016D01*
G01X233264Y2571865D01*
G01X238341Y2559609D01*
G01X246416Y2549086D01*
G01X303079Y2492423D01*
G01X313603Y2484347D01*
G01X325858Y2479271D01*
G01X339010Y2477540D01*
G01X612818Y2477540D01*
G01X637616Y2452742D01*
G01X637616Y1233505D01*
G01X639347Y1220354D01*
G01X644423Y1208098D01*
G01X652499Y1197574D01*
G01X727000Y1123073D01*
G01X737524Y1114998D01*
G01X749779Y1109922D01*
G01X762931Y1108190D01*
G01X3349418Y1108190D01*
G01X3366871Y1090738D01*
G01X3366871Y276228D01*
G01X3350706Y265140D01*
G01X3336643Y251485D01*
G01X3325084Y235654D01*
G01X3316360Y218101D01*
G01X3310722Y199327D01*
G01X3308330Y179872D01*
G01X3309254Y160292D01*
G01X3313466Y141148D01*
G01X3320847Y122989D01*
G01X3331185Y106335D01*
G01X3262940Y106335D01*
G01X3273557Y123543D01*
G01X3281020Y142335D01*
G01X3285101Y162139D01*
G01X3285675Y182351D01*
G01X3282725Y202354D01*
G01X3276341Y221540D01*
G01X3266717Y239323D01*
G01X3254147Y255161D01*
G01X3239014Y268571D01*
G01X3221780Y279146D01*
G01X3202969Y286561D01*
G01X3183155Y290592D01*
G01X3162941Y291115D01*
G01X3142945Y288115D01*
G01X3123776Y281683D01*
G01X3106017Y272014D01*
G01X3106137Y461881D01*
G01X3104411Y475044D01*
G01X3099334Y487311D01*
G01X3091254Y497844D01*
G01X3035290Y553807D01*
G01X3024766Y561882D01*
G01X3012511Y566959D01*
G01X2999360Y568690D01*
G01X2456517Y568690D01*
G01X2443365Y566959D01*
G01X2431110Y561882D01*
G01X2420586Y553807D01*
G01X2367421Y500642D01*
G01X2359346Y490118D01*
G01X2354269Y477863D01*
G01X2352538Y464711D01*
G01X2352538Y277157D01*
G01X2335120Y265477D01*
G01X2320093Y250849D01*
G01X2307951Y233750D01*
G01X2299092Y214742D01*
G01X2293805Y194448D01*
G01X2292265Y173533D01*
G01X2294522Y152684D01*
G01X2300502Y132583D01*
G01X2310008Y113891D01*
G01X2322729Y97219D01*
G01X2338249Y83114D01*
G01X2211710Y83114D01*
G01X2227689Y95262D01*
G01X2241167Y110137D01*
G01X2251687Y127232D01*
G01X2258890Y145967D01*
G01X2262533Y165706D01*
G01X2262492Y185779D01*
G01X2258768Y205503D01*
G01X2251488Y224209D01*
G01X2240898Y241260D01*
G01X2227359Y256080D01*
G01X2211331Y268162D01*
G01X2193358Y277099D01*
G01X2174049Y282585D01*
G01X2154062Y284434D01*
G01X2134075Y282585D01*
G01X2114767Y277099D01*
G01X2096793Y268162D01*
G01X2080765Y256080D01*
G01X2067226Y241260D01*
G01X2056637Y224209D01*
G01X2049356Y205503D01*
G01X2045632Y185779D01*
G01X2045591Y165706D01*
G01X2049234Y145967D01*
G01X2056438Y127232D01*
G01X2066957Y110137D01*
G01X2080435Y95262D01*
G01X2096414Y83114D01*
G01X235460Y83114D01*
G01X150406Y168168D01*
G01X150406Y207011D01*
G01X701341Y207011D01*
G01X701341Y186562D01*
G01X705099Y166461D01*
G01X712486Y147393D01*
G01X723251Y130006D01*
G01X737028Y114894D01*
G01X753346Y102571D01*
G01X771652Y93456D01*
G01X791320Y87859D01*
G01X811682Y85973D01*
G01X811682Y85973D01*
G01X1011682Y85973D01*
G01X1032044Y87859D01*
G01X1051713Y93456D01*
G01X1070018Y102571D01*
G01X1086337Y114894D01*
G01X1100113Y130006D01*
G01X1110878Y147393D01*
G01X1118266Y166461D01*
G01X1122023Y186562D01*
G01X1122023Y207011D01*
G01X1118266Y227112D01*
G01X1110878Y246180D01*
G01X1100113Y263567D01*
G01X1086337Y278679D01*
G01X1070018Y291002D01*
G01X1051713Y300117D01*
G01X1032044Y305714D01*
G01X1011682Y307600D01*
G01X811682Y307600D01*
G01X791320Y305714D01*
G01X771652Y300117D01*
G01X753346Y291002D01*
G01X737028Y278679D01*
G01X723251Y263567D01*
G01X712486Y246180D01*
G01X705099Y227112D01*
G01X701341Y207011D01*
G01X150406Y207011D01*
G01X150406Y393700D01*
G01X1533186Y393700D01*
G01X1535206Y373193D01*
G01X1541187Y353475D01*
G01X1550901Y335302D01*
G01X1563973Y319373D01*
G01X1579902Y306301D01*
G01X1598075Y296587D01*
G01X1617793Y290606D01*
G01X1638300Y288586D01*
G01X1658807Y290606D01*
G01X1678525Y296587D01*
G01X1696698Y306301D01*
G01X1712627Y319373D01*
G01X1725699Y335302D01*
G01X1735413Y353475D01*
G01X1741394Y373193D01*
G01X1743414Y393700D01*
G01X1741394Y414207D01*
G01X1735413Y433925D01*
G01X1725699Y452098D01*
G01X1712627Y468027D01*
G01X1696698Y481099D01*
G01X1678525Y490813D01*
G01X1658807Y496794D01*
G01X1638300Y498814D01*
G01X1617793Y496794D01*
G01X1598075Y490813D01*
G01X1579902Y481099D01*
G01X1563973Y468027D01*
G01X1550901Y452098D01*
G01X1541187Y433925D01*
G01X1535206Y414207D01*
G01X1533186Y393700D01*
G01X1533186Y393700D01*
G01X150406Y393700D01*
G01X150406Y566788D01*
G01X487779Y566788D01*
G01X489776Y546516D01*
G01X495689Y527022D01*
G01X505292Y509057D01*
G01X518215Y493310D01*
G01X533962Y480387D01*
G01X551927Y470784D01*
G01X571420Y464871D01*
G01X591693Y462874D01*
G01X611966Y464871D01*
G01X631459Y470784D01*
G01X649424Y480387D01*
G01X665171Y493310D01*
G01X678094Y509057D01*
G01X687697Y527022D01*
G01X693610Y546516D01*
G01X695607Y566788D01*
G01X695607Y766788D01*
G01X1100868Y766788D01*
G01X1100868Y566788D01*
G01X1102755Y546426D01*
G01X1108351Y526758D01*
G01X1117466Y508452D01*
G01X1129789Y492133D01*
G01X1144901Y478357D01*
G01X1162288Y467592D01*
G01X1181356Y460205D01*
G01X1201457Y456447D01*
G01X1221906Y456447D01*
G01X1242007Y460205D01*
G01X1261076Y467592D01*
G01X1278462Y478357D01*
G01X1293574Y492133D01*
G01X1305897Y508452D01*
G01X1315012Y526758D01*
G01X1320609Y546426D01*
G01X1322495Y566788D01*
G01X1322495Y701021D01*
G01X2376944Y701021D01*
G01X2376944Y679649D01*
G01X2380872Y658641D01*
G01X2388592Y638712D01*
G01X2399843Y620541D01*
G01X2414241Y604747D01*
G01X2431296Y591868D01*
G01X2450427Y582342D01*
G01X2470984Y576493D01*
G01X2492264Y574521D01*
G01X2492264Y574521D01*
G01X2513545Y576493D01*
G01X2534101Y582342D01*
G01X2553232Y591868D01*
G01X2570288Y604747D01*
G01X2584686Y620541D01*
G01X2595937Y638712D01*
G01X2603657Y658641D01*
G01X2607584Y679649D01*
G01X2607584Y701021D01*
G01X2603657Y722029D01*
G01X2595937Y741958D01*
G01X2584686Y760128D01*
G01X2570288Y775922D01*
G01X2553232Y788802D01*
G01X2534101Y798328D01*
G01X2513545Y804177D01*
G01X2492264Y806149D01*
G01X2470984Y804177D01*
G01X2450427Y798328D01*
G01X2431296Y788802D01*
G01X2414241Y775922D01*
G01X2399843Y760128D01*
G01X2388592Y741958D01*
G01X2380872Y722029D01*
G01X2376944Y701021D01*
G01X1322495Y701021D01*
G01X1322495Y766788D01*
G01X1320609Y787150D01*
G01X1315012Y806818D01*
G01X1305897Y825124D01*
G01X1293574Y841443D01*
G01X1278462Y855219D01*
G01X1261076Y865984D01*
G01X1242007Y873372D01*
G01X1221906Y877129D01*
G01X1201457Y877129D01*
G01X1181356Y873372D01*
G01X1162288Y865984D01*
G01X1144901Y855219D01*
G01X1129789Y841443D01*
G01X1117466Y825124D01*
G01X1108351Y806818D01*
G01X1102755Y787150D01*
G01X1100868Y766788D01*
G01X1100868Y766788D01*
G01X695607Y766788D01*
G01X693610Y787061D01*
G01X687697Y806554D01*
G01X678094Y824519D01*
G01X665171Y840266D01*
G01X649424Y853189D01*
G01X631459Y862792D01*
G01X611966Y868705D01*
G01X591693Y870702D01*
G01X571420Y868705D01*
G01X551927Y862792D01*
G01X533962Y853189D01*
G01X518215Y840266D01*
G01X505292Y824519D01*
G01X495689Y806554D01*
G01X489776Y787061D01*
G01X487779Y766788D01*
G01X487779Y766788D01*
G01X487779Y566788D01*
G01X150406Y566788D01*
G01X150406Y901700D01*
G01X1526286Y901700D01*
G01X1528193Y881117D01*
G01X1533850Y861236D01*
G01X1543064Y842732D01*
G01X1555521Y826237D01*
G01X1570796Y812311D01*
G01X1588371Y801429D01*
G01X1607646Y793962D01*
G01X1627965Y790164D01*
G01X1648635Y790164D01*
G01X1668954Y793962D01*
G01X1688229Y801429D01*
G01X1705804Y812311D01*
G01X1721079Y826237D01*
G01X1733536Y842732D01*
G01X1742750Y861236D01*
G01X1748407Y881117D01*
G01X1750314Y901700D01*
G01X1748407Y922283D01*
G01X1742750Y942164D01*
G01X1736669Y954377D01*
G01X2383813Y954377D01*
G01X2383813Y934279D01*
G01X2387506Y914522D01*
G01X2394766Y895781D01*
G01X2405347Y878693D01*
G01X2418887Y863839D01*
G01X2434926Y851727D01*
G01X2452918Y842769D01*
G01X2472249Y837268D01*
G01X2492262Y835414D01*
G01X2492262Y835414D01*
G01X2512275Y837268D01*
G01X2531606Y842769D01*
G01X2549598Y851727D01*
G01X2565637Y863839D01*
G01X2579177Y878693D01*
G01X2589758Y895781D01*
G01X2597018Y914522D01*
G01X2600712Y934279D01*
G01X2600712Y954377D01*
G01X2597018Y974134D01*
G01X2589758Y992875D01*
G01X2579177Y1009963D01*
G01X2565637Y1024816D01*
G01X2549598Y1036928D01*
G01X2531606Y1045887D01*
G01X2512275Y1051387D01*
G01X2492262Y1053242D01*
G01X2472249Y1051387D01*
G01X2452918Y1045887D01*
G01X2434926Y1036928D01*
G01X2418887Y1024816D01*
G01X2405347Y1009963D01*
G01X2394766Y992875D01*
G01X2387506Y974134D01*
G01X2383813Y954377D01*
G01X1736669Y954377D01*
G01X1733536Y960668D01*
G01X1721079Y977163D01*
G01X1705804Y991089D01*
G01X1688229Y1001971D01*
G01X1668954Y1009438D01*
G01X1648635Y1013236D01*
G01X1627965Y1013236D01*
G01X1607646Y1009438D01*
G01X1588371Y1001971D01*
G01X1570796Y991089D01*
G01X1555521Y977163D01*
G01X1543064Y960668D01*
G01X1533850Y942164D01*
G01X1528193Y922283D01*
G01X1526286Y901700D01*
G01X1526286Y901700D01*
G01X150406Y901700D01*
G01X150406Y1369603D01*
G01X165546Y1352814D01*
G01X183369Y1338907D01*
G01X203334Y1328303D01*
G01X224837Y1321325D01*
G01X247224Y1318183D01*
G01X269817Y1318973D01*
G01X291930Y1323672D01*
G01X312893Y1332136D01*
G01X332069Y1344109D01*
G01X348876Y1359228D01*
G01X362805Y1377034D01*
G01X373434Y1396986D01*
G01X463162Y1396986D01*
G01X476314Y1398717D01*
G01X488569Y1403794D01*
G01X499093Y1411869D01*
G01X556621Y1469397D01*
G01X564696Y1479920D01*
G01X569772Y1492176D01*
G01X571504Y1505327D01*
G01X571504Y1779770D01*
G01X588381Y1790348D01*
G01X603117Y1803747D01*
G01X615247Y1819545D01*
G01X624388Y1837242D01*
G01X630250Y1856277D01*
G01X632648Y1876050D01*
G01X631506Y1895935D01*
G01X626860Y1915303D01*
G01X618857Y1933543D01*
G01X607750Y1950076D01*
G01X593891Y1964381D01*
G01X577717Y1976006D01*
G01X559740Y1984582D01*
G01X540529Y1989838D01*
G01X520690Y1991609D01*
G01X500851Y1989838D01*
G01X481639Y1984582D01*
G01X463662Y1976006D01*
G01X447489Y1964381D01*
G01X433629Y1950076D01*
G01X422523Y1933543D01*
G01X414520Y1915303D01*
G01X409874Y1895935D01*
G01X408732Y1876050D01*
G01X411130Y1856277D01*
G01X416992Y1837242D01*
G01X426132Y1819545D01*
G01X438263Y1803747D01*
G01X452999Y1790348D01*
G01X469876Y1779770D01*
G01X469876Y1526375D01*
G01X442115Y1498614D01*
G01X373434Y1498614D01*
G01X362805Y1518566D01*
G01X348876Y1536372D01*
G01X332069Y1551491D01*
G01X312893Y1563464D01*
G01X291930Y1571928D01*
G01X269817Y1576627D01*
G01X247224Y1577417D01*
G01X224837Y1574275D01*
G01X203334Y1567297D01*
G01X183369Y1556693D01*
G01X165546Y1542786D01*
G01X150406Y1525997D01*
G01X150406Y2184395D01*
G01X415576Y2184395D01*
G01X417595Y2163888D01*
G01X423577Y2144169D01*
G01X433291Y2125997D01*
G01X446363Y2110068D01*
G01X462292Y2096996D01*
G01X480464Y2087282D01*
G01X500183Y2081301D01*
G01X520690Y2079281D01*
G01X520690Y2079281D01*
G01X541197Y2081301D01*
G01X560915Y2087282D01*
G01X579088Y2096996D01*
G01X595017Y2110068D01*
G01X608089Y2125997D01*
G01X617803Y2144169D01*
G01X623784Y2163888D01*
G01X625804Y2184395D01*
G01X623784Y2204902D01*
G01X617803Y2224620D01*
G01X608089Y2242793D01*
G01X595017Y2258722D01*
G01X579088Y2271794D01*
G01X560915Y2281508D01*
G01X541197Y2287489D01*
G01X520690Y2289509D01*
G01X500183Y2287489D01*
G01X480464Y2281508D01*
G01X462292Y2271794D01*
G01X446363Y2258722D01*
G01X433291Y2242793D01*
G01X423577Y2224620D01*
G01X417595Y2204902D01*
G01X415576Y2184395D01*
G01X150406Y2184395D01*
G01X150406Y4519734D01*
G01X440869Y4519734D01*
G01X442780Y4497887D01*
G01X448457Y4476704D01*
G01X457725Y4456828D01*
G01X470304Y4438863D01*
G01X485811Y4423355D01*
G01X503776Y4410776D01*
G01X523652Y4401508D01*
G01X544836Y4395832D01*
G01X566683Y4393921D01*
G01X588530Y4395832D01*
G01X609714Y4401508D01*
G01X629590Y4410776D01*
G01X647554Y4423355D01*
G01X663062Y4438863D01*
G01X675641Y4456828D01*
G01X684909Y4476704D01*
G01X690585Y4497887D01*
G01X692497Y4519734D01*
G01X690585Y4541582D01*
G01X684909Y4562765D01*
G01X675641Y4582641D01*
G01X663062Y4600606D01*
G01X647554Y4616113D01*
G01X629590Y4628692D01*
G01X609714Y4637961D01*
G01X588530Y4643637D01*
G01X566683Y4645548D01*
G01X566683Y4645548D01*
G01X544836Y4643637D01*
G01X523652Y4637961D01*
G01X503776Y4628692D01*
G01X485811Y4616113D01*
G01X470304Y4600606D01*
G01X457725Y4582641D01*
G01X448457Y4562765D01*
G01X442780Y4541582D01*
G01X440869Y4519734D01*
G01X150406Y4519734D01*
G01X150406Y4651395D01*
G01X217176Y4718166D01*
G01X453806Y4718166D01*
G01X464859Y4699835D01*
G01X478860Y4683644D01*
G01X495403Y4670060D01*
G01X514010Y4659477D01*
G01X534141Y4652202D01*
G01X555214Y4648444D01*
G01X576619Y4648314D01*
G01X597736Y4651813D01*
G01X617955Y4658842D01*
G01X636689Y4669196D01*
G01X653397Y4682576D01*
G01X667595Y4698595D01*
G01X678872Y4716789D01*
G01X686901Y4736632D01*
G01X691451Y4757548D01*
G01X692389Y4778933D01*
G01X689689Y4800167D01*
G01X683428Y4820636D01*
G01X673787Y4839748D01*
G01X661047Y4856949D01*
G01X645575Y4871741D01*
G01X627819Y4883696D01*
G01X608294Y4892468D01*
G01X587564Y4897803D01*
G01X566230Y4899547D01*
G01X544909Y4897650D01*
G01X524218Y4892165D01*
G01X504756Y4883252D01*
G01X487087Y4871170D01*
G01X471722Y4856266D01*
G01X459106Y4838974D01*
G01X449603Y4819794D01*
G01X196129Y4819794D01*
G01X182977Y4818062D01*
G01X170722Y4812986D01*
G01X160198Y4804911D01*
G01X73914Y4718627D01*
G01X73914Y4937735D01*
G01X440869Y4937735D01*
G01X442622Y4926667D01*
G01X447709Y4916684D01*
G01X455632Y4908760D01*
G01X465616Y4903673D01*
G01X476683Y4901921D01*
G01X656683Y4901921D01*
G01X667750Y4903673D01*
G01X677734Y4908760D01*
G01X685657Y4916684D01*
G01X690744Y4926667D01*
G01X692497Y4937735D01*
G01X692497Y5117734D01*
G01X690744Y5128801D01*
G01X685657Y5138785D01*
G01X677734Y5146708D01*
G01X667750Y5151795D01*
G01X656683Y5153548D01*
G01X476683Y5153548D01*
G01X465616Y5151795D01*
G01X455632Y5146708D01*
G01X447709Y5138785D01*
G01X442622Y5128801D01*
G01X440869Y5117734D01*
G01X440869Y4937735D01*
G01X440869Y4937735D01*
G01X73914Y4937735D01*
G01X73914Y5242481D01*
G01X1577310Y5242481D01*
G01X1577310Y5221811D01*
G01X1581108Y5201492D01*
G01X1588575Y5182217D01*
G01X1599457Y5164642D01*
G01X1613383Y5149367D01*
G01X1629878Y5136910D01*
G01X1648382Y5127696D01*
G01X1668263Y5122039D01*
G01X1688846Y5120132D01*
G01X1688846Y5120132D01*
G01X1709429Y5122039D01*
G01X1729310Y5127696D01*
G01X1747814Y5136910D01*
G01X1764309Y5149367D01*
G01X1778235Y5164642D01*
G01X1789117Y5182217D01*
G01X1796584Y5201492D01*
G01X1800382Y5221811D01*
G01X1800382Y5242481D01*
G01X1800382Y5242481D01*
G01X1831310Y5242481D01*
G01X1831310Y5221811D01*
G01X1835108Y5201492D01*
G01X1842575Y5182217D01*
G01X1853457Y5164642D01*
G01X1867383Y5149367D01*
G01X1883878Y5136910D01*
G01X1902382Y5127696D01*
G01X1922263Y5122039D01*
G01X1942846Y5120132D01*
G01X1942846Y5120132D01*
G01X1963429Y5122039D01*
G01X1983310Y5127696D01*
G01X2001814Y5136910D01*
G01X2018309Y5149367D01*
G01X2032235Y5164642D01*
G01X2043117Y5182217D01*
G01X2050584Y5201492D01*
G01X2054382Y5221811D01*
G01X2054382Y5242481D01*
G01X2054382Y5242481D01*
G01X2085310Y5242481D01*
G01X2085310Y5221811D01*
G01X2089108Y5201492D01*
G01X2096575Y5182217D01*
G01X2107457Y5164642D01*
G01X2121383Y5149367D01*
G01X2137878Y5136910D01*
G01X2156382Y5127696D01*
G01X2176263Y5122039D01*
G01X2196846Y5120132D01*
G01X2196846Y5120132D01*
G01X2217429Y5122039D01*
G01X2237310Y5127696D01*
G01X2255814Y5136910D01*
G01X2272309Y5149367D01*
G01X2286235Y5164642D01*
G01X2297117Y5182217D01*
G01X2304584Y5201492D01*
G01X2308382Y5221811D01*
G01X2308382Y5242481D01*
G01X2308382Y5242481D01*
G01X2339310Y5242481D01*
G01X2339310Y5221811D01*
G01X2343108Y5201492D01*
G01X2350575Y5182217D01*
G01X2361457Y5164642D01*
G01X2375383Y5149367D01*
G01X2391878Y5136910D01*
G01X2410382Y5127696D01*
G01X2430263Y5122039D01*
G01X2450846Y5120132D01*
G01X2450846Y5120132D01*
G01X2471429Y5122039D01*
G01X2491310Y5127696D01*
G01X2509814Y5136910D01*
G01X2526309Y5149367D01*
G01X2540235Y5164642D01*
G01X2551117Y5182217D01*
G01X2558584Y5201492D01*
G01X2562382Y5221811D01*
G01X2562382Y5242481D01*
G01X2562382Y5242481D01*
G01X2593310Y5242481D01*
G01X2593310Y5221811D01*
G01X2597108Y5201492D01*
G01X2604575Y5182217D01*
G01X2615457Y5164642D01*
G01X2629383Y5149367D01*
G01X2645878Y5136910D01*
G01X2664382Y5127696D01*
G01X2684263Y5122039D01*
G01X2704846Y5120132D01*
G01X2704846Y5120132D01*
G01X2725429Y5122039D01*
G01X2745310Y5127696D01*
G01X2763814Y5136910D01*
G01X2780309Y5149367D01*
G01X2794235Y5164642D01*
G01X2805117Y5182217D01*
G01X2812584Y5201492D01*
G01X2816382Y5221811D01*
G01X2816382Y5242481D01*
G01X2816382Y5242481D01*
G01X2847310Y5242481D01*
G01X2847310Y5221811D01*
G01X2851108Y5201492D01*
G01X2858575Y5182217D01*
G01X2869457Y5164642D01*
G01X2883383Y5149367D01*
G01X2899878Y5136910D01*
G01X2918382Y5127696D01*
G01X2938263Y5122039D01*
G01X2958846Y5120132D01*
G01X2958846Y5120132D01*
G01X2979429Y5122039D01*
G01X2999310Y5127696D01*
G01X3017814Y5136910D01*
G01X3034309Y5149367D01*
G01X3048235Y5164642D01*
G01X3059117Y5182217D01*
G01X3066584Y5201492D01*
G01X3070382Y5221811D01*
G01X3070382Y5242481D01*
G01X3070382Y5242481D01*
G01X3101310Y5242481D01*
G01X3101310Y5221811D01*
G01X3105108Y5201492D01*
G01X3112575Y5182217D01*
G01X3123457Y5164642D01*
G01X3137383Y5149367D01*
G01X3153878Y5136910D01*
G01X3172382Y5127696D01*
G01X3192263Y5122039D01*
G01X3212846Y5120132D01*
G01X3212846Y5120132D01*
G01X3233429Y5122039D01*
G01X3253310Y5127696D01*
G01X3271814Y5136910D01*
G01X3288309Y5149367D01*
G01X3302235Y5164642D01*
G01X3313117Y5182217D01*
G01X3320584Y5201492D01*
G01X3324382Y5221811D01*
G01X3324382Y5242481D01*
G01X3324382Y5242481D01*
G01X3355310Y5242481D01*
G01X3355310Y5221811D01*
G01X3359108Y5201492D01*
G01X3366575Y5182217D01*
G01X3377457Y5164642D01*
G01X3391383Y5149367D01*
G01X3407878Y5136910D01*
G01X3426382Y5127696D01*
G01X3446263Y5122039D01*
G01X3466846Y5120132D01*
G01X3466846Y5120132D01*
G01X3487429Y5122039D01*
G01X3507310Y5127696D01*
G01X3525814Y5136910D01*
G01X3542309Y5149367D01*
G01X3556235Y5164642D01*
G01X3567117Y5182217D01*
G01X3574584Y5201492D01*
G01X3578382Y5221811D01*
G01X3578382Y5242481D01*
G01X3578382Y5242481D01*
G01X3609310Y5242481D01*
G01X3609310Y5221811D01*
G01X3613108Y5201492D01*
G01X3620575Y5182217D01*
G01X3631457Y5164642D01*
G01X3645383Y5149367D01*
G01X3661878Y5136910D01*
G01X3680382Y5127696D01*
G01X3700263Y5122039D01*
G01X3720846Y5120132D01*
G01X3720846Y5120132D01*
G01X3741429Y5122039D01*
G01X3761310Y5127696D01*
G01X3779814Y5136910D01*
G01X3796309Y5149367D01*
G01X3810235Y5164642D01*
G01X3821117Y5182217D01*
G01X3828584Y5201492D01*
G01X3832382Y5221811D01*
G01X3832382Y5242481D01*
G01X3832382Y5242481D01*
G01X3863310Y5242481D01*
G01X3863310Y5221811D01*
G01X3867108Y5201492D01*
G01X3874575Y5182217D01*
G01X3885457Y5164642D01*
G01X3899383Y5149367D01*
G01X3915878Y5136910D01*
G01X3934382Y5127696D01*
G01X3954263Y5122039D01*
G01X3974846Y5120132D01*
G01X3974846Y5120132D01*
G01X3995429Y5122039D01*
G01X4015310Y5127696D01*
G01X4033814Y5136910D01*
G01X4050309Y5149367D01*
G01X4064235Y5164642D01*
G01X4075117Y5182217D01*
G01X4082584Y5201492D01*
G01X4086382Y5221811D01*
G01X4086382Y5242481D01*
G01X4086382Y5242481D01*
G01X4117310Y5242481D01*
G01X4117310Y5221811D01*
G01X4121108Y5201492D01*
G01X4128575Y5182217D01*
G01X4139457Y5164642D01*
G01X4153383Y5149367D01*
G01X4169878Y5136910D01*
G01X4188382Y5127696D01*
G01X4208263Y5122039D01*
G01X4228846Y5120132D01*
G01X4228846Y5120132D01*
G01X4249429Y5122039D01*
G01X4269310Y5127696D01*
G01X4287814Y5136910D01*
G01X4304309Y5149367D01*
G01X4318235Y5164642D01*
G01X4329117Y5182217D01*
G01X4336584Y5201492D01*
G01X4340382Y5221811D01*
G01X4340382Y5242481D01*
G01X4340382Y5242481D01*
G01X4371310Y5242481D01*
G01X4371310Y5221811D01*
G01X4375108Y5201492D01*
G01X4382575Y5182217D01*
G01X4393457Y5164642D01*
G01X4407383Y5149367D01*
G01X4423878Y5136910D01*
G01X4442382Y5127696D01*
G01X4462263Y5122039D01*
G01X4482846Y5120132D01*
G01X4482846Y5120132D01*
G01X4503429Y5122039D01*
G01X4523310Y5127696D01*
G01X4541814Y5136910D01*
G01X4558309Y5149367D01*
G01X4572235Y5164642D01*
G01X4583117Y5182217D01*
G01X4590584Y5201492D01*
G01X4594382Y5221811D01*
G01X4594382Y5242481D01*
G01X4594382Y5242481D01*
G01X4625310Y5242481D01*
G01X4625310Y5221811D01*
G01X4629108Y5201492D01*
G01X4636575Y5182217D01*
G01X4647457Y5164642D01*
G01X4661383Y5149367D01*
G01X4677878Y5136910D01*
G01X4696382Y5127696D01*
G01X4716263Y5122039D01*
G01X4736846Y5120132D01*
G01X4736846Y5120132D01*
G01X4757429Y5122039D01*
G01X4777310Y5127696D01*
G01X4795814Y5136910D01*
G01X4812309Y5149367D01*
G01X4826235Y5164642D01*
G01X4837117Y5182217D01*
G01X4844584Y5201492D01*
G01X4848382Y5221811D01*
G01X4848382Y5232146D01*
G01X4885732Y5232146D01*
G01X4887752Y5211639D01*
G01X4893733Y5191921D01*
G01X4903447Y5173748D01*
G01X4916519Y5157819D01*
G01X4932448Y5144747D01*
G01X4950621Y5135033D01*
G01X4970339Y5129052D01*
G01X4990846Y5127032D01*
G01X4990846Y5127032D01*
G01X5011353Y5129052D01*
G01X5031071Y5135033D01*
G01X5049244Y5144747D01*
G01X5065173Y5157819D01*
G01X5078245Y5173748D01*
G01X5087959Y5191921D01*
G01X5093940Y5211639D01*
G01X5095960Y5232146D01*
G01X5094942Y5242481D01*
G01X5133310Y5242481D01*
G01X5133310Y5221811D01*
G01X5137108Y5201492D01*
G01X5144575Y5182217D01*
G01X5155457Y5164642D01*
G01X5169383Y5149367D01*
G01X5185878Y5136910D01*
G01X5204382Y5127696D01*
G01X5224263Y5122039D01*
G01X5244846Y5120132D01*
G01X5244846Y5120132D01*
G01X5265429Y5122039D01*
G01X5285310Y5127696D01*
G01X5303814Y5136910D01*
G01X5320309Y5149367D01*
G01X5334235Y5164642D01*
G01X5345117Y5182217D01*
G01X5352584Y5201492D01*
G01X5356382Y5221811D01*
G01X5356382Y5242481D01*
G01X5352584Y5262800D01*
G01X5345117Y5282075D01*
G01X5334235Y5299650D01*
G01X5320309Y5314925D01*
G01X5303814Y5327382D01*
G01X5285310Y5336596D01*
G01X5265429Y5342253D01*
G01X5244846Y5344160D01*
G01X5224263Y5342253D01*
G01X5204382Y5336596D01*
G01X5185878Y5327382D01*
G01X5169383Y5314925D01*
G01X5155457Y5299650D01*
G01X5144575Y5282075D01*
G01X5137108Y5262800D01*
G01X5133310Y5242481D01*
G01X5094942Y5242481D01*
G01X5093940Y5252653D01*
G01X5087959Y5272371D01*
G01X5078245Y5290544D01*
G01X5065173Y5306473D01*
G01X5049244Y5319545D01*
G01X5031071Y5329259D01*
G01X5011353Y5335240D01*
G01X4990846Y5337260D01*
G01X4970339Y5335240D01*
G01X4950621Y5329259D01*
G01X4932448Y5319545D01*
G01X4916519Y5306473D01*
G01X4903447Y5290544D01*
G01X4893733Y5272371D01*
G01X4887752Y5252653D01*
G01X4885732Y5232146D01*
G01X4848382Y5232146D01*
G01X4848382Y5242481D01*
G01X4844584Y5262800D01*
G01X4837117Y5282075D01*
G01X4826235Y5299650D01*
G01X4812309Y5314925D01*
G01X4795814Y5327382D01*
G01X4777310Y5336596D01*
G01X4757429Y5342253D01*
G01X4736846Y5344160D01*
G01X4716263Y5342253D01*
G01X4696382Y5336596D01*
G01X4677878Y5327382D01*
G01X4661383Y5314925D01*
G01X4647457Y5299650D01*
G01X4636575Y5282075D01*
G01X4629108Y5262800D01*
G01X4625310Y5242481D01*
G01X4594382Y5242481D01*
G01X4590584Y5262800D01*
G01X4583117Y5282075D01*
G01X4572235Y5299650D01*
G01X4558309Y5314925D01*
G01X4541814Y5327382D01*
G01X4523310Y5336596D01*
G01X4503429Y5342253D01*
G01X4482846Y5344160D01*
G01X4462263Y5342253D01*
G01X4442382Y5336596D01*
G01X4423878Y5327382D01*
G01X4407383Y5314925D01*
G01X4393457Y5299650D01*
G01X4382575Y5282075D01*
G01X4375108Y5262800D01*
G01X4371310Y5242481D01*
G01X4340382Y5242481D01*
G01X4336584Y5262800D01*
G01X4329117Y5282075D01*
G01X4318235Y5299650D01*
G01X4304309Y5314925D01*
G01X4287814Y5327382D01*
G01X4269310Y5336596D01*
G01X4249429Y5342253D01*
G01X4228846Y5344160D01*
G01X4208263Y5342253D01*
G01X4188382Y5336596D01*
G01X4169878Y5327382D01*
G01X4153383Y5314925D01*
G01X4139457Y5299650D01*
G01X4128575Y5282075D01*
G01X4121108Y5262800D01*
G01X4117310Y5242481D01*
G01X4086382Y5242481D01*
G01X4082584Y5262800D01*
G01X4075117Y5282075D01*
G01X4064235Y5299650D01*
G01X4050309Y5314925D01*
G01X4033814Y5327382D01*
G01X4015310Y5336596D01*
G01X3995429Y5342253D01*
G01X3974846Y5344160D01*
G01X3954263Y5342253D01*
G01X3934382Y5336596D01*
G01X3915878Y5327382D01*
G01X3899383Y5314925D01*
G01X3885457Y5299650D01*
G01X3874575Y5282075D01*
G01X3867108Y5262800D01*
G01X3863310Y5242481D01*
G01X3832382Y5242481D01*
G01X3828584Y5262800D01*
G01X3821117Y5282075D01*
G01X3810235Y5299650D01*
G01X3796309Y5314925D01*
G01X3779814Y5327382D01*
G01X3761310Y5336596D01*
G01X3741429Y5342253D01*
G01X3720846Y5344160D01*
G01X3700263Y5342253D01*
G01X3680382Y5336596D01*
G01X3661878Y5327382D01*
G01X3645383Y5314925D01*
G01X3631457Y5299650D01*
G01X3620575Y5282075D01*
G01X3613108Y5262800D01*
G01X3609310Y5242481D01*
G01X3578382Y5242481D01*
G01X3574584Y5262800D01*
G01X3567117Y5282075D01*
G01X3556235Y5299650D01*
G01X3542309Y5314925D01*
G01X3525814Y5327382D01*
G01X3507310Y5336596D01*
G01X3487429Y5342253D01*
G01X3466846Y5344160D01*
G01X3446263Y5342253D01*
G01X3426382Y5336596D01*
G01X3407878Y5327382D01*
G01X3391383Y5314925D01*
G01X3377457Y5299650D01*
G01X3366575Y5282075D01*
G01X3359108Y5262800D01*
G01X3355310Y5242481D01*
G01X3324382Y5242481D01*
G01X3320584Y5262800D01*
G01X3313117Y5282075D01*
G01X3302235Y5299650D01*
G01X3288309Y5314925D01*
G01X3271814Y5327382D01*
G01X3253310Y5336596D01*
G01X3233429Y5342253D01*
G01X3212846Y5344160D01*
G01X3192263Y5342253D01*
G01X3172382Y5336596D01*
G01X3153878Y5327382D01*
G01X3137383Y5314925D01*
G01X3123457Y5299650D01*
G01X3112575Y5282075D01*
G01X3105108Y5262800D01*
G01X3101310Y5242481D01*
G01X3070382Y5242481D01*
G01X3066584Y5262800D01*
G01X3059117Y5282075D01*
G01X3048235Y5299650D01*
G01X3034309Y5314925D01*
G01X3017814Y5327382D01*
G01X2999310Y5336596D01*
G01X2979429Y5342253D01*
G01X2958846Y5344160D01*
G01X2938263Y5342253D01*
G01X2918382Y5336596D01*
G01X2899878Y5327382D01*
G01X2883383Y5314925D01*
G01X2869457Y5299650D01*
G01X2858575Y5282075D01*
G01X2851108Y5262800D01*
G01X2847310Y5242481D01*
G01X2816382Y5242481D01*
G01X2812584Y5262800D01*
G01X2805117Y5282075D01*
G01X2794235Y5299650D01*
G01X2780309Y5314925D01*
G01X2763814Y5327382D01*
G01X2745310Y5336596D01*
G01X2725429Y5342253D01*
G01X2704846Y5344160D01*
G01X2684263Y5342253D01*
G01X2664382Y5336596D01*
G01X2645878Y5327382D01*
G01X2629383Y5314925D01*
G01X2615457Y5299650D01*
G01X2604575Y5282075D01*
G01X2597108Y5262800D01*
G01X2593310Y5242481D01*
G01X2562382Y5242481D01*
G01X2558584Y5262800D01*
G01X2551117Y5282075D01*
G01X2540235Y5299650D01*
G01X2526309Y5314925D01*
G01X2509814Y5327382D01*
G01X2491310Y5336596D01*
G01X2471429Y5342253D01*
G01X2450846Y5344160D01*
G01X2430263Y5342253D01*
G01X2410382Y5336596D01*
G01X2391878Y5327382D01*
G01X2375383Y5314925D01*
G01X2361457Y5299650D01*
G01X2350575Y5282075D01*
G01X2343108Y5262800D01*
G01X2339310Y5242481D01*
G01X2308382Y5242481D01*
G01X2304584Y5262800D01*
G01X2297117Y5282075D01*
G01X2286235Y5299650D01*
G01X2272309Y5314925D01*
G01X2255814Y5327382D01*
G01X2237310Y5336596D01*
G01X2217429Y5342253D01*
G01X2196846Y5344160D01*
G01X2176263Y5342253D01*
G01X2156382Y5336596D01*
G01X2137878Y5327382D01*
G01X2121383Y5314925D01*
G01X2107457Y5299650D01*
G01X2096575Y5282075D01*
G01X2089108Y5262800D01*
G01X2085310Y5242481D01*
G01X2054382Y5242481D01*
G01X2050584Y5262800D01*
G01X2043117Y5282075D01*
G01X2032235Y5299650D01*
G01X2018309Y5314925D01*
G01X2001814Y5327382D01*
G01X1983310Y5336596D01*
G01X1963429Y5342253D01*
G01X1942846Y5344160D01*
G01X1922263Y5342253D01*
G01X1902382Y5336596D01*
G01X1883878Y5327382D01*
G01X1867383Y5314925D01*
G01X1853457Y5299650D01*
G01X1842575Y5282075D01*
G01X1835108Y5262800D01*
G01X1831310Y5242481D01*
G01X1800382Y5242481D01*
G01X1796584Y5262800D01*
G01X1789117Y5282075D01*
G01X1778235Y5299650D01*
G01X1764309Y5314925D01*
G01X1747814Y5327382D01*
G01X1729310Y5336596D01*
G01X1709429Y5342253D01*
G01X1688846Y5344160D01*
G01X1668263Y5342253D01*
G01X1648382Y5336596D01*
G01X1629878Y5327382D01*
G01X1613383Y5314925D01*
G01X1599457Y5299650D01*
G01X1588575Y5282075D01*
G01X1581108Y5262800D01*
G01X1577310Y5242481D01*
G01X73914Y5242481D01*
G01X73914Y5399786D01*
G01X6682486Y5399786D01*
G01X6682486Y4124839D01*
G01X6684130Y4114113D01*
G01X6688910Y4104373D01*
G01X6696388Y4096510D01*
G01X6974586Y3881325D01*
G01X6974586Y545203D01*
G01X6695540Y315528D01*
G01X6688503Y307745D01*
G01X6684023Y298256D01*
G01X6682486Y287876D01*
G01X6682486Y23114D01*
G37*
G36*
G01X2993837Y1531334D02*
G01X3102993Y1531334D01*
G01X3088733Y1517963D01*
G01X3077094Y1502257D01*
G01X3068449Y1484724D01*
G01X3063077Y1465928D01*
G01X3061152Y1446475D01*
G01X3062736Y1426991D01*
G01X3067777Y1408103D01*
G01X3076113Y1390421D01*
G01X3087476Y1374514D01*
G01X3101500Y1360895D01*
G01X2995435Y1361182D01*
G01X3009482Y1377068D01*
G01X3020397Y1395249D01*
G01X3027814Y1415115D01*
G01X3031484Y1436001D01*
G01X3031285Y1457206D01*
G01X3027223Y1478019D01*
G01X3019434Y1497742D01*
G01X3008180Y1515715D01*
G01X2993837Y1531334D01*
G37*
G36*
G01X4062939Y2761332D02*
G01X4140753Y2761332D01*
G01X4129458Y2743810D01*
G01X4121606Y2724498D01*
G01X4117468Y2704066D01*
G01X4117188Y2683221D01*
G01X4120776Y2662685D01*
G01X4128106Y2643170D01*
G01X4138927Y2625351D01*
G01X4152861Y2609845D01*
G01X4169428Y2597190D01*
G01X4188052Y2587824D01*
G01X4208090Y2582072D01*
G01X4228846Y2580132D01*
G01X4249602Y2582072D01*
G01X4269640Y2587824D01*
G01X4288264Y2597190D01*
G01X4304831Y2609845D01*
G01X4318765Y2625351D01*
G01X4329586Y2643170D01*
G01X4336916Y2662685D01*
G01X4340504Y2683221D01*
G01X4340224Y2704066D01*
G01X4336086Y2724498D01*
G01X4328234Y2743810D01*
G01X4316939Y2761332D01*
G01X4394753Y2761332D01*
G01X4384548Y2745855D01*
G01X4377036Y2728906D01*
G01X4372422Y2710951D01*
G01X4370833Y2692481D01*
G01X4372311Y2674001D01*
G01X4376818Y2656019D01*
G01X4285129Y2564330D01*
G01X4164988Y2564330D01*
G01X4151837Y2562598D01*
G01X4139581Y2557522D01*
G01X4129057Y2549447D01*
G01X4107844Y2528233D01*
G01X4099769Y2517709D01*
G01X4094692Y2505454D01*
G01X4092961Y2492302D01*
G01X4092961Y1246918D01*
G01X4094692Y1233767D01*
G01X4099769Y1221511D01*
G01X4107844Y1210987D01*
G01X4201791Y1117041D01*
G01X4211437Y1109484D01*
G01X4222611Y1104456D01*
G01X3749038Y1104456D01*
G01X3733497Y1119998D01*
G01X3739010Y1129322D01*
G01X3742422Y1139604D01*
G01X3743577Y1150376D01*
G01X3743577Y1200661D01*
G01X3741846Y1213813D01*
G01X3736769Y1226068D01*
G01X3728694Y1236592D01*
G01X3678208Y1287078D01*
G01X3667684Y1295153D01*
G01X3655429Y1300230D01*
G01X3642277Y1301961D01*
G01X3609294Y1301961D01*
G01X3581397Y1329858D01*
G01X3575444Y1339805D01*
G01X3567392Y1348143D01*
G01X3557660Y1354440D01*
G01X3546753Y1358367D01*
G01X3535241Y1359720D01*
G01X3491301Y1359839D01*
G01X3506292Y1374102D01*
G01X3518315Y1390943D01*
G01X3526936Y1409753D01*
G01X3531844Y1429854D01*
G01X3532861Y1450521D01*
G01X3532144Y1455570D01*
G01X3569613Y1455570D01*
G01X3569613Y1435471D01*
G01X3573306Y1415715D01*
G01X3580566Y1396973D01*
G01X3591147Y1379885D01*
G01X3604687Y1365032D01*
G01X3620726Y1352920D01*
G01X3638718Y1343961D01*
G01X3658049Y1338461D01*
G01X3678062Y1336606D01*
G01X3678062Y1336606D01*
G01X3698075Y1338461D01*
G01X3717407Y1343961D01*
G01X3735398Y1352920D01*
G01X3751437Y1365032D01*
G01X3764978Y1379885D01*
G01X3775558Y1396973D01*
G01X3782819Y1415715D01*
G01X3786512Y1435471D01*
G01X3786512Y1455570D01*
G01X3782819Y1475326D01*
G01X3775558Y1494068D01*
G01X3764978Y1511156D01*
G01X3751437Y1526009D01*
G01X3735398Y1538121D01*
G01X3717407Y1547080D01*
G01X3698075Y1552580D01*
G01X3678062Y1554434D01*
G01X3658049Y1552580D01*
G01X3638718Y1547080D01*
G01X3620726Y1538121D01*
G01X3604687Y1526009D01*
G01X3591147Y1511156D01*
G01X3580566Y1494068D01*
G01X3573306Y1475326D01*
G01X3569613Y1455570D01*
G01X3532144Y1455570D01*
G01X3529952Y1471007D01*
G01X3523221Y1490574D01*
G01X3512911Y1508514D01*
G01X3499394Y1524180D01*
G01X3483158Y1537008D01*
G01X3464789Y1546533D01*
G01X3444950Y1552413D01*
G01X3424357Y1554434D01*
G01X3403754Y1552524D01*
G01X3383883Y1546752D01*
G01X3365463Y1537327D01*
G01X3349158Y1524587D01*
G01X3335556Y1508994D01*
G01X3325149Y1491110D01*
G01X3318312Y1471580D01*
G01X3315292Y1451110D01*
G01X3316197Y1430438D01*
G01X3320996Y1410311D01*
G01X3329515Y1391454D01*
G01X3341447Y1374549D01*
G01X3356360Y1360205D01*
G01X3238166Y1360525D01*
G01X3252607Y1374466D01*
G01X3264244Y1390821D01*
G01X3272683Y1409033D01*
G01X3277636Y1428485D01*
G01X3278935Y1448516D01*
G01X3276536Y1468444D01*
G01X3270521Y1487594D01*
G01X3261094Y1505315D01*
G01X3248575Y1521005D01*
G01X3233389Y1534132D01*
G01X3216052Y1544248D01*
G01X3197154Y1551011D01*
G01X3177335Y1554191D01*
G01X3157269Y1553680D01*
G01X3216778Y1613190D01*
G01X3224867Y1623738D01*
G01X3229944Y1636023D01*
G01X3231661Y1649205D01*
G01X3231309Y1862037D01*
G01X3249561Y1851746D01*
G01X3269268Y1844627D01*
G01X3289883Y1840877D01*
G01X3310835Y1840601D01*
G01X3331542Y1843805D01*
G01X3351429Y1850402D01*
G01X3369947Y1860208D01*
G01X3386579Y1872951D01*
G01X3400867Y1888278D01*
G01X3412412Y1905764D01*
G01X3420896Y1924923D01*
G01X3426082Y1945224D01*
G01X3427827Y1966105D01*
G01X3427827Y2046105D01*
G01X3426118Y2066771D01*
G01X3421037Y2086875D01*
G01X3412724Y2105872D01*
G01X3401403Y2123245D01*
G01X3387382Y2138523D01*
G01X3371042Y2151291D01*
G01X3352827Y2161200D01*
G01X3352827Y2189322D01*
G01X3398690Y2235186D01*
G01X3811775Y2235186D01*
G01X3822506Y2218108D01*
G01X3836126Y2203231D01*
G01X3852193Y2191037D01*
G01X3870186Y2181923D01*
G01X3889522Y2176183D01*
G01X3909575Y2174004D01*
G01X3929692Y2175457D01*
G01X3949223Y2180493D01*
G01X3967534Y2188951D01*
G01X3984032Y2200556D01*
G01X3984032Y1854175D01*
G01X3967965Y1866724D01*
G01X3949779Y1875935D01*
G01X3930156Y1881463D01*
G01X3909836Y1883099D01*
G01X3889581Y1880782D01*
G01X3870155Y1874599D01*
G01X3852288Y1864782D01*
G01X3836652Y1851700D01*
G01X3823835Y1835847D01*
G01X3814319Y1817818D01*
G01X3808463Y1798290D01*
G01X3806486Y1778000D01*
G01X3808463Y1757710D01*
G01X3814319Y1738182D01*
G01X3823835Y1720153D01*
G01X3836652Y1704300D01*
G01X3852288Y1691218D01*
G01X3870155Y1681401D01*
G01X3889581Y1675218D01*
G01X3909836Y1672901D01*
G01X3930156Y1674537D01*
G01X3949779Y1680065D01*
G01X3967965Y1689276D01*
G01X3984032Y1701825D01*
G01X3984032Y1569352D01*
G01X3969721Y1555041D01*
G01X3949601Y1559999D01*
G01X3928920Y1561292D01*
G01X3908340Y1558879D01*
G01X3888519Y1552837D01*
G01X3870092Y1543360D01*
G01X3853649Y1530751D01*
G01X3839716Y1515413D01*
G01X3828739Y1497838D01*
G01X3821069Y1478588D01*
G01X3816953Y1458280D01*
G01X3816522Y1437563D01*
G01X3819789Y1417101D01*
G01X3826651Y1397548D01*
G01X3836887Y1379532D01*
G01X3850169Y1363628D01*
G01X3866074Y1350345D01*
G01X3884090Y1340109D01*
G01X3903643Y1333247D01*
G01X3924105Y1329980D01*
G01X3944822Y1330411D01*
G01X3965130Y1334528D01*
G01X3984380Y1342197D01*
G01X4001955Y1353174D01*
G01X4017292Y1367107D01*
G01X4029902Y1383550D01*
G01X4039379Y1401977D01*
G01X4045421Y1421798D01*
G01X4047834Y1442378D01*
G01X4046540Y1463059D01*
G01X4041583Y1483179D01*
G01X4070777Y1512373D01*
G01X4078852Y1522897D01*
G01X4083928Y1535152D01*
G01X4085660Y1548304D01*
G01X4085660Y2632146D01*
G01X4084328Y2643705D01*
G01X4080401Y2654658D01*
G01X4085180Y2672818D01*
G01X4086858Y2691521D01*
G01X4085389Y2710241D01*
G01X4080813Y2728452D01*
G01X4073259Y2745644D01*
G01X4062939Y2761332D01*
G37*
G54D10*
G01X6682486Y23114D02*
G01X3514559Y23114D01*
G01X3571034Y79590D01*
G03X3585917Y115520I-35931J35931D01*
G01X3585917Y117455D01*
G03X3786976Y175520I92145J58065D01*
G03X3585917Y233586I-108914J0D01*
G01X3585917Y427895D01*
G03X3658506Y414706I46145J47625D01*
G01X3855909Y414706D01*
G01X3871248Y399366D01*
G01X3871248Y274083D01*
G03X3932062Y59706I60814J-98562D01*
G03X3992876Y274083I0J115814D01*
G01X3992876Y293036D01*
G01X4037244Y337404D01*
G01X4361322Y337404D01*
G03X4454079Y398218I26443J60814D01*
G03X4361322Y459032I-66314J0D01*
G01X4012054Y459032D01*
G03X3985781Y453064I0J-60814D01*
G03X3975064Y467558I-53718J-28508D01*
G01X3924101Y518522D01*
G03X3881099Y536334I-43002J-43002D01*
G01X3692877Y536334D01*
G01X3692877Y1016912D01*
G03X3727990Y1002828I35114J36730D01*
G01X4832227Y1002828D01*
G01X4924287Y1000086D01*
G01X4924287Y285098D01*
G03X5008957Y76071I66813J-94598D01*
G03X5025915Y300957I-17857J114429D01*
G01X5025915Y600302D01*
G03X5186325Y637404I61849J97916D01*
G01X6378831Y637404D01*
G01X6454286Y561949D01*
G01X6454286Y289062D01*
G03X6515100Y74686I60814J-98562D01*
G03X6575914Y289062I0J115814D01*
G01X6575914Y587139D01*
G03X6558102Y630141I-60814J0D01*
G01X6447023Y741220D01*
G03X6404021Y759032I-43002J-43002D01*
G01X5186325Y759032D01*
G03X5025915Y796134I-98562J-60814D01*
G01X5025915Y862560D01*
G03X5178615Y892145I61847J89651D01*
G03X5146023Y1044231I-90853J60066D01*
G01X5236108Y1044231D01*
G03X5272039Y1059115I0J50814D01*
G01X5293252Y1080328D01*
G03X5308135Y1116259I-35931J35931D01*
G01X5308135Y1267788D01*
G03X5295914Y1300844I-50814J0D01*
G01X5295914Y1356429D01*
G03X5349171Y1409686I-50814J104071D01*
G01X5395029Y1409686D01*
G03X5614914Y1460500I104071J50814D01*
G03X5395029Y1511314I-115814J0D01*
G01X5349171Y1511314D01*
G03X5295660Y1564695I-104071J-50814D01*
G01X5295660Y1739544D01*
G03X5244846Y1848467I-50814J42609D01*
G03X5194032Y1739544I0J-66314D01*
G01X5194032Y1564447D01*
G03X5194286Y1356429I51068J-103947D01*
G01X5194286Y1276818D01*
G03X5206507Y1243762I50814J0D01*
G01X5206507Y1145859D01*
G01X5072576Y1145859D01*
G03X5036646Y1130976I0J-50814D01*
G01X5005892Y1100223D01*
G01X4975857Y1100223D01*
G01X4910903Y1102158D01*
G01X4973613Y1102158D01*
G03X5009544Y1117041I0J50814D01*
G01X5030757Y1138254D01*
G03X5045641Y1174185I-35931J35931D01*
G01X5045641Y1358332D01*
G03X4986952Y1576240I-54541J102168D01*
G03X4944013Y1354691I4148J-115740D01*
G01X4944013Y1203786D01*
G01X4258769Y1203786D01*
G01X4194589Y1267966D01*
G01X4194589Y2462702D01*
G01X4250241Y2462702D01*
G03X4292777Y2274301I105859J-75102D01*
G03X4475534Y2336786I63323J113299D01*
G01X4654754Y2336786D01*
G03X4690685Y2351669I0J50814D01*
G01X4772777Y2433761D01*
G03X4787660Y2469692I-35931J35931D01*
G01X4787660Y2592321D01*
G03X4824939Y2761332I-50814J99825D01*
G01X4911711Y2761332D01*
G03X4990846Y2587032I79135J-69186D01*
G03X5069981Y2761332I0J105114D01*
G01X5103798Y2761332D01*
G01X5138328Y2726802D01*
G03X5201980Y2588659I106518J-34656D01*
G03X5344671Y2641332I42866J103487D01*
G01X5870810Y2641332D01*
G03X5885880Y2639046I15070J48528D01*
G01X6276161Y2639046D01*
G01X6300959Y2614248D01*
G01X6300959Y2081260D01*
G03X6315842Y2045329I50814J0D01*
G01X6387195Y1973976D01*
G03X6423126Y1959093I35931J35931D01*
G01X6453886Y1959093D01*
G01X6453886Y1932394D01*
G03X6489700Y1896580I35814J0D01*
G01X6642100Y1896580D01*
G03X6677914Y1932394I0J35814D01*
G01X6677914Y2084794D01*
G03X6642100Y2120608I-35814J0D01*
G01X6489700Y2120608D01*
G03X6453886Y2084794I0J-35814D01*
G01X6453886Y2060721D01*
G01X6444174Y2060721D01*
G01X6402587Y2102308D01*
G01X6402587Y2635296D01*
G03X6387704Y2671227I-50814J0D01*
G01X6333140Y2725791D01*
G03X6297209Y2740674I-35931J-35931D01*
G01X5897418Y2740674D01*
G03X5882348Y2742960I-15070J-48528D01*
G01X5344671Y2742960D01*
G03X5287712Y2795633I-99825J-50814D01*
G03X5210190Y2798664I-42866J-103487D01*
G01X5160777Y2848077D01*
G03X5124846Y2862960I-35931J-35931D01*
G01X3941600Y2862960D01*
G03X3905669Y2848077I0J-50814D01*
G01X3815669Y2758077D01*
G03X3813241Y2755473I35931J-35931D01*
G03X3639110Y2768738I-92395J-63327D01*
G03X3663650Y2595835I81736J-76592D01*
G01X3663650Y2412975D01*
G01X3228757Y2412975D01*
G03X3192826Y2398092I0J-50814D01*
G01X3144085Y2349351D01*
G03X3129202Y2313420I35931J-35931D01*
G01X3129202Y2152063D01*
G01X3129232Y2133928D01*
G03X2929073Y2047095I-81245J-86832D01*
G01X2929073Y1967095D01*
G03X3129650Y1880657I118914J0D01*
G01X3129998Y1670134D01*
G01X3092827Y1632962D01*
G01X2630181Y1632962D01*
G01X2656315Y1659096D01*
G03X2671198Y1695027I-35931J35931D01*
G01X2671198Y1862691D01*
G03X2703987Y1841282I32790J14404D01*
G01X2883987Y1841282D01*
G03X2919801Y1877096I0J35814D01*
G01X2919801Y2137095D01*
G03X2883987Y2172909I-35814J0D01*
G01X2703987Y2172909D01*
G03X2671198Y2151499I0J-35814D01*
G01X2671198Y2499277D01*
G01X3434648Y2499277D01*
G03X3470579Y2514160I0J50814D01*
G01X3501359Y2544940D01*
G03X3516242Y2580871I-35931J35931D01*
G01X3516242Y2591612D01*
G03X3475918Y2803792I-49396J100534D01*
G03X3401867Y2600905I-9072J-111646D01*
G01X3277825Y2600905D01*
G03X3212846Y2804160I-64979J91241D01*
G03X3147867Y2600905I0J-112014D01*
G01X3023825Y2600905D01*
G03X2958846Y2804160I-64979J91241D01*
G03X2893867Y2600905I0J-112014D01*
G01X2769825Y2600905D01*
G03X2704822Y2804160I-64979J91241D01*
G03X2639906Y2600877I24J-112014D01*
G03X2605667Y2586023I1691J-50786D01*
G01X2584453Y2564809D01*
G03X2569570Y2528878I35931J-35931D01*
G01X2569570Y2067508D01*
G03X2515780Y2067909I-27347J-60413D01*
G01X2253038Y2067909D01*
G01X2253038Y2222879D01*
G03X2175070Y2423025I-68638J88521D01*
G03X2131410Y2212713I9330J-111625D01*
G01X2131410Y2067909D01*
G01X1768667Y2067909D01*
G03X1675911Y2007095I-26443J-60814D01*
G03X1768667Y1946281I66314J0D01*
G01X2515780Y1946281D01*
G03X2569570Y1946683I26443J60814D01*
G01X2569570Y1716075D01*
G01X2537777Y1684281D01*
G01X2494373Y1684281D01*
G01X2510636Y1700544D01*
G03X2525519Y1736475I-35931J35931D01*
G01X2525519Y1782343D01*
G03X2485207Y1895405I-46723J47059D01*
G03X2423891Y1792214I-6411J-66003D01*
G01X2423891Y1757522D01*
G01X2411458Y1745089D01*
G01X2271858Y1745089D01*
G03X2184400Y1908514I-87458J58311D01*
G03X2096942Y1745089I0J-105114D01*
G01X1457862Y1745089D01*
G01X1396462Y1806490D01*
G01X1396462Y2766897D01*
G03X1381578Y2802828I-50814J0D01*
G01X1331212Y2853195D01*
G03X1295281Y2868078I-35931J-35931D01*
G01X674816Y2868078D01*
G03X433008Y2821735I-116016J-48678D01*
G03X672929Y2766450I125792J-2335D01*
G01X1274233Y2766450D01*
G01X1294834Y2745849D01*
G01X1294834Y1785442D01*
G03X1309717Y1749512I50814J0D01*
G01X1400884Y1658344D01*
G03X1436815Y1643461I35931J35931D01*
G01X2390627Y1643461D01*
G01X2371793Y1624628D01*
G03X2356910Y1588697I35931J-35931D01*
G01X2356910Y1549426D01*
G03X2314456Y1377324I51152J-103905D01*
G03X2491286Y1364981I93606J68196D01*
G03X2578074Y1365777I42934J50540D01*
G03X2679671Y1331053I83988J79743D01*
G03X2766133Y1394706I-17608J114468D01*
G01X2811991Y1394706D01*
G03X2865248Y1341449I104071J50814D01*
G01X2865248Y1341056D01*
G03X2880131Y1305125I50814J0D01*
G01X2910687Y1274569D01*
G03X2946480Y1259687I35931J35931D01*
G01X3484289Y1258230D01*
G01X3484289Y274442D01*
G03X3468499Y282470I-60227J-98922D01*
G01X3468499Y1111785D01*
G03X3453615Y1147716I-50814J0D01*
G01X3406396Y1194935D01*
G03X3370465Y1209818I-35931J-35931D01*
G01X783978Y1209818D01*
G01X739244Y1254553D01*
G01X739244Y2473790D01*
G03X724361Y2509720I-50814J0D01*
G01X669797Y2564284D01*
G03X633866Y2579168I-35931J-35931D01*
G01X360058Y2579168D01*
G01X333161Y2606064D01*
G01X333161Y4179906D01*
G01X367403Y4214147D01*
G01X451931Y4214147D01*
G03X692494Y4266580I114751J51587D01*
G03X451249Y4315775I-125811J-845D01*
G01X346355Y4315775D01*
G03X310424Y4300892I0J-50814D01*
G01X246416Y4236884D01*
G03X231533Y4200953I35931J-35931D01*
G01X231533Y2585016D01*
G03X246416Y2549086I50814J0D01*
G01X303079Y2492423D01*
G03X339010Y2477540I35931J35931D01*
G01X612818Y2477540D01*
G01X637616Y2452742D01*
G01X637616Y1233505D01*
G03X652499Y1197574I50814J0D01*
G01X727000Y1123073D01*
G03X762931Y1108190I35931J35931D01*
G01X3349418Y1108190D01*
G01X3366871Y1090738D01*
G01X3366871Y276228D01*
G03X3310722Y199327I57192J-100707D01*
G03X3331185Y106335I113341J-23807D01*
G01X3262940Y106335D01*
G03X3254147Y255161I-92877J69186D01*
G03X3106017Y272014I-84085J-79640D01*
G01X3106137Y461881D01*
G03X3091254Y497844I-50814J32D01*
G01X3035290Y553807D01*
G03X2999360Y568690I-35931J-35931D01*
G01X2456517Y568690D01*
G03X2420586Y553807I0J-50814D01*
G01X2367421Y500642D01*
G03X2352538Y464711I35931J-35931D01*
G01X2352538Y277157D01*
G03X2338249Y83114I55524J-101636D01*
G01X2211710Y83114D01*
G03X2154062Y284434I-57648J92406D01*
G03X2096414Y83114I0J-108914D01*
G01X235460Y83114D01*
G01X150406Y168168D01*
G01X150406Y1369603D01*
G03X373434Y1396986I103594J78197D01*
G01X463162Y1396986D01*
G03X499093Y1411869I0J50814D01*
G01X556621Y1469397D01*
G03X571504Y1505327I-35931J35931D01*
G01X571504Y1779770D01*
G03X520690Y1991609I-50814J99825D01*
G03X469876Y1779770I0J-112014D01*
G01X469876Y1526375D01*
G01X442115Y1498614D01*
G01X373434Y1498614D01*
G03X150406Y1525997I-119434J-50814D01*
G01X150406Y4651395D01*
G01X217176Y4718166D01*
G01X453806Y4718166D01*
G03X692389Y4778933I112877J55569D01*
G03X449603Y4819794I-125706J-5198D01*
G01X196129Y4819794D01*
G03X160198Y4804911I0J-50814D01*
G01X73914Y4718627D01*
G01X73914Y5399786D01*
G01X6682486Y5399786D01*
G01X6682486Y4124839D01*
G03X6696388Y4096510I35814J0D01*
G01X6974586Y3881325D01*
G01X6974586Y545203D01*
G01X6695540Y315528D01*
G03X6682486Y287876I22760J-27652D01*
G01X6682486Y23114D01*
G01X520690Y2079281D02*
G03X520690Y2289509I0J105114D01*
G03X520690Y2079281I0J-105114D01*
G01X432986Y3491400D02*
G03X468800Y3455586I35814J0D01*
G01X648800Y3455586D01*
G03X684614Y3491400I0J35814D01*
G01X684614Y3671400D01*
G03X648800Y3707214I-35814J0D01*
G01X468800Y3707214D01*
G03X432986Y3671400I0J-35814D01*
G01X432986Y3491400D01*
G01X558800Y3199214D02*
G03X558800Y2947586I0J-125814D01*
G03X558800Y3199214I0J125814D01*
G01X558800Y3453214D02*
G03X558800Y3201586I0J-125814D01*
G03X558800Y3453214I0J125814D01*
G01X440869Y4937735D02*
G03X476683Y4901921I35814J0D01*
G01X656683Y4901921D01*
G03X692497Y4937735I0J35814D01*
G01X692497Y5117734D01*
G03X656683Y5153548I-35814J0D01*
G01X476683Y5153548D01*
G03X440869Y5117734I0J-35814D01*
G01X440869Y4937735D01*
G01X566683Y4645548D02*
G03X566683Y4393921I0J-125814D01*
G03X566683Y4645548I0J125814D01*
G01X487779Y766788D02*
G01X487779Y566788D01*
G03X695607Y566788I103914J0D01*
G01X695607Y766788D01*
G03X487779Y766788I-103914J0D01*
G01X811682Y85973D02*
G01X1011682Y85973D01*
G03X1011682Y307600I0J110814D01*
G01X811682Y307600D01*
G03X811682Y85973I0J-110814D01*
G01X1100868Y766788D02*
G01X1100868Y566788D01*
G03X1322495Y566788I110814J0D01*
G01X1322495Y766788D01*
G03X1100868Y766788I-110814J0D01*
G01X1140206Y1447800D02*
G03X1399794Y1447800I129794J0D01*
G03X1140206Y1447800I-129794J0D01*
G01X1524001Y1789190D02*
G03X1524001Y2020817I0J115814D01*
G03X1524001Y1789190I0J-115814D01*
G01X1523999Y2050083D02*
G03X1523999Y2267910I0J108914D01*
G03X1523999Y2050083I0J-108914D01*
G01X1526286Y901700D02*
G03X1750314Y901700I112014J0D01*
G03X1526286Y901700I-112014J0D01*
G01X1533186Y393700D02*
G03X1743414Y393700I105114J0D01*
G03X1533186Y393700I-105114J0D01*
G01X1688846Y5120132D02*
G03X1688846Y5344160I0J112014D01*
G03X1688846Y5120132I0J-112014D01*
G01X1801114Y2768600D02*
G03X1765300Y2804414I-35814J0D01*
G01X1612900Y2804414D01*
G03X1577086Y2768600I0J-35814D01*
G01X1577086Y2616200D01*
G03X1612900Y2580386I35814J0D01*
G01X1765300Y2580386D01*
G03X1801114Y2616200I0J35814D01*
G01X1801114Y2768600D01*
G01X1942846Y5120132D02*
G03X1942846Y5344160I0J112014D01*
G03X1942846Y5120132I0J-112014D01*
G01X1942846Y2580132D02*
G03X1942846Y2804160I0J112014D01*
G03X1942846Y2580132I0J-112014D01*
G01X2154062Y1329706D02*
G03X2154062Y1561334I0J115814D01*
G03X2154062Y1329706I0J-115814D01*
G01X2196846Y5120132D02*
G03X2196846Y5344160I0J112014D01*
G03X2196846Y5120132I0J-112014D01*
G01X2196846Y2580132D02*
G03X2196846Y2804160I0J112014D01*
G03X2196846Y2580132I0J-112014D01*
G01X2450846Y5120132D02*
G03X2450846Y5344160I0J112014D01*
G03X2450846Y5120132I0J-112014D01*
G01X2450846Y2580132D02*
G03X2450846Y2804160I0J112014D01*
G03X2450846Y2580132I0J-112014D01*
G01X2492264Y574521D02*
G03X2492264Y806149I0J115814D01*
G03X2492264Y574521I0J-115814D01*
G01X2492262Y835414D02*
G03X2492262Y1053242I0J108914D01*
G03X2492262Y835414I0J-108914D01*
G01X2704846Y5120132D02*
G03X2704846Y5344160I0J112014D01*
G03X2704846Y5120132I0J-112014D01*
G01X2958846Y5120132D02*
G03X2958846Y5344160I0J112014D01*
G03X2958846Y5120132I0J-112014D01*
G01X3212846Y5120132D02*
G03X3212846Y5344160I0J112014D01*
G03X3212846Y5120132I0J-112014D01*
G01X3466846Y5120132D02*
G03X3466846Y5344160I0J112014D01*
G03X3466846Y5120132I0J-112014D01*
G01X3720846Y5120132D02*
G03X3720846Y5344160I0J112014D01*
G03X3720846Y5120132I0J-112014D01*
G01X3974846Y5120132D02*
G03X3974846Y5344160I0J112014D01*
G03X3974846Y5120132I0J-112014D01*
G01X4228846Y5120132D02*
G03X4228846Y5344160I0J112014D01*
G03X4228846Y5120132I0J-112014D01*
G01X4797098Y1951138D02*
G03X4782214Y1915207I35931J-35931D01*
G01X4782214Y1912886D01*
G03X4706566Y1841514I43786J-122186D01*
G01X4414238Y1841514D01*
G03X4378307Y1826631I0J-50814D01*
G01X4320169Y1768493D01*
G03X4305286Y1732562I35931J-35931D01*
G01X4305286Y1491034D01*
G03X4356100Y1241806I50814J-119434D01*
G03X4406914Y1491034I0J129794D01*
G01X4406914Y1711515D01*
G01X4435285Y1739886D01*
G01X4706566Y1739886D01*
G03X4911350Y1692915I119434J50814D01*
G03X4892493Y1902168I-85350J97785D01*
G01X5512981Y1902168D01*
G03X5548912Y1917051I0J50814D01*
G01X5611871Y1980010D01*
G03X5626754Y2015941I-35931J35931D01*
G01X5626754Y2094291D01*
G01X5665300Y2094291D01*
G03X5701114Y2130105I0J35814D01*
G01X5701114Y2390104D01*
G03X5665300Y2425918I-35814J0D01*
G01X5485300Y2425918D01*
G03X5449486Y2390104I0J-35814D01*
G01X5449486Y2130105D01*
G03X5485300Y2094291I35814J0D01*
G01X5525126Y2094291D01*
G01X5525126Y2036988D01*
G01X5491933Y2003796D01*
G01X4870804Y2003796D01*
G03X4834873Y1988913I0J-50814D01*
G01X4797098Y1951138D01*
G01X4482846Y5120132D02*
G03X4482846Y5344160I0J112014D01*
G03X4482846Y5120132I0J-112014D01*
G01X4737100Y1344686D02*
G03X4737100Y1576314I0J115814D01*
G03X4737100Y1344686I0J-115814D01*
G01X4736846Y5120132D02*
G03X4736846Y5344160I0J112014D01*
G03X4736846Y5120132I0J-112014D01*
G01X4737100Y299414D02*
G03X4737100Y81586I0J-108914D01*
G03X4737100Y299414I0J108914D01*
G01X4990846Y5127032D02*
G03X4990846Y5337260I0J105114D01*
G03X4990846Y5127032I0J-105114D01*
G01X5193114Y2221095D02*
G01X5193114Y2301095D01*
G03X4941486Y2301095I-125814J0D01*
G01X4941486Y2221095D01*
G03X5193114Y2221095I125814J0D01*
G01X5245567Y74687D02*
G03X5322566Y276592I-467J115813D01*
G01X5421634Y276592D01*
G03X5515330Y75829I77466J-86092D01*
G03X5549633Y294708I-16230J114671D01*
G03X5535031Y325299I-50533J-5340D01*
G01X5496993Y363337D01*
G03X5461062Y378220I-35931J-35931D01*
G01X5251399Y378220D01*
G03X5157662Y369636I-42609J-50814D01*
G03X5166942Y275964I51129J-42230D01*
G03X5245567Y74687I78158J-85464D01*
G01X5244846Y5120132D02*
G03X5244846Y5344160I0J112014D01*
G03X5244846Y5120132I0J-112014D01*
G01X5447114Y2220105D02*
G01X5447114Y2300105D01*
G03X5195486Y2300105I-125814J0D01*
G01X5195486Y2220105D01*
G03X5447114Y2220105I125814J0D01*
G01X5753100Y306314D02*
G03X5753100Y74686I0J-115814D01*
G03X5753100Y306314I0J115814D01*
G01X5753100Y1351586D02*
G03X5753100Y1569414I0J108914D01*
G03X5753100Y1351586I0J-108914D01*
G01X5971794Y1790700D02*
G03X5712206Y1790700I-129794J0D01*
G03X5971794Y1790700I129794J0D01*
G01X6007100Y306314D02*
G03X6007100Y74686I0J-115814D01*
G03X6007100Y306314I0J115814D01*
G01X6007100Y1351586D02*
G03X6007100Y1569414I0J108914D01*
G03X6007100Y1351586I0J-108914D01*
G01X6261100Y1351586D02*
G03X6261100Y1569414I0J108914D01*
G03X6261100Y1351586I0J-108914D01*
G01X6261100Y299414D02*
G03X6261100Y81586I0J-108914D01*
G03X6261100Y299414I0J108914D01*
G01X6515100Y1344686D02*
G03X6515100Y1576314I0J115814D01*
G03X6515100Y1344686I0J-115814D01*
G01X6453886Y2182406D02*
G03X6489700Y2146592I35814J0D01*
G01X6642100Y2146592D01*
G03X6677914Y2182406I0J35814D01*
G01X6677914Y2334806D01*
G03X6642100Y2370620I-35814J0D01*
G01X6489700Y2370620D01*
G03X6453886Y2334806I0J-35814D01*
G01X6453886Y2182406D01*
G01X2993837Y1531334D02*
G01X3102993Y1531334D01*
G03X3101500Y1360895I67069J-85814D01*
G01X2995435Y1361182D01*
G03X2993837Y1531334I-79372J84338D01*
G01X4062939Y2761332D02*
G01X4140753Y2761332D01*
G03X4228846Y2580132I88093J-69186D01*
G03X4316939Y2761332I0J112014D01*
G01X4394753Y2761332D01*
G03X4376818Y2656019I88093J-69186D01*
G01X4285129Y2564330D01*
G01X4164988Y2564330D01*
G03X4129057Y2549447I0J-50814D01*
G01X4107844Y2528233D01*
G03X4092961Y2492302I35931J-35931D01*
G01X4092961Y1246918D01*
G03X4107844Y1210987I50814J0D01*
G01X4201791Y1117041D01*
G03X4222611Y1104456I35931J35931D01*
G01X3749038Y1104456D01*
G01X3733497Y1119998D01*
G03X3743577Y1150376I-40734J30378D01*
G01X3743577Y1200661D01*
G03X3728694Y1236592I-50814J0D01*
G01X3678208Y1287078D01*
G03X3642277Y1301961I-35931J-35931D01*
G01X3609294Y1301961D01*
G01X3581397Y1329858D01*
G03X3535241Y1359720I-46294J-20952D01*
G01X3491301Y1359839D01*
G03X3424357Y1554434I-67239J85681D01*
G03X3356360Y1360205I-295J-108914D01*
G01X3238166Y1360525D01*
G03X3157269Y1553680I-68103J84995D01*
G01X3216778Y1613190D01*
G03X3231661Y1649205I-35931J35931D01*
G01X3231309Y1862037D01*
G03X3427827Y1966105I70703J104068D01*
G01X3427827Y2046105D01*
G03X3352827Y2161200I-125814J0D01*
G01X3352827Y2189322D01*
G01X3398690Y2235186D01*
G01X3811775Y2235186D01*
G03X3889522Y2176183I99825J50814D01*
G03X3984032Y2200556I22078J109817D01*
G01X3984032Y1854175D01*
G03X3806486Y1778000I-72432J-76175D01*
G03X3984032Y1701825I105114J0D01*
G01X3984032Y1569352D01*
G01X3969721Y1555041D01*
G03X3850169Y1363628I-37659J-109520D01*
G03X4041583Y1483179I81893J81893D01*
G01X4070777Y1512373D01*
G03X4085660Y1548304I-35931J35931D01*
G01X4085660Y2632146D01*
G03X4080401Y2654658I-50814J0D01*
G03X4062939Y2761332I-105555J37488D01*
G01X3678062Y1336606D02*
G03X3678062Y1554434I0J108914D01*
G03X3678062Y1336606I0J-108914D01*
G54D11*
G01X4737100Y270246D02*
G01X4737100Y289254D01*
G01X4737100Y110754D02*
G01X4737100Y91746D01*
G01X4816846Y190500D02*
G01X4835854Y190500D01*
G01X4657354Y190500D02*
G01X4638346Y190500D01*
G01X1562354Y393700D02*
G01X1543346Y393700D01*
G01X1714246Y393700D02*
G01X1733254Y393700D01*
G01X1638300Y469646D02*
G01X1638300Y488654D01*
G01X1638300Y317754D02*
G01X1638300Y298746D01*
G01X516947Y666788D02*
G01X497939Y666788D01*
G01X666439Y666788D02*
G01X685447Y666788D01*
G01X591693Y841534D02*
G01X591693Y860542D01*
G01X591693Y492042D02*
G01X591693Y473034D01*
G01X3835654Y1778000D02*
G01X3816646Y1778000D01*
G01X3911600Y1853946D02*
G01X3911600Y1872954D01*
G01X3911600Y1702054D02*
G01X3911600Y1683046D01*
G01X2108454Y1803400D02*
G01X2089446Y1803400D01*
G01X2260346Y1803400D02*
G01X2279354Y1803400D01*
G01X2184400Y1879346D02*
G01X2184400Y1898354D01*
G01X4990846Y5156200D02*
G01X4990846Y5137192D01*
G01X4990846Y5308092D02*
G01X4990846Y5327100D01*
G01X4914900Y5232146D02*
G01X4895892Y5232146D01*
G01X5066792Y5232146D02*
G01X5085800Y5232146D01*
G01X3678062Y1365774D02*
G01X3678062Y1346766D01*
G01X3678062Y1525266D02*
G01X3678062Y1544274D01*
G01X3598316Y1445520D02*
G01X3579308Y1445520D01*
G01X3757808Y1445520D02*
G01X3776816Y1445520D01*
G01X3170062Y1525266D02*
G01X3170062Y1544274D01*
G01X3090316Y1445520D02*
G01X3071308Y1445520D01*
G01X3249808Y1445520D02*
G01X3268816Y1445520D01*
G01X5753100Y1380754D02*
G01X5753100Y1361746D01*
G01X5753100Y1540246D02*
G01X5753100Y1559254D01*
G01X5673354Y1460500D02*
G01X5654346Y1460500D01*
G01X5832846Y1460500D02*
G01X5851854Y1460500D01*
G01X2958241Y2007095D02*
G01X2939233Y2007095D01*
G01X3047987Y2136841D02*
G01X3047987Y2155849D01*
G01X3047987Y1877350D02*
G01X3047987Y1858341D01*
G01X1523999Y2079251D02*
G01X1523999Y2060243D01*
G01X1523999Y2238742D02*
G01X1523999Y2257750D01*
G01X1444253Y2158996D02*
G01X1425245Y2158996D01*
G01X1603745Y2158996D02*
G01X1622753Y2158996D01*
G01X520690Y2108449D02*
G01X520690Y2089441D01*
G01X520690Y2260341D02*
G01X520690Y2279349D01*
G01X444744Y2184395D02*
G01X425736Y2184395D01*
G01X596636Y2184395D02*
G01X615644Y2184395D01*
G01X2492262Y864582D02*
G01X2492262Y845574D01*
G01X2492262Y1024074D02*
G01X2492262Y1043082D01*
G01X2412516Y944328D02*
G01X2393508Y944328D01*
G01X2572008Y944328D02*
G01X2591016Y944328D01*
G01X5087761Y872465D02*
G01X5087761Y853457D01*
G01X5167507Y952211D02*
G01X5186515Y952211D01*
G01X3424062Y1525266D02*
G01X3424062Y1544274D01*
G01X3344316Y1445520D02*
G01X3325308Y1445520D01*
G01X3503808Y1445520D02*
G01X3522816Y1445520D01*
G01X4990846Y2616200D02*
G01X4990846Y2597192D01*
G01X4914900Y2692146D02*
G01X4895892Y2692146D01*
G01X5066792Y2692146D02*
G01X5085800Y2692146D01*
G01X3678062Y255266D02*
G01X3678062Y274274D01*
G01X3678062Y95774D02*
G01X3678062Y76766D01*
G01X3757808Y175520D02*
G01X3776816Y175520D01*
G01X2154062Y255266D02*
G01X2154062Y274274D01*
G01X2233808Y175520D02*
G01X2252816Y175520D01*
G01X2074316Y175520D02*
G01X2055308Y175520D01*
G01X6007100Y1380754D02*
G01X6007100Y1361746D01*
G01X6007100Y1540246D02*
G01X6007100Y1559254D01*
G01X5927354Y1460500D02*
G01X5908346Y1460500D01*
G01X6086846Y1460500D02*
G01X6105854Y1460500D01*
G01X6261100Y270246D02*
G01X6261100Y289254D01*
G01X6261100Y110754D02*
G01X6261100Y91746D01*
G01X6340846Y190500D02*
G01X6359854Y190500D01*
G01X6181354Y190500D02*
G01X6162346Y190500D01*
G01X6261100Y1380754D02*
G01X6261100Y1361746D01*
G01X6261100Y1540246D02*
G01X6261100Y1559254D01*
G01X6181354Y1460500D02*
G01X6162346Y1460500D01*
G01X6340846Y1460500D02*
G01X6359854Y1460500D01*
G04 Copper End*

G04 Pad Start*
G54D12*
G01X5087763Y698218D03*
G01X5087761Y952211D03*
G01X2492264Y690335D03*
G01X2492262Y944328D03*
G54D13*
G01X2184400Y2311400D03*
G01X2184400Y1803400D03*
G01X3911600Y2286000D03*
G01X3911600Y1778000D03*
G01X1638300Y901700D03*
G01X1638300Y393700D03*
G54D12*
G01X1524001Y1905004D03*
G01X1523999Y2158996D03*
G54D14*
G01X6565900Y2258606D03*
G01X6565900Y2008594D03*
G54D15*
G01X566683Y5027734D03*
G54D17*
G01X566683Y4773734D03*
G01X566683Y4519734D03*
G01X566683Y4265734D03*
G54D15*
G01X558800Y3581400D03*
G54D17*
G01X558800Y3327400D03*
G01X558800Y3073400D03*
G01X558800Y2819400D03*
G54D13*
G01X520690Y2184395D03*
G01X520690Y1879595D03*
G54D18*
G01X591693Y666788D03*
G54D19*
G01X911682Y196787D03*
G54D18*
G01X1211682Y666788D03*
G54D20*
G01X5321300Y2260105D03*
G01X5067300Y2261095D03*
G54D21*
G01X5575300Y2260105D03*
G54D22*
G01X5842000Y1790700D03*
G01X4826000Y1790700D03*
G01X4356100Y1371600D03*
G01X4356100Y2387600D03*
G01X254000Y1447800D03*
G01X1270000Y1447800D03*
G54D13*
G01X1688846Y5232146D03*
G01X5244846Y5232146D03*
G01X4990846Y5232146D03*
G01X4736846Y5232146D03*
G01X4482846Y5232146D03*
G01X4228846Y5232146D03*
G01X3974846Y5232146D03*
G01X3720846Y5232146D03*
G01X3466846Y5232146D03*
G01X3212846Y5232146D03*
G01X2958846Y5232146D03*
G01X2704846Y5232146D03*
G01X2450846Y5232146D03*
G01X2196846Y5232146D03*
G01X1942846Y5232146D03*
G54D14*
G01X1689100Y2692400D03*
G54D13*
G01X1942846Y2692146D03*
G01X2196846Y2692146D03*
G01X2450846Y2692146D03*
G01X2704846Y2692146D03*
G01X2958846Y2692146D03*
G01X3212846Y2692146D03*
G01X3466846Y2692146D03*
G01X3720846Y2692146D03*
G01X3974846Y2692146D03*
G01X4228846Y2692146D03*
G01X4482846Y2692146D03*
G01X4736846Y2692146D03*
G01X4990846Y2692146D03*
G01X5244846Y2692146D03*
G54D21*
G01X2793987Y2007095D03*
G54D20*
G01X3302013Y2006105D03*
G01X3047987Y2007095D03*
G54D12*
G01X2154062Y1445520D03*
G01X2408062Y1445520D03*
G01X2662062Y1445520D03*
G01X2916062Y1445520D03*
G01X3170062Y1445520D03*
G01X3424062Y1445520D03*
G01X3678062Y1445520D03*
G01X3932062Y1445520D03*
G01X3932062Y175520D03*
G01X3678062Y175520D03*
G01X3424062Y175520D03*
G01X3170062Y175520D03*
G01X2916062Y175520D03*
G01X2662062Y175520D03*
G01X2408062Y175520D03*
G01X2154062Y175520D03*
G01X4737100Y1460500D03*
G01X4991100Y1460500D03*
G01X5245100Y1460500D03*
G01X5499100Y1460500D03*
G01X5753100Y1460500D03*
G01X6007100Y1460500D03*
G01X6261100Y1460500D03*
G01X6515100Y1460500D03*
G01X6515100Y190500D03*
G01X6261100Y190500D03*
G01X6007100Y190500D03*
G01X5753100Y190500D03*
G01X5499100Y190500D03*
G01X5245100Y190500D03*
G01X4991100Y190500D03*
G01X4737100Y190500D03*
G04 Pad End*

G04 Via Start*
G54D23*
G01X5208791Y327406D03*
G01X2478796Y1829402D03*
G01X5244846Y1782153D03*
G01X2534220Y1415520D03*
G01X4387765Y398218D03*
G01X3632063Y475520D03*
G01X3632063Y1175518D03*
G01X1742225Y2007095D03*
G01X2542223Y2007095D03*
G04 Via End*

G04 Track Start*
G54D24*
G01X5244846Y1782153D02*
G01X5244846Y1460754D01*
G01X5245100Y1460500D02*
G01X5499100Y1460500D01*
G01X2916062Y1445520D02*
G01X2662062Y1445520D01*
G01X3911600Y2286000D02*
G01X3851600Y2346000D01*
G01X3851600Y2722146D01*
G01X3941600Y2812146D01*
G01X5124846Y2812146D01*
G01X5244846Y2692146D01*
G01X5882348Y2692146D01*
G01X3974846Y2692146D02*
G01X4034846Y2632146D01*
G01X4034846Y1548304D01*
G01X3932062Y1445520D01*
G01X6561635Y2009907D02*
G01X6423126Y2009907D01*
G01X6351773Y2081260D01*
G01X6351773Y2635296D01*
G01X6297209Y2689860D01*
G01X5885880Y2689860D01*
G01X4833028Y1780895D02*
G01X4833028Y1915207D01*
G01X4870804Y1952982D01*
G01X5512981Y1952982D01*
G01X5575940Y2015941D01*
G01X5575940Y2238394D01*
G01X4826000Y1790700D02*
G01X4414238Y1790700D01*
G01X4356100Y1732562D01*
G01X4356100Y1371600D01*
G01X4356100Y2387600D02*
G01X4654754Y2387600D01*
G01X4736846Y2469692D01*
G01X4736846Y2692146D01*
G01X2921186Y169156D02*
G01X2921186Y92111D01*
G01X2861375Y32300D01*
G01X214412Y32300D01*
G01X99592Y147120D01*
G01X99592Y4672443D01*
G01X196129Y4768980D01*
G01X543100Y4768980D01*
G01X548697Y4763383D01*
G01X566683Y4773734D02*
G01X552514Y4759566D01*
G01X3417685Y205182D02*
G01X3417685Y1111785D01*
G01X3370465Y1159004D01*
G01X339010Y2528354D02*
G01X282347Y2585016D01*
G01X282347Y4200953D01*
G01X346355Y4264961D01*
G01X581400Y4264961D01*
G01X552369Y2817264D02*
G01X1295281Y2817264D01*
G01X1345648Y2766897D01*
G01X2474705Y1736475D02*
G01X2474705Y1831612D01*
G01X2432505Y1694275D02*
G01X2474705Y1736475D01*
G01X1345648Y2766897D02*
G01X1345648Y1785442D01*
G01X1436815Y1694275D01*
G01X2432505Y1694275D01*
G01X2407724Y1445991D02*
G01X2407724Y1588697D01*
G01X2452494Y1633467D02*
G01X2558824Y1633467D01*
G01X2620384Y1695027D01*
G01X2620384Y2528878D01*
G01X2641597Y2550091D01*
G01X3434648Y2550091D01*
G01X3465428Y2580871D01*
G01X3465428Y2679979D01*
G01X2407724Y1588697D02*
G01X2452494Y1633467D01*
G01X3180847Y1649121D02*
G01X3113875Y1582148D01*
G01X2593280Y1582148D01*
G01X2534220Y1523089D01*
G01X2534220Y1415520D01*
G01X3722859Y2691171D02*
G01X3714464Y2682777D01*
G01X3714464Y2383374D01*
G01X3693251Y2362161D01*
G01X3228757Y2362161D01*
G01X3180016Y2313420D01*
G01X3180016Y2152147D01*
G01X3180847Y1649121D01*
G01X2916062Y1341056D02*
G01X2946618Y1310500D01*
G01X2916062Y1445520D02*
G01X2916062Y1341056D01*
G01X2403352Y464711D02*
G01X2403352Y170904D01*
G01X2456517Y517876D02*
G01X2403352Y464711D01*
G01X2999360Y517876D02*
G01X2456517Y517876D01*
G01X3055323Y461913D02*
G01X2999360Y517876D01*
G01X3055104Y115520D02*
G01X3055323Y461913D01*
G01X3115104Y55521D02*
G01X3055104Y115520D01*
G01X3475104Y55521D02*
G01X3115104Y55521D01*
G01X3535103Y115520D02*
G01X3475104Y55521D01*
G01X2946618Y1310500D02*
G01X3535103Y1308907D01*
G01X3911600Y2286000D02*
G01X3377642Y2286000D01*
G01X3302013Y2210370D01*
G01X3302013Y2006105D01*
G01X5208791Y327406D02*
G01X5461062Y327406D01*
G01X5499100Y289368D01*
G01X5499100Y190500D01*
G01X3370465Y1159004D02*
G01X762931Y1159004D01*
G01X688430Y1233505D01*
G01X688430Y2473790D01*
G01X633866Y2528354D01*
G01X339010Y2528354D01*
G01X520690Y1879595D02*
G01X520690Y1505327D01*
G01X463162Y1447800D01*
G01X254000Y1447800D01*
G54D25*
G01X3632063Y475520D02*
G01X3632063Y1175518D01*
G01X2192224Y2007095D02*
G01X2192224Y2303576D01*
G01X2184400Y2311400D01*
G01X1742225Y2007095D02*
G01X2192224Y2007095D01*
G01X2542223Y2007095D01*
G01X4387765Y398218D02*
G01X4012054Y398218D01*
G01X3932062Y318226D01*
G01X3932062Y424556D02*
G01X3881099Y475520D01*
G01X3632063Y475520D01*
G01X3932062Y175520D02*
G01X3932062Y318226D01*
G01X3932062Y424556D01*
G01X5087763Y698218D02*
G01X6404021Y698218D01*
G01X6515100Y587139D01*
G01X6515100Y190500D01*
G54D24*
G01X3530486Y1308908D02*
G01X3535103Y1304290D01*
G01X3535103Y1308907D02*
G01X3535103Y1304290D01*
G01X3535103Y115520D01*
G01X3535103Y1304290D02*
G01X3588246Y1251147D01*
G01X3642277Y1251147D01*
G01X3692763Y1200661D01*
G01X3692763Y1150376D01*
G01X3682263Y1139875D01*
G01X3682263Y1099370D01*
G01X3727990Y1053642D01*
G01X4975101Y206499D02*
G01X4991100Y190500D01*
G01X5026940Y1049409D02*
G01X5072576Y1095045D01*
G01X5236108Y1095045D01*
G01X5257321Y1116259D01*
G01X5257321Y1267788D01*
G01X4832984Y1053642D02*
G01X4975101Y1049409D01*
G01X5026940Y1049409D01*
G01X4975101Y1049409D02*
G01X4975101Y206499D01*
G01X3727990Y1053642D02*
G01X4832984Y1053642D01*
G01X5257321Y1267788D02*
G01X5248292Y1276818D01*
G01X5245100Y1460500D02*
G01X5245100Y1276818D01*
G01X4477314Y2684653D02*
G01X4306177Y2513516D01*
G01X4164988Y2513516D01*
G01X4143775Y2492302D01*
G01X4143775Y1246918D01*
G01X4237722Y1152972D02*
G01X4973613Y1152972D01*
G01X4994827Y1174185D01*
G01X4994827Y1439806D01*
G01X4986449Y1448184D01*
G01X4143775Y1246918D02*
G01X4237722Y1152972D01*
G04 Track End*

M02*

