G04 Layer: TopLayer*
G04 EasyEDA Pro v2.2.47.7, 2026-05-06 12:10:09*
G04 Gerber Generator version 0.3*
G04 Scale: 100 percent, Rotated: No, Reflected: No*
G04 Dimensions in millimeters*
G04 Leading zeros omitted, absolute positions, 4 integers and 5 decimals*
G04 Generated by one-click*
G04 Object Configs: Pad,Via,Track,Text,Image,Dimension,BoardOutline,BoardCutout,CopperFilled,SolidRegion,FPCStiffener,Line,PlaneZone,ComponentProperty,ComponentSilkscreen,TearDrop*
G04 Layer Configs: 1,2,3,4,5,6,7,8,9,10,11,13,14,56*
G04 Copper Areas: 77*
%FSLAX45Y45*%
%MOMM*%
%ADD10C,0.2032*%
%ADD11C,0.185*%
%ADD12C,1.6*%
%ADD13C,1.524*%
%ADD14R,1.524X1.524*%
%ADD15R,1.8X1.8*%
%ADD16C,1.8*%
%ADD17O,1.5X3.49999*%
%ADD18O,3.5020X1.5*%
%ADD19O,3.49999X1.5*%
%ADD20O,1.8X2.59999*%
%ADD21R,1.8X2.59999*%
%ADD22C,1.8796*%
%ADD23C,0.61*%
%ADD24C,0.3*%
%ADD25C,0.5*%
G75*


G04 Copper Start*
G36*
G01X6682486Y23114D02*
G01X5617871Y23114D01*
G01X5628384Y25804D01*
G01X5638087Y30665D01*
G01X5646537Y37475D01*
G01X5697802Y88740D01*
G01X5716766Y80533D01*
G01X5736886Y75827D01*
G01X5757523Y74771D01*
G01X5778019Y77399D01*
G01X5797721Y83627D01*
G01X5816003Y93258D01*
G01X5832283Y105984D01*
G01X5846042Y121401D01*
G01X5856842Y139017D01*
G01X5864340Y158273D01*
G01X5868296Y178554D01*
G01X5868586Y199216D01*
G01X5865199Y219600D01*
G01X5858243Y239058D01*
G01X5847940Y256970D01*
G01X5834618Y272766D01*
G01X5818702Y285943D01*
G01X5800696Y296082D01*
G01X5781176Y302859D01*
G01X5760762Y306060D01*
G01X5740104Y305582D01*
G01X5719859Y301441D01*
G01X5700673Y293768D01*
G01X5683156Y282808D01*
G01X5667865Y268909D01*
G01X5655288Y252514D01*
G01X5645825Y234145D01*
G01X5639776Y214386D01*
G01X5637335Y193867D01*
G01X5638579Y173241D01*
G01X5601233Y135895D01*
G01X5609243Y154703D01*
G01X5613821Y174627D01*
G01X5614825Y195045D01*
G01X5612223Y215322D01*
G01X5606096Y234825D01*
G01X5596636Y252947D01*
G01X5584136Y269124D01*
G01X5568988Y282850D01*
G01X5551661Y293700D01*
G01X5532697Y301334D01*
G01X5512686Y305514D01*
G01X5492252Y306111D01*
G01X5472031Y303106D01*
G01X5452654Y296593D01*
G01X5434724Y286773D01*
G01X5418799Y273955D01*
G01X5405377Y258535D01*
G01X5394874Y240997D01*
G01X5387619Y221884D01*
G01X5383838Y201794D01*
G01X5383648Y181352D01*
G01X5387055Y161195D01*
G01X5393953Y141951D01*
G01X5404127Y124220D01*
G01X5340073Y124220D01*
G01X5350222Y141897D01*
G01X5357115Y161079D01*
G01X5360538Y181172D01*
G01X5360385Y201555D01*
G01X5356662Y221595D01*
G01X5349482Y240671D01*
G01X5349604Y244191D01*
G01X5349604Y330658D01*
G01X5348877Y339228D01*
G01X5346714Y347552D01*
G01X5346714Y1130300D01*
G01X5344983Y1143452D01*
G01X5339906Y1155707D01*
G01X5331831Y1166231D01*
G01X5268331Y1229731D01*
G01X5266038Y1231886D01*
G01X5935252Y1231886D01*
G01X5956286Y1210852D01*
G01X5956286Y294571D01*
G01X5938554Y283850D01*
G01X5923016Y270141D01*
G01X5910169Y253882D01*
G01X5900426Y235595D01*
G01X5894097Y215863D01*
G01X5891386Y195320D01*
G01X5892380Y174623D01*
G01X5897045Y154433D01*
G01X5905234Y135399D01*
G01X5916683Y118128D01*
G01X5931028Y103174D01*
G01X5947807Y91015D01*
G01X5966484Y82042D01*
G01X5986462Y76540D01*
G01X6007100Y74686D01*
G01X6027738Y76540D01*
G01X6047716Y82042D01*
G01X6066393Y91015D01*
G01X6083172Y103174D01*
G01X6097517Y118128D01*
G01X6108966Y135399D01*
G01X6117155Y154433D01*
G01X6121820Y174623D01*
G01X6122814Y195320D01*
G01X6122124Y200549D01*
G01X6152651Y200549D01*
G01X6152651Y180451D01*
G01X6156344Y160694D01*
G01X6163604Y141953D01*
G01X6174185Y124865D01*
G01X6187725Y110012D01*
G01X6203764Y97899D01*
G01X6221756Y88941D01*
G01X6241087Y83440D01*
G01X6261100Y81586D01*
G01X6281113Y83440D01*
G01X6300444Y88941D01*
G01X6318436Y97899D01*
G01X6334475Y110012D01*
G01X6348015Y124865D01*
G01X6358596Y141953D01*
G01X6365856Y160694D01*
G01X6369549Y180451D01*
G01X6369549Y200549D01*
G01X6369430Y201186D01*
G01X6399780Y201186D01*
G01X6399780Y179814D01*
G01X6403707Y158806D01*
G01X6411428Y138877D01*
G01X6422678Y120706D01*
G01X6437077Y104912D01*
G01X6454132Y92033D01*
G01X6473263Y82507D01*
G01X6493819Y76658D01*
G01X6515100Y74686D01*
G01X6536381Y76658D01*
G01X6556937Y82507D01*
G01X6576068Y92033D01*
G01X6593123Y104912D01*
G01X6607522Y120706D01*
G01X6618772Y138877D01*
G01X6626493Y158806D01*
G01X6630420Y179814D01*
G01X6630420Y201186D01*
G01X6626493Y222194D01*
G01X6618772Y242123D01*
G01X6607522Y260294D01*
G01X6593123Y276088D01*
G01X6576068Y288967D01*
G01X6556937Y298493D01*
G01X6536381Y304342D01*
G01X6515100Y306314D01*
G01X6515100Y306314D01*
G01X6493819Y304342D01*
G01X6473263Y298493D01*
G01X6454132Y288967D01*
G01X6437077Y276088D01*
G01X6422678Y260294D01*
G01X6411428Y242123D01*
G01X6403707Y222194D01*
G01X6399780Y201186D01*
G01X6369430Y201186D01*
G01X6365856Y220306D01*
G01X6358596Y239047D01*
G01X6348015Y256135D01*
G01X6334475Y270988D01*
G01X6318436Y283101D01*
G01X6300444Y292059D01*
G01X6281113Y297560D01*
G01X6261100Y299414D01*
G01X6261100Y299414D01*
G01X6241087Y297560D01*
G01X6221756Y292059D01*
G01X6203764Y283101D01*
G01X6187725Y270988D01*
G01X6174185Y256135D01*
G01X6163604Y239047D01*
G01X6156344Y220306D01*
G01X6152651Y200549D01*
G01X6122124Y200549D01*
G01X6120103Y215863D01*
G01X6113774Y235595D01*
G01X6104031Y253882D01*
G01X6091184Y270141D01*
G01X6075646Y283850D01*
G01X6057914Y294571D01*
G01X6057914Y1231900D01*
G01X6056183Y1245052D01*
G01X6051106Y1257307D01*
G01X6043031Y1267831D01*
G01X5992231Y1318631D01*
G01X5981707Y1326706D01*
G01X5969452Y1331783D01*
G01X5956300Y1333514D01*
G01X4758148Y1333514D01*
G01X4746587Y1345075D01*
G01X4766976Y1348606D01*
G01X4786411Y1355708D01*
G01X4804272Y1366156D01*
G01X4819989Y1379616D01*
G01X4833060Y1395657D01*
G01X4843067Y1413769D01*
G01X4849692Y1433372D01*
G01X4852722Y1453841D01*
G01X4852062Y1474523D01*
G01X4847731Y1494758D01*
G01X4839869Y1513898D01*
G01X4828726Y1531334D01*
G01X4899474Y1531334D01*
G01X4887968Y1513195D01*
G01X4880011Y1493242D01*
G01X4875875Y1472164D01*
G01X4875703Y1450684D01*
G01X4879500Y1429542D01*
G01X4887137Y1409464D01*
G01X4898351Y1391143D01*
G01X4912755Y1375207D01*
G01X4929854Y1362206D01*
G01X4949060Y1352586D01*
G01X4969712Y1346678D01*
G01X4991100Y1344686D01*
G01X5012488Y1346678D01*
G01X5033140Y1352586D01*
G01X5052346Y1362206D01*
G01X5069445Y1375207D01*
G01X5083849Y1391143D01*
G01X5095063Y1409464D01*
G01X5102700Y1429542D01*
G01X5106497Y1450684D01*
G01X5106325Y1472164D01*
G01X5102189Y1493242D01*
G01X5094232Y1513195D01*
G01X5082726Y1531334D01*
G01X5153474Y1531334D01*
G01X5141968Y1513195D01*
G01X5134011Y1493242D01*
G01X5129875Y1472164D01*
G01X5129703Y1450684D01*
G01X5133500Y1429542D01*
G01X5141137Y1409464D01*
G01X5152351Y1391143D01*
G01X5166755Y1375207D01*
G01X5183854Y1362206D01*
G01X5203060Y1352586D01*
G01X5223712Y1346678D01*
G01X5245100Y1344686D01*
G01X5266488Y1346678D01*
G01X5287140Y1352586D01*
G01X5306346Y1362206D01*
G01X5323445Y1375207D01*
G01X5337849Y1391143D01*
G01X5349063Y1409464D01*
G01X5356700Y1429542D01*
G01X5360497Y1450684D01*
G01X5360325Y1472164D01*
G01X5356189Y1493242D01*
G01X5348232Y1513195D01*
G01X5336726Y1531334D01*
G01X5407474Y1531334D01*
G01X5395968Y1513195D01*
G01X5388011Y1493242D01*
G01X5383875Y1472164D01*
G01X5383703Y1450684D01*
G01X5387500Y1429542D01*
G01X5395137Y1409464D01*
G01X5406351Y1391143D01*
G01X5420755Y1375207D01*
G01X5437854Y1362206D01*
G01X5457060Y1352586D01*
G01X5477712Y1346678D01*
G01X5499100Y1344686D01*
G01X5520488Y1346678D01*
G01X5541140Y1352586D01*
G01X5560346Y1362206D01*
G01X5577445Y1375207D01*
G01X5591849Y1391143D01*
G01X5603063Y1409464D01*
G01X5610700Y1429542D01*
G01X5614497Y1450684D01*
G01X5614325Y1472164D01*
G01X5610189Y1493242D01*
G01X5602232Y1513195D01*
G01X5590726Y1531334D01*
G01X5670367Y1531334D01*
G01X5658483Y1514444D01*
G01X5650001Y1495613D01*
G01X5645227Y1475521D01*
G01X5644331Y1454888D01*
G01X5647346Y1434457D01*
G01X5654163Y1414962D01*
G01X5664538Y1397105D01*
G01X5678097Y1381527D01*
G01X5694352Y1368788D01*
G01X5712721Y1359348D01*
G01X5732541Y1353544D01*
G01X5753100Y1351586D01*
G01X5773659Y1353544D01*
G01X5793479Y1359348D01*
G01X5811848Y1368788D01*
G01X5828103Y1381527D01*
G01X5841662Y1397105D01*
G01X5852037Y1414962D01*
G01X5858854Y1434457D01*
G01X5861869Y1454888D01*
G01X5860973Y1475521D01*
G01X5856199Y1495613D01*
G01X5847717Y1514444D01*
G01X5835833Y1531334D01*
G01X5924367Y1531334D01*
G01X5912483Y1514444D01*
G01X5904001Y1495613D01*
G01X5899227Y1475521D01*
G01X5898331Y1454888D01*
G01X5901346Y1434457D01*
G01X5908163Y1414962D01*
G01X5918538Y1397105D01*
G01X5932097Y1381527D01*
G01X5948352Y1368788D01*
G01X5966721Y1359348D01*
G01X5986541Y1353544D01*
G01X6007100Y1351586D01*
G01X6027659Y1353544D01*
G01X6047479Y1359348D01*
G01X6065848Y1368788D01*
G01X6082103Y1381527D01*
G01X6095662Y1397105D01*
G01X6106037Y1414962D01*
G01X6112854Y1434457D01*
G01X6115869Y1454888D01*
G01X6114973Y1475521D01*
G01X6110199Y1495613D01*
G01X6101717Y1514444D01*
G01X6089833Y1531334D01*
G01X6178367Y1531334D01*
G01X6166483Y1514444D01*
G01X6158001Y1495613D01*
G01X6153227Y1475521D01*
G01X6152331Y1454888D01*
G01X6155346Y1434457D01*
G01X6162163Y1414962D01*
G01X6172538Y1397105D01*
G01X6186097Y1381527D01*
G01X6202352Y1368788D01*
G01X6220721Y1359348D01*
G01X6240541Y1353544D01*
G01X6261100Y1351586D01*
G01X6281659Y1353544D01*
G01X6301479Y1359348D01*
G01X6319848Y1368788D01*
G01X6336103Y1381527D01*
G01X6349662Y1397105D01*
G01X6360037Y1414962D01*
G01X6366854Y1434457D01*
G01X6369869Y1454888D01*
G01X6368973Y1475521D01*
G01X6364199Y1495613D01*
G01X6355717Y1514444D01*
G01X6343833Y1531334D01*
G01X6372404Y1531334D01*
G01X6405580Y1498159D01*
G01X6400622Y1478039D01*
G01X6399329Y1457358D01*
G01X6401742Y1436778D01*
G01X6407783Y1416957D01*
G01X6417261Y1398530D01*
G01X6429870Y1382086D01*
G01X6445207Y1368153D01*
G01X6462782Y1357176D01*
G01X6482032Y1349507D01*
G01X6502341Y1345391D01*
G01X6523058Y1344960D01*
G01X6543520Y1348227D01*
G01X6563072Y1355089D01*
G01X6581089Y1365324D01*
G01X6596993Y1378607D01*
G01X6610276Y1394511D01*
G01X6620511Y1412528D01*
G01X6627373Y1432080D01*
G01X6630640Y1452542D01*
G01X6630209Y1473259D01*
G01X6626093Y1493568D01*
G01X6618424Y1512818D01*
G01X6607447Y1530393D01*
G01X6593514Y1545730D01*
G01X6577070Y1558339D01*
G01X6558643Y1567817D01*
G01X6538822Y1573858D01*
G01X6518242Y1576271D01*
G01X6497561Y1574978D01*
G01X6477441Y1570020D01*
G01X6429383Y1618079D01*
G01X6418859Y1626154D01*
G01X6406603Y1631231D01*
G01X6393452Y1632962D01*
G01X4750800Y1632962D01*
G01X4673614Y1710148D01*
G01X4673614Y2463800D01*
G01X4671883Y2476952D01*
G01X4666806Y2489207D01*
G01X4658731Y2499731D01*
G01X4595231Y2563231D01*
G01X4584707Y2571306D01*
G01X4572452Y2576383D01*
G01X4559300Y2578114D01*
G01X4034248Y2578114D01*
G01X4025660Y2586702D01*
G01X4025660Y2592321D01*
G01X4042537Y2602899D01*
G01X4057273Y2616298D01*
G01X4069404Y2632096D01*
G01X4078544Y2649793D01*
G01X4084406Y2668828D01*
G01X4086804Y2688601D01*
G01X4086007Y2702481D01*
G01X4117310Y2702481D01*
G01X4117310Y2681811D01*
G01X4121108Y2661492D01*
G01X4128575Y2642217D01*
G01X4139457Y2624642D01*
G01X4153383Y2609367D01*
G01X4169878Y2596910D01*
G01X4188382Y2587696D01*
G01X4208263Y2582039D01*
G01X4228846Y2580132D01*
G01X4228846Y2580132D01*
G01X4249429Y2582039D01*
G01X4269310Y2587696D01*
G01X4287814Y2596910D01*
G01X4304309Y2609367D01*
G01X4318235Y2624642D01*
G01X4329117Y2642217D01*
G01X4336584Y2661492D01*
G01X4340382Y2681811D01*
G01X4340382Y2702481D01*
G01X4340382Y2702481D01*
G01X4371310Y2702481D01*
G01X4371310Y2681811D01*
G01X4375108Y2661492D01*
G01X4382575Y2642217D01*
G01X4393457Y2624642D01*
G01X4407383Y2609367D01*
G01X4423878Y2596910D01*
G01X4442382Y2587696D01*
G01X4462263Y2582039D01*
G01X4482846Y2580132D01*
G01X4482846Y2580132D01*
G01X4503429Y2582039D01*
G01X4523310Y2587696D01*
G01X4541814Y2596910D01*
G01X4558309Y2609367D01*
G01X4572235Y2624642D01*
G01X4583117Y2642217D01*
G01X4590584Y2661492D01*
G01X4594382Y2681811D01*
G01X4594382Y2692122D01*
G01X4624832Y2692122D01*
G01X4626785Y2671320D01*
G01X4632567Y2651242D01*
G01X4641978Y2632588D01*
G01X4654689Y2616006D01*
G01X4670259Y2602072D01*
G01X4688145Y2591273D01*
G01X4707726Y2583983D01*
G01X4728320Y2580457D01*
G01X4749210Y2580816D01*
G01X4769671Y2585049D01*
G01X4788989Y2593008D01*
G01X4806493Y2604417D01*
G01X4821574Y2618877D01*
G01X4833707Y2635887D01*
G01X4833849Y1966700D01*
G01X4835583Y1953552D01*
G01X4840659Y1941300D01*
G01X4848732Y1930780D01*
G01X4865023Y1914489D01*
G01X4865023Y1914489D01*
G01X4843872Y1919258D01*
G01X4822222Y1920439D01*
G01X4800677Y1918000D01*
G01X4779839Y1912008D01*
G01X4760289Y1902631D01*
G01X4742573Y1890130D01*
G01X4727185Y1874855D01*
G01X4714554Y1857231D01*
G01X4705034Y1837750D01*
G01X4698889Y1816956D01*
G01X4696292Y1795430D01*
G01X4697315Y1773772D01*
G01X4701928Y1752586D01*
G01X4710004Y1732463D01*
G01X4721317Y1713966D01*
G01X4735552Y1697611D01*
G01X4752311Y1683853D01*
G01X4771126Y1673077D01*
G01X4791472Y1665583D01*
G01X4812782Y1661581D01*
G01X4834461Y1661182D01*
G01X4855903Y1664398D01*
G01X4876512Y1671138D01*
G01X4895710Y1681215D01*
G01X4912963Y1694347D01*
G01X4927790Y1710168D01*
G01X4939775Y1728237D01*
G01X4948586Y1748049D01*
G01X4953976Y1769050D01*
G01X4955794Y1790657D01*
G01X4953990Y1812264D01*
G01X4948615Y1833269D01*
G01X4960951Y1828114D01*
G01X4974204Y1826356D01*
G01X5195412Y1826356D01*
G01X5186828Y1814270D01*
G01X5181143Y1800579D01*
G01X5178642Y1785968D01*
G01X5179448Y1771166D01*
G01X5183523Y1756913D01*
G01X5190662Y1743921D01*
G01X5200509Y1732840D01*
G01X5212571Y1724223D01*
G01X5226246Y1718501D01*
G01X5240850Y1715959D01*
G01X5255654Y1716726D01*
G01X5269918Y1720761D01*
G01X5282930Y1727865D01*
G01X5294038Y1737681D01*
G01X5302688Y1749720D01*
G01X5308447Y1763379D01*
G01X5311028Y1777977D01*
G01X5310303Y1792783D01*
G01X5306306Y1807058D01*
G01X5299238Y1820088D01*
G01X5299238Y1851986D01*
G01X5297506Y1865138D01*
G01X5292430Y1877393D01*
G01X5284355Y1887917D01*
G01X5259171Y1913100D01*
G01X5248090Y1921493D01*
G01X5767421Y1921493D01*
G01X5782738Y1906175D01*
G01X5764004Y1894445D01*
G01X5747531Y1879706D01*
G01X5733798Y1862386D01*
G01X5723204Y1842987D01*
G01X5716054Y1822071D01*
G01X5712557Y1800245D01*
G01X5712815Y1778143D01*
G01X5716819Y1756405D01*
G01X5724453Y1735661D01*
G01X5735497Y1716514D01*
G01X5749629Y1699518D01*
G01X5766441Y1685167D01*
G01X5785443Y1673876D01*
G01X5806086Y1665973D01*
G01X5827771Y1661688D01*
G01X5849868Y1661145D01*
G01X5871737Y1664358D01*
G01X5892744Y1671236D01*
G01X5912279Y1681579D01*
G01X5929775Y1695086D01*
G01X5944726Y1711367D01*
G01X5956698Y1729948D01*
G01X5965343Y1750291D01*
G01X5970411Y1771806D01*
G01X5971755Y1793869D01*
G01X5969336Y1815840D01*
G01X5963224Y1837082D01*
G01X5953596Y1856979D01*
G01X5940731Y1874954D01*
G01X5925003Y1890485D01*
G01X5906868Y1903122D01*
G01X5886851Y1912498D01*
G01X5886851Y1924738D01*
G01X5885843Y1932394D01*
G01X6453886Y1932394D01*
G01X6455639Y1921327D01*
G01X6460726Y1911343D01*
G01X6468649Y1903420D01*
G01X6478633Y1898333D01*
G01X6489700Y1896580D01*
G01X6642100Y1896580D01*
G01X6653167Y1898333D01*
G01X6663151Y1903420D01*
G01X6671074Y1911343D01*
G01X6676161Y1921327D01*
G01X6677914Y1932394D01*
G01X6677914Y2084794D01*
G01X6676161Y2095861D01*
G01X6671074Y2105845D01*
G01X6663151Y2113768D01*
G01X6653167Y2118855D01*
G01X6642100Y2120608D01*
G01X6489700Y2120608D01*
G01X6478633Y2118855D01*
G01X6468649Y2113768D01*
G01X6460726Y2105845D01*
G01X6455639Y2095861D01*
G01X6453886Y2084794D01*
G01X6453886Y1932394D01*
G01X6453886Y1932394D01*
G01X5885843Y1932394D01*
G01X5885120Y1937890D01*
G01X5880044Y1950145D01*
G01X5871968Y1960669D01*
G01X5824400Y2008238D01*
G01X5813876Y2016313D01*
G01X5801620Y2021389D01*
G01X5788469Y2023121D01*
G01X5106165Y2023121D01*
G01X5106165Y2101435D01*
G01X5126908Y2110298D01*
G01X5145736Y2122724D01*
G01X5162041Y2138311D01*
G01X5175302Y2156560D01*
G01X5185090Y2176884D01*
G01X5191092Y2198628D01*
G01X5193114Y2221095D01*
G01X5193114Y2300105D01*
G01X5195486Y2300105D01*
G01X5195486Y2220105D01*
G01X5197398Y2198257D01*
G01X5203074Y2177074D01*
G01X5212342Y2157198D01*
G01X5224921Y2139233D01*
G01X5240428Y2123726D01*
G01X5258393Y2111147D01*
G01X5278269Y2101878D01*
G01X5299453Y2096202D01*
G01X5321300Y2094291D01*
G01X5343147Y2096202D01*
G01X5364331Y2101878D01*
G01X5384207Y2111147D01*
G01X5402172Y2123726D01*
G01X5417679Y2139233D01*
G01X5430258Y2157198D01*
G01X5439526Y2177074D01*
G01X5445202Y2198257D01*
G01X5447114Y2220105D01*
G01X5447114Y2300105D01*
G01X5445230Y2321795D01*
G01X5439635Y2342836D01*
G01X5430496Y2362597D01*
G01X5418088Y2380487D01*
G01X5402780Y2395969D01*
G01X5385033Y2408581D01*
G01X5397822Y2421370D01*
G01X5467833Y2421370D01*
G01X5460245Y2415695D01*
G01X5454411Y2408230D01*
G01X5450739Y2399496D01*
G01X5449486Y2390104D01*
G01X5449486Y2390104D01*
G01X5449486Y2130105D01*
G01X5451239Y2119038D01*
G01X5456326Y2109054D01*
G01X5464249Y2101131D01*
G01X5474233Y2096044D01*
G01X5485300Y2094291D01*
G01X5665300Y2094291D01*
G01X5676367Y2096044D01*
G01X5686351Y2101131D01*
G01X5694274Y2109054D01*
G01X5699361Y2119038D01*
G01X5701114Y2130105D01*
G01X5701114Y2390104D01*
G01X5699861Y2399496D01*
G01X5696189Y2408230D01*
G01X5690355Y2415695D01*
G01X5682767Y2421370D01*
G01X6473981Y2421370D01*
G01X6515086Y2380264D01*
G01X6515086Y2370620D01*
G01X6489700Y2370620D01*
G01X6478633Y2368867D01*
G01X6468649Y2363780D01*
G01X6460726Y2355857D01*
G01X6455639Y2345873D01*
G01X6453886Y2334806D01*
G01X6453886Y2182406D01*
G01X6455639Y2171339D01*
G01X6460726Y2161355D01*
G01X6468649Y2153432D01*
G01X6478633Y2148345D01*
G01X6489700Y2146592D01*
G01X6642100Y2146592D01*
G01X6653167Y2148345D01*
G01X6663151Y2153432D01*
G01X6671074Y2161355D01*
G01X6676161Y2171339D01*
G01X6677914Y2182406D01*
G01X6677914Y2334806D01*
G01X6676161Y2345873D01*
G01X6671074Y2355857D01*
G01X6663151Y2363780D01*
G01X6653167Y2368867D01*
G01X6642100Y2370620D01*
G01X6616714Y2370620D01*
G01X6616714Y2401312D01*
G01X6614983Y2414464D01*
G01X6609906Y2426719D01*
G01X6601831Y2437243D01*
G01X6530960Y2508115D01*
G01X6520436Y2516190D01*
G01X6508180Y2521266D01*
G01X6495029Y2522998D01*
G01X5376774Y2522998D01*
G01X5363622Y2521266D01*
G01X5351367Y2516190D01*
G01X5340843Y2508115D01*
G01X5285369Y2452640D01*
G01X5277294Y2442117D01*
G01X5272217Y2429861D01*
G01X5270486Y2416710D01*
G01X5270486Y2415200D01*
G01X5252271Y2405291D01*
G01X5235931Y2392523D01*
G01X5221910Y2377245D01*
G01X5210589Y2359872D01*
G01X5202275Y2340875D01*
G01X5197195Y2320771D01*
G01X5195486Y2300105D01*
G01X5193114Y2300105D01*
G01X5193114Y2301095D01*
G01X5191202Y2322943D01*
G01X5185526Y2344126D01*
G01X5176258Y2364002D01*
G01X5163679Y2381967D01*
G01X5148172Y2397474D01*
G01X5130207Y2410053D01*
G01X5110331Y2419322D01*
G01X5089147Y2424998D01*
G01X5067300Y2426909D01*
G01X5045453Y2424998D01*
G01X5024269Y2419322D01*
G01X5004393Y2410053D01*
G01X4986428Y2397474D01*
G01X4970921Y2381967D01*
G01X4958342Y2364002D01*
G01X4949074Y2344126D01*
G01X4943398Y2322943D01*
G01X4941486Y2301095D01*
G01X4941486Y2221095D01*
G01X4943402Y2199221D01*
G01X4949093Y2178013D01*
G01X4958384Y2158117D01*
G01X4970992Y2140139D01*
G01X4986534Y2124628D01*
G01X5004537Y2112055D01*
G01X5004537Y1997490D01*
G01X5006268Y1984339D01*
G01X5011345Y1972083D01*
G01X5019420Y1961559D01*
G01X5044604Y1936376D01*
G01X5055685Y1927983D01*
G01X4995252Y1927983D01*
G01X4935473Y1987763D01*
G01X4935342Y2602881D01*
G01X4953532Y2593878D01*
G01X4973114Y2588538D01*
G01X4993357Y2587062D01*
G01X5013506Y2589503D01*
G01X5032810Y2595772D01*
G01X5050549Y2605633D01*
G01X5066063Y2618720D01*
G01X5078772Y2634545D01*
G01X5088204Y2652517D01*
G01X5094005Y2671966D01*
G01X5095960Y2692168D01*
G01X5094958Y2702481D01*
G01X5133310Y2702481D01*
G01X5133310Y2681811D01*
G01X5137108Y2661492D01*
G01X5144575Y2642217D01*
G01X5155457Y2624642D01*
G01X5169383Y2609367D01*
G01X5185878Y2596910D01*
G01X5204382Y2587696D01*
G01X5224263Y2582039D01*
G01X5244846Y2580132D01*
G01X5244846Y2580132D01*
G01X5265429Y2582039D01*
G01X5285310Y2587696D01*
G01X5303814Y2596910D01*
G01X5320309Y2609367D01*
G01X5334235Y2624642D01*
G01X5345117Y2642217D01*
G01X5352584Y2661492D01*
G01X5356382Y2681811D01*
G01X5356382Y2702481D01*
G01X5352584Y2722800D01*
G01X5345117Y2742075D01*
G01X5334235Y2759650D01*
G01X5320309Y2774925D01*
G01X5303814Y2787382D01*
G01X5285310Y2796596D01*
G01X5265429Y2802253D01*
G01X5244846Y2804160D01*
G01X5224263Y2802253D01*
G01X5204382Y2796596D01*
G01X5185878Y2787382D01*
G01X5169383Y2774925D01*
G01X5155457Y2759650D01*
G01X5144575Y2742075D01*
G01X5137108Y2722800D01*
G01X5133310Y2702481D01*
G01X5094958Y2702481D01*
G01X5093996Y2712369D01*
G01X5088187Y2731817D01*
G01X5078748Y2749785D01*
G01X5066032Y2765604D01*
G01X5050513Y2778684D01*
G01X5032769Y2788538D01*
G01X5013462Y2794798D01*
G01X4993312Y2797231D01*
G01X4973070Y2795746D01*
G01X4953491Y2790398D01*
G01X4935304Y2781388D01*
G01X4934865Y4849015D01*
G01X4974091Y4888241D01*
G01X5200680Y4888241D01*
G01X5213832Y4889973D01*
G01X5226087Y4895049D01*
G01X5236611Y4903124D01*
G01X5291175Y4957688D01*
G01X5299251Y4968212D01*
G01X5304327Y4980468D01*
G01X5306058Y4993619D01*
G01X5306058Y5138337D01*
G01X5321690Y5150647D01*
G01X5334897Y5165528D01*
G01X5345263Y5182512D01*
G01X5352461Y5201061D01*
G01X5356263Y5220592D01*
G01X5356549Y5240487D01*
G01X5353311Y5260118D01*
G01X5346651Y5278868D01*
G01X5336778Y5296143D01*
G01X5324005Y5311398D01*
G01X5308735Y5324153D01*
G01X5291448Y5334006D01*
G01X5272691Y5340644D01*
G01X5253056Y5343859D01*
G01X5233161Y5343549D01*
G01X5213635Y5339724D01*
G01X5195094Y5332505D01*
G01X5178123Y5322119D01*
G01X5163257Y5308895D01*
G01X5150965Y5293248D01*
G01X5141635Y5275674D01*
G01X5135562Y5256727D01*
G01X5132937Y5237004D01*
G01X5133843Y5217128D01*
G01X5138252Y5197725D01*
G01X5146023Y5179409D01*
G01X5156913Y5162756D01*
G01X5170577Y5148293D01*
G01X5186585Y5136476D01*
G01X5204431Y5127677D01*
G01X5204431Y5014667D01*
G01X5179632Y4989869D01*
G01X4953043Y4989869D01*
G01X4939892Y4988138D01*
G01X4927636Y4983062D01*
G01X4917112Y4974986D01*
G01X4848115Y4905989D01*
G01X4840038Y4895462D01*
G01X4834962Y4883203D01*
G01X4833232Y4870048D01*
G01X4833683Y2748446D01*
G01X4821543Y2765451D01*
G01X4806456Y2779905D01*
G01X4788947Y2791306D01*
G01X4769625Y2799257D01*
G01X4749163Y2803481D01*
G01X4728272Y2803831D01*
G01X4707680Y2800296D01*
G01X4688102Y2792998D01*
G01X4670220Y2782191D01*
G01X4654657Y2768251D01*
G01X4641953Y2751664D01*
G01X4632550Y2733005D01*
G01X4626776Y2712925D01*
G01X4624832Y2692122D01*
G01X4594382Y2692122D01*
G01X4594382Y2702481D01*
G01X4590584Y2722800D01*
G01X4583117Y2742075D01*
G01X4572235Y2759650D01*
G01X4558309Y2774925D01*
G01X4541814Y2787382D01*
G01X4523310Y2796596D01*
G01X4503429Y2802253D01*
G01X4482846Y2804160D01*
G01X4462263Y2802253D01*
G01X4442382Y2796596D01*
G01X4423878Y2787382D01*
G01X4407383Y2774925D01*
G01X4393457Y2759650D01*
G01X4382575Y2742075D01*
G01X4375108Y2722800D01*
G01X4371310Y2702481D01*
G01X4340382Y2702481D01*
G01X4336584Y2722800D01*
G01X4329117Y2742075D01*
G01X4318235Y2759650D01*
G01X4304309Y2774925D01*
G01X4287814Y2787382D01*
G01X4269310Y2796596D01*
G01X4249429Y2802253D01*
G01X4228846Y2804160D01*
G01X4208263Y2802253D01*
G01X4188382Y2796596D01*
G01X4169878Y2787382D01*
G01X4153383Y2774925D01*
G01X4139457Y2759650D01*
G01X4128575Y2742075D01*
G01X4121108Y2722800D01*
G01X4117310Y2702481D01*
G01X4086007Y2702481D01*
G01X4085662Y2708486D01*
G01X4081016Y2727854D01*
G01X4073013Y2746094D01*
G01X4061906Y2762627D01*
G01X4048047Y2776932D01*
G01X4031873Y2788557D01*
G01X4013896Y2797133D01*
G01X3994685Y2802389D01*
G01X3974846Y2804160D01*
G01X3955007Y2802389D01*
G01X3935796Y2797133D01*
G01X3917819Y2788557D01*
G01X3901645Y2776932D01*
G01X3887786Y2762627D01*
G01X3876679Y2746094D01*
G01X3868676Y2727854D01*
G01X3864030Y2708486D01*
G01X3862888Y2688601D01*
G01X3865286Y2668828D01*
G01X3871148Y2649793D01*
G01X3880288Y2632096D01*
G01X3892419Y2616298D01*
G01X3907155Y2602899D01*
G01X3924032Y2592321D01*
G01X3924032Y2565654D01*
G01X3925763Y2552502D01*
G01X3930840Y2540247D01*
G01X3938915Y2529723D01*
G01X3977269Y2491369D01*
G01X3987793Y2483294D01*
G01X4000048Y2478217D01*
G01X4013200Y2476486D01*
G01X4261518Y2476486D01*
G01X4248125Y2459627D01*
G01X4237703Y2440785D01*
G01X4230540Y2420480D01*
G01X4226832Y2399270D01*
G01X4226681Y2377738D01*
G01X4230092Y2356479D01*
G01X4236971Y2336075D01*
G01X4247128Y2317090D01*
G01X4260285Y2300045D01*
G01X4276078Y2285409D01*
G01X4294073Y2273586D01*
G01X4313775Y2264901D01*
G01X4334642Y2259592D01*
G01X4356100Y2257806D01*
G01X4377558Y2259592D01*
G01X4398425Y2264901D01*
G01X4418127Y2273586D01*
G01X4436122Y2285409D01*
G01X4451915Y2300045D01*
G01X4465072Y2317090D01*
G01X4475229Y2336075D01*
G01X4482108Y2356479D01*
G01X4485519Y2377738D01*
G01X4485368Y2399270D01*
G01X4481660Y2420480D01*
G01X4474497Y2440785D01*
G01X4464075Y2459627D01*
G01X4450682Y2476486D01*
G01X4538252Y2476486D01*
G01X4571986Y2442752D01*
G01X4571986Y2103738D01*
G01X4569831Y2106031D01*
G01X4460331Y2215531D01*
G01X4449807Y2223606D01*
G01X4437552Y2228682D01*
G01X4424400Y2230414D01*
G01X4008849Y2230414D01*
G01X4017597Y2249781D01*
G01X4022530Y2270452D01*
G01X4023470Y2291682D01*
G01X4020383Y2312708D01*
G01X4013381Y2332773D01*
G01X4002716Y2351154D01*
G01X3988771Y2367190D01*
G01X3972048Y2380304D01*
G01X3953149Y2390023D01*
G01X3932755Y2395998D01*
G01X3911600Y2398014D01*
G01X3890445Y2395998D01*
G01X3870051Y2390023D01*
G01X3851152Y2380304D01*
G01X3834429Y2367190D01*
G01X3820484Y2351154D01*
G01X3809819Y2332773D01*
G01X3802817Y2312708D01*
G01X3799730Y2291682D01*
G01X3800670Y2270452D01*
G01X3805603Y2249781D01*
G01X3814351Y2230414D01*
G01X3325275Y2230414D01*
G01X3263660Y2292029D01*
G01X3263660Y2592321D01*
G01X3280537Y2602899D01*
G01X3295273Y2616298D01*
G01X3307404Y2632096D01*
G01X3316544Y2649793D01*
G01X3322406Y2668828D01*
G01X3324804Y2688601D01*
G01X3324007Y2702481D01*
G01X3355310Y2702481D01*
G01X3355310Y2681811D01*
G01X3359108Y2661492D01*
G01X3366575Y2642217D01*
G01X3377457Y2624642D01*
G01X3391383Y2609367D01*
G01X3407878Y2596910D01*
G01X3426382Y2587696D01*
G01X3446263Y2582039D01*
G01X3466846Y2580132D01*
G01X3466846Y2580132D01*
G01X3487429Y2582039D01*
G01X3507310Y2587696D01*
G01X3525814Y2596910D01*
G01X3542309Y2609367D01*
G01X3556235Y2624642D01*
G01X3567117Y2642217D01*
G01X3574584Y2661492D01*
G01X3578382Y2681811D01*
G01X3578382Y2702481D01*
G01X3578382Y2702481D01*
G01X3609310Y2702481D01*
G01X3609310Y2681811D01*
G01X3613108Y2661492D01*
G01X3620575Y2642217D01*
G01X3631457Y2624642D01*
G01X3645383Y2609367D01*
G01X3661878Y2596910D01*
G01X3680382Y2587696D01*
G01X3700263Y2582039D01*
G01X3720846Y2580132D01*
G01X3720846Y2580132D01*
G01X3741429Y2582039D01*
G01X3761310Y2587696D01*
G01X3779814Y2596910D01*
G01X3796309Y2609367D01*
G01X3810235Y2624642D01*
G01X3821117Y2642217D01*
G01X3828584Y2661492D01*
G01X3832382Y2681811D01*
G01X3832382Y2702481D01*
G01X3828584Y2722800D01*
G01X3821117Y2742075D01*
G01X3810235Y2759650D01*
G01X3796309Y2774925D01*
G01X3779814Y2787382D01*
G01X3761310Y2796596D01*
G01X3741429Y2802253D01*
G01X3720846Y2804160D01*
G01X3700263Y2802253D01*
G01X3680382Y2796596D01*
G01X3661878Y2787382D01*
G01X3645383Y2774925D01*
G01X3631457Y2759650D01*
G01X3620575Y2742075D01*
G01X3613108Y2722800D01*
G01X3609310Y2702481D01*
G01X3578382Y2702481D01*
G01X3574584Y2722800D01*
G01X3567117Y2742075D01*
G01X3556235Y2759650D01*
G01X3542309Y2774925D01*
G01X3525814Y2787382D01*
G01X3507310Y2796596D01*
G01X3487429Y2802253D01*
G01X3466846Y2804160D01*
G01X3446263Y2802253D01*
G01X3426382Y2796596D01*
G01X3407878Y2787382D01*
G01X3391383Y2774925D01*
G01X3377457Y2759650D01*
G01X3366575Y2742075D01*
G01X3359108Y2722800D01*
G01X3355310Y2702481D01*
G01X3324007Y2702481D01*
G01X3323662Y2708486D01*
G01X3319016Y2727854D01*
G01X3311013Y2746094D01*
G01X3299906Y2762627D01*
G01X3286047Y2776932D01*
G01X3269873Y2788557D01*
G01X3251896Y2797133D01*
G01X3232685Y2802389D01*
G01X3212846Y2804160D01*
G01X3193007Y2802389D01*
G01X3173796Y2797133D01*
G01X3155819Y2788557D01*
G01X3139645Y2776932D01*
G01X3125786Y2762627D01*
G01X3114679Y2746094D01*
G01X3106676Y2727854D01*
G01X3102030Y2708486D01*
G01X3100888Y2688601D01*
G01X3103286Y2668828D01*
G01X3109148Y2649793D01*
G01X3118288Y2632096D01*
G01X3130419Y2616298D01*
G01X3145155Y2602899D01*
G01X3162032Y2592321D01*
G01X3162032Y2270981D01*
G01X3163763Y2257829D01*
G01X3168840Y2245574D01*
G01X3176915Y2235050D01*
G01X3250898Y2161067D01*
G01X3232748Y2151136D01*
G01X3216471Y2138364D01*
G01X3202507Y2123097D01*
G01X3191235Y2105748D01*
G01X3182958Y2086786D01*
G01X3177900Y2066724D01*
G01X3176199Y2046105D01*
G01X3176199Y1966105D01*
G01X3177617Y1947268D01*
G01X3181839Y1928857D01*
G01X3188770Y1911285D01*
G01X3198254Y1894948D01*
G01X3210077Y1880216D01*
G01X3129181Y1880216D01*
G01X3142265Y1894623D01*
G01X3152823Y1910971D01*
G01X3160574Y1928823D01*
G01X3165309Y1947699D01*
G01X3166901Y1967095D01*
G01X3166901Y2047095D01*
G01X3164876Y2068946D01*
G01X3158871Y2090052D01*
G01X3149090Y2109695D01*
G01X3135866Y2127207D01*
G01X3119649Y2141991D01*
G01X3100992Y2153543D01*
G01X3080530Y2161470D01*
G01X3058959Y2165502D01*
G01X3037015Y2165502D01*
G01X3015445Y2161470D01*
G01X2994983Y2153543D01*
G01X2976326Y2141991D01*
G01X2960109Y2127207D01*
G01X2946885Y2109695D01*
G01X2937103Y2090052D01*
G01X2931098Y2068946D01*
G01X2929073Y2047095D01*
G01X2929073Y1967095D01*
G01X2930666Y1947699D01*
G01X2935401Y1928823D01*
G01X2943151Y1910971D01*
G01X2953710Y1894623D01*
G01X2966793Y1880216D01*
G01X2919801Y1880216D01*
G01X2919801Y2137095D01*
G01X2918048Y2148162D01*
G01X2912961Y2158146D01*
G01X2905038Y2166069D01*
G01X2895054Y2171156D01*
G01X2883987Y2172909D01*
G01X2703987Y2172909D01*
G01X2692920Y2171156D01*
G01X2682937Y2166069D01*
G01X2675013Y2158146D01*
G01X2669926Y2148162D01*
G01X2668173Y2137095D01*
G01X2668173Y2067909D01*
G01X2568666Y2067909D01*
G01X2552954Y2072535D01*
G01X2536588Y2073169D01*
G01X2520565Y2069773D01*
G01X2505863Y2062553D01*
G01X2493380Y2051950D01*
G01X2483876Y2038610D01*
G01X2477932Y2023349D01*
G01X2475909Y2007095D01*
G01X2477932Y1990842D01*
G01X2483876Y1975580D01*
G01X2493380Y1962241D01*
G01X2505863Y1951638D01*
G01X2520565Y1944418D01*
G01X2536588Y1941021D01*
G01X2552954Y1941655D01*
G01X2568666Y1946281D01*
G01X2668173Y1946281D01*
G01X2668173Y1880216D01*
G01X2521405Y1880216D01*
G01X2508884Y1888497D01*
G01X2494822Y1893751D01*
G01X2479938Y1895706D01*
G01X2464995Y1894264D01*
G01X2450760Y1889498D01*
G01X2437962Y1881653D01*
G01X2427256Y1871130D01*
G01X2419192Y1858468D01*
G01X2414181Y1844317D01*
G01X2412482Y1829402D01*
G01X2414181Y1814487D01*
G01X2419192Y1800336D01*
G01X2427256Y1787674D01*
G01X2437962Y1777151D01*
G01X2450760Y1769306D01*
G01X2464995Y1764540D01*
G01X2479938Y1763098D01*
G01X2494822Y1765053D01*
G01X2508884Y1770307D01*
G01X2521405Y1778588D01*
G01X3798794Y1778588D01*
G01X3806492Y1779175D01*
G01X3808217Y1759003D01*
G01X3813776Y1739536D01*
G01X3822965Y1721496D01*
G01X3835441Y1705552D01*
G01X3850742Y1692295D01*
G01X3868302Y1682218D01*
G01X2390144Y1682218D01*
G01X2387614Y1684748D01*
G01X2387614Y2599686D01*
G01X2405279Y2589819D01*
G01X2424431Y2583291D01*
G01X2444445Y2580315D01*
G01X2464668Y2580988D01*
G01X2484440Y2585288D01*
G01X2503116Y2593075D01*
G01X2520086Y2604095D01*
G01X2534797Y2617988D01*
G01X2546768Y2634301D01*
G01X2555610Y2652501D01*
G01X2561032Y2671995D01*
G01X2562860Y2692146D01*
G01X2561923Y2702481D01*
G01X2593310Y2702481D01*
G01X2593310Y2681811D01*
G01X2597108Y2661492D01*
G01X2604575Y2642217D01*
G01X2615457Y2624642D01*
G01X2629383Y2609367D01*
G01X2645878Y2596910D01*
G01X2664382Y2587696D01*
G01X2684263Y2582039D01*
G01X2704846Y2580132D01*
G01X2704846Y2580132D01*
G01X2725429Y2582039D01*
G01X2745310Y2587696D01*
G01X2763814Y2596910D01*
G01X2780309Y2609367D01*
G01X2794235Y2624642D01*
G01X2805117Y2642217D01*
G01X2812584Y2661492D01*
G01X2816382Y2681811D01*
G01X2816382Y2702481D01*
G01X2816382Y2702481D01*
G01X2847310Y2702481D01*
G01X2847310Y2681811D01*
G01X2851108Y2661492D01*
G01X2858575Y2642217D01*
G01X2869457Y2624642D01*
G01X2883383Y2609367D01*
G01X2899878Y2596910D01*
G01X2918382Y2587696D01*
G01X2938263Y2582039D01*
G01X2958846Y2580132D01*
G01X2958846Y2580132D01*
G01X2979429Y2582039D01*
G01X2999310Y2587696D01*
G01X3017814Y2596910D01*
G01X3034309Y2609367D01*
G01X3048235Y2624642D01*
G01X3059117Y2642217D01*
G01X3066584Y2661492D01*
G01X3070382Y2681811D01*
G01X3070382Y2702481D01*
G01X3066584Y2722800D01*
G01X3059117Y2742075D01*
G01X3048235Y2759650D01*
G01X3034309Y2774925D01*
G01X3017814Y2787382D01*
G01X2999310Y2796596D01*
G01X2979429Y2802253D01*
G01X2958846Y2804160D01*
G01X2938263Y2802253D01*
G01X2918382Y2796596D01*
G01X2899878Y2787382D01*
G01X2883383Y2774925D01*
G01X2869457Y2759650D01*
G01X2858575Y2742075D01*
G01X2851108Y2722800D01*
G01X2847310Y2702481D01*
G01X2816382Y2702481D01*
G01X2812584Y2722800D01*
G01X2805117Y2742075D01*
G01X2794235Y2759650D01*
G01X2780309Y2774925D01*
G01X2763814Y2787382D01*
G01X2745310Y2796596D01*
G01X2725429Y2802253D01*
G01X2704846Y2804160D01*
G01X2684263Y2802253D01*
G01X2664382Y2796596D01*
G01X2645878Y2787382D01*
G01X2629383Y2774925D01*
G01X2615457Y2759650D01*
G01X2604575Y2742075D01*
G01X2597108Y2722800D01*
G01X2593310Y2702481D01*
G01X2561923Y2702481D01*
G01X2561032Y2712297D01*
G01X2555610Y2731791D01*
G01X2546768Y2749991D01*
G01X2534797Y2766304D01*
G01X2520086Y2780197D01*
G01X2503116Y2791217D01*
G01X2484440Y2799004D01*
G01X2464668Y2803304D01*
G01X2444445Y2803977D01*
G01X2424431Y2801001D01*
G01X2405279Y2794473D01*
G01X2387614Y2784606D01*
G01X2387614Y3492500D01*
G01X2385883Y3505652D01*
G01X2380806Y3517907D01*
G01X2372731Y3528431D01*
G01X2321931Y3579231D01*
G01X2311407Y3587306D01*
G01X2299152Y3592383D01*
G01X2286000Y3594114D01*
G01X684614Y3594114D01*
G01X684614Y3671400D01*
G01X682861Y3682467D01*
G01X677774Y3692451D01*
G01X669851Y3700374D01*
G01X659867Y3705461D01*
G01X648800Y3707214D01*
G01X468800Y3707214D01*
G01X467497Y3707190D01*
G01X467497Y4188331D01*
G01X482682Y4172070D01*
G01X500494Y4158739D01*
G01X520375Y4148753D01*
G01X541704Y4142425D01*
G01X563815Y4139953D01*
G01X586015Y4141415D01*
G01X607611Y4146764D01*
G01X627927Y4155833D01*
G01X646327Y4168339D01*
G01X662238Y4183890D01*
G01X675160Y4202001D01*
G01X684690Y4222105D01*
G01X690530Y4243573D01*
G01X692497Y4265734D01*
G01X690530Y4287896D01*
G01X684690Y4309364D01*
G01X675160Y4329468D01*
G01X662238Y4347578D01*
G01X646327Y4363130D01*
G01X627927Y4375636D01*
G01X607611Y4384705D01*
G01X586015Y4390054D01*
G01X563815Y4391516D01*
G01X541704Y4389044D01*
G01X520375Y4382716D01*
G01X500494Y4372730D01*
G01X482682Y4359399D01*
G01X467497Y4343138D01*
G01X467497Y4348687D01*
G01X521229Y4402418D01*
G01X541777Y4396410D01*
G01X563046Y4393973D01*
G01X584420Y4395177D01*
G01X605281Y4399988D01*
G01X625024Y4408265D01*
G01X643079Y4419770D01*
G01X658921Y4434170D01*
G01X672092Y4451047D01*
G01X682212Y4469912D01*
G01X688986Y4490221D01*
G01X692219Y4511383D01*
G01X691818Y4532788D01*
G01X687793Y4553814D01*
G01X680262Y4573854D01*
G01X669442Y4592327D01*
G01X655647Y4608698D01*
G01X639276Y4622493D01*
G01X620803Y4633313D01*
G01X600763Y4640845D01*
G01X579736Y4644869D01*
G01X558332Y4645271D01*
G01X537169Y4642038D01*
G01X516861Y4635263D01*
G01X497995Y4625144D01*
G01X481118Y4611972D01*
G01X466719Y4596130D01*
G01X455214Y4578076D01*
G01X446936Y4558333D01*
G01X442126Y4537472D01*
G01X440922Y4516097D01*
G01X443359Y4494828D01*
G01X449367Y4474280D01*
G01X380752Y4405666D01*
G01X372677Y4395142D01*
G01X367601Y4382886D01*
G01X365869Y4369735D01*
G01X365869Y2243879D01*
G01X364078Y2236265D01*
G01X363476Y2228467D01*
G01X363476Y1835523D01*
G01X364078Y1827725D01*
G01X365869Y1820111D01*
G01X365869Y1513616D01*
G01X353053Y1531674D01*
G01X337355Y1547291D01*
G01X319230Y1560012D01*
G01X299206Y1569467D01*
G01X277867Y1575381D01*
G01X255833Y1577581D01*
G01X233745Y1576004D01*
G01X212247Y1570695D01*
G01X191965Y1561809D01*
G01X173488Y1549605D01*
G01X157354Y1534438D01*
G01X144034Y1516748D01*
G01X133914Y1497052D01*
G01X133914Y4773734D01*
G01X440869Y4773734D01*
G01X442780Y4751887D01*
G01X448457Y4730704D01*
G01X457725Y4710828D01*
G01X470304Y4692863D01*
G01X485811Y4677355D01*
G01X503776Y4664776D01*
G01X523652Y4655508D01*
G01X544836Y4649832D01*
G01X566683Y4647921D01*
G01X588530Y4649832D01*
G01X609714Y4655508D01*
G01X629590Y4664776D01*
G01X647554Y4677355D01*
G01X663062Y4692863D01*
G01X675641Y4710828D01*
G01X684909Y4730704D01*
G01X690585Y4751887D01*
G01X692497Y4773734D01*
G01X690585Y4795582D01*
G01X684909Y4816765D01*
G01X675641Y4836641D01*
G01X663062Y4854606D01*
G01X647554Y4870113D01*
G01X629590Y4882692D01*
G01X609714Y4891961D01*
G01X588530Y4897637D01*
G01X566683Y4899548D01*
G01X566683Y4899548D01*
G01X544836Y4897637D01*
G01X523652Y4891961D01*
G01X503776Y4882692D01*
G01X485811Y4870113D01*
G01X470304Y4854606D01*
G01X457725Y4836641D01*
G01X448457Y4816765D01*
G01X442780Y4795582D01*
G01X440869Y4773734D01*
G01X133914Y4773734D01*
G01X133914Y4862652D01*
G01X248182Y4976920D01*
G01X440869Y4976920D01*
G01X440869Y4937735D01*
G01X442622Y4926667D01*
G01X447709Y4916684D01*
G01X455632Y4908760D01*
G01X465616Y4903673D01*
G01X476683Y4901921D01*
G01X656683Y4901921D01*
G01X667750Y4903673D01*
G01X677734Y4908760D01*
G01X685657Y4916684D01*
G01X690744Y4926667D01*
G01X692497Y4937735D01*
G01X692497Y5117734D01*
G01X690744Y5128801D01*
G01X685657Y5138785D01*
G01X677734Y5146708D01*
G01X667750Y5151795D01*
G01X656683Y5153548D01*
G01X476683Y5153548D01*
G01X465616Y5151795D01*
G01X455632Y5146708D01*
G01X447709Y5138785D01*
G01X442622Y5128801D01*
G01X440869Y5117734D01*
G01X440869Y5078548D01*
G01X227134Y5078548D01*
G01X213983Y5076817D01*
G01X201727Y5071741D01*
G01X191204Y5063665D01*
G01X73914Y4946376D01*
G01X73914Y5242481D01*
G01X1577310Y5242481D01*
G01X1577310Y5221811D01*
G01X1581108Y5201492D01*
G01X1588575Y5182217D01*
G01X1599457Y5164642D01*
G01X1613383Y5149367D01*
G01X1629878Y5136910D01*
G01X1648382Y5127696D01*
G01X1668263Y5122039D01*
G01X1688846Y5120132D01*
G01X1688846Y5120132D01*
G01X1709429Y5122039D01*
G01X1729310Y5127696D01*
G01X1747814Y5136910D01*
G01X1764309Y5149367D01*
G01X1778235Y5164642D01*
G01X1789117Y5182217D01*
G01X1796584Y5201492D01*
G01X1800382Y5221811D01*
G01X1800382Y5242481D01*
G01X1800382Y5242481D01*
G01X1831310Y5242481D01*
G01X1831310Y5221811D01*
G01X1835108Y5201492D01*
G01X1842575Y5182217D01*
G01X1853457Y5164642D01*
G01X1867383Y5149367D01*
G01X1883878Y5136910D01*
G01X1902382Y5127696D01*
G01X1922263Y5122039D01*
G01X1942846Y5120132D01*
G01X1942846Y5120132D01*
G01X1963429Y5122039D01*
G01X1983310Y5127696D01*
G01X2001814Y5136910D01*
G01X2018309Y5149367D01*
G01X2032235Y5164642D01*
G01X2043117Y5182217D01*
G01X2050584Y5201492D01*
G01X2054382Y5221811D01*
G01X2054382Y5242481D01*
G01X2054382Y5242481D01*
G01X2085310Y5242481D01*
G01X2085310Y5221811D01*
G01X2089108Y5201492D01*
G01X2096575Y5182217D01*
G01X2107457Y5164642D01*
G01X2121383Y5149367D01*
G01X2137878Y5136910D01*
G01X2156382Y5127696D01*
G01X2176263Y5122039D01*
G01X2196846Y5120132D01*
G01X2196846Y5120132D01*
G01X2217429Y5122039D01*
G01X2237310Y5127696D01*
G01X2255814Y5136910D01*
G01X2272309Y5149367D01*
G01X2286235Y5164642D01*
G01X2297117Y5182217D01*
G01X2304584Y5201492D01*
G01X2308382Y5221811D01*
G01X2308382Y5242481D01*
G01X2308382Y5242481D01*
G01X2339310Y5242481D01*
G01X2339310Y5221811D01*
G01X2343108Y5201492D01*
G01X2350575Y5182217D01*
G01X2361457Y5164642D01*
G01X2375383Y5149367D01*
G01X2391878Y5136910D01*
G01X2410382Y5127696D01*
G01X2430263Y5122039D01*
G01X2450846Y5120132D01*
G01X2450846Y5120132D01*
G01X2471429Y5122039D01*
G01X2491310Y5127696D01*
G01X2509814Y5136910D01*
G01X2526309Y5149367D01*
G01X2540235Y5164642D01*
G01X2551117Y5182217D01*
G01X2558584Y5201492D01*
G01X2562382Y5221811D01*
G01X2562382Y5242481D01*
G01X2562382Y5242481D01*
G01X2593310Y5242481D01*
G01X2593310Y5221811D01*
G01X2597108Y5201492D01*
G01X2604575Y5182217D01*
G01X2615457Y5164642D01*
G01X2629383Y5149367D01*
G01X2645878Y5136910D01*
G01X2664382Y5127696D01*
G01X2684263Y5122039D01*
G01X2704846Y5120132D01*
G01X2704846Y5120132D01*
G01X2725429Y5122039D01*
G01X2745310Y5127696D01*
G01X2763814Y5136910D01*
G01X2780309Y5149367D01*
G01X2794235Y5164642D01*
G01X2805117Y5182217D01*
G01X2812584Y5201492D01*
G01X2816382Y5221811D01*
G01X2816382Y5242481D01*
G01X2816382Y5242481D01*
G01X2847310Y5242481D01*
G01X2847310Y5221811D01*
G01X2851108Y5201492D01*
G01X2858575Y5182217D01*
G01X2869457Y5164642D01*
G01X2883383Y5149367D01*
G01X2899878Y5136910D01*
G01X2918382Y5127696D01*
G01X2938263Y5122039D01*
G01X2958846Y5120132D01*
G01X2958846Y5120132D01*
G01X2979429Y5122039D01*
G01X2999310Y5127696D01*
G01X3017814Y5136910D01*
G01X3034309Y5149367D01*
G01X3048235Y5164642D01*
G01X3059117Y5182217D01*
G01X3066584Y5201492D01*
G01X3070382Y5221811D01*
G01X3070382Y5242481D01*
G01X3070382Y5242481D01*
G01X3101310Y5242481D01*
G01X3101310Y5221811D01*
G01X3105108Y5201492D01*
G01X3112575Y5182217D01*
G01X3123457Y5164642D01*
G01X3137383Y5149367D01*
G01X3153878Y5136910D01*
G01X3172382Y5127696D01*
G01X3192263Y5122039D01*
G01X3212846Y5120132D01*
G01X3212846Y5120132D01*
G01X3233429Y5122039D01*
G01X3253310Y5127696D01*
G01X3271814Y5136910D01*
G01X3288309Y5149367D01*
G01X3302235Y5164642D01*
G01X3313117Y5182217D01*
G01X3320584Y5201492D01*
G01X3324382Y5221811D01*
G01X3324382Y5242481D01*
G01X3324382Y5242481D01*
G01X3355310Y5242481D01*
G01X3355310Y5221811D01*
G01X3359108Y5201492D01*
G01X3366575Y5182217D01*
G01X3377457Y5164642D01*
G01X3391383Y5149367D01*
G01X3407878Y5136910D01*
G01X3426382Y5127696D01*
G01X3446263Y5122039D01*
G01X3466846Y5120132D01*
G01X3466846Y5120132D01*
G01X3487429Y5122039D01*
G01X3507310Y5127696D01*
G01X3525814Y5136910D01*
G01X3542309Y5149367D01*
G01X3556235Y5164642D01*
G01X3567117Y5182217D01*
G01X3574584Y5201492D01*
G01X3578382Y5221811D01*
G01X3578382Y5242481D01*
G01X3578382Y5242481D01*
G01X3609310Y5242481D01*
G01X3609310Y5221811D01*
G01X3613108Y5201492D01*
G01X3620575Y5182217D01*
G01X3631457Y5164642D01*
G01X3645383Y5149367D01*
G01X3661878Y5136910D01*
G01X3680382Y5127696D01*
G01X3700263Y5122039D01*
G01X3720846Y5120132D01*
G01X3720846Y5120132D01*
G01X3741429Y5122039D01*
G01X3761310Y5127696D01*
G01X3779814Y5136910D01*
G01X3796309Y5149367D01*
G01X3810235Y5164642D01*
G01X3821117Y5182217D01*
G01X3828584Y5201492D01*
G01X3832382Y5221811D01*
G01X3832382Y5242481D01*
G01X3832382Y5242481D01*
G01X3863310Y5242481D01*
G01X3863310Y5221811D01*
G01X3867108Y5201492D01*
G01X3874575Y5182217D01*
G01X3885457Y5164642D01*
G01X3899383Y5149367D01*
G01X3915878Y5136910D01*
G01X3934382Y5127696D01*
G01X3954263Y5122039D01*
G01X3974846Y5120132D01*
G01X3974846Y5120132D01*
G01X3995429Y5122039D01*
G01X4015310Y5127696D01*
G01X4033814Y5136910D01*
G01X4050309Y5149367D01*
G01X4064235Y5164642D01*
G01X4075117Y5182217D01*
G01X4082584Y5201492D01*
G01X4086382Y5221811D01*
G01X4086382Y5242481D01*
G01X4086382Y5242481D01*
G01X4117310Y5242481D01*
G01X4117310Y5221811D01*
G01X4121108Y5201492D01*
G01X4128575Y5182217D01*
G01X4139457Y5164642D01*
G01X4153383Y5149367D01*
G01X4169878Y5136910D01*
G01X4188382Y5127696D01*
G01X4208263Y5122039D01*
G01X4228846Y5120132D01*
G01X4228846Y5120132D01*
G01X4249429Y5122039D01*
G01X4269310Y5127696D01*
G01X4287814Y5136910D01*
G01X4304309Y5149367D01*
G01X4318235Y5164642D01*
G01X4329117Y5182217D01*
G01X4336584Y5201492D01*
G01X4340382Y5221811D01*
G01X4340382Y5242481D01*
G01X4340382Y5242481D01*
G01X4371310Y5242481D01*
G01X4371310Y5221811D01*
G01X4375108Y5201492D01*
G01X4382575Y5182217D01*
G01X4393457Y5164642D01*
G01X4407383Y5149367D01*
G01X4423878Y5136910D01*
G01X4442382Y5127696D01*
G01X4462263Y5122039D01*
G01X4482846Y5120132D01*
G01X4482846Y5120132D01*
G01X4503429Y5122039D01*
G01X4523310Y5127696D01*
G01X4541814Y5136910D01*
G01X4558309Y5149367D01*
G01X4572235Y5164642D01*
G01X4583117Y5182217D01*
G01X4590584Y5201492D01*
G01X4594382Y5221811D01*
G01X4594382Y5242481D01*
G01X4594382Y5242481D01*
G01X4625310Y5242481D01*
G01X4625310Y5221811D01*
G01X4629108Y5201492D01*
G01X4636575Y5182217D01*
G01X4647457Y5164642D01*
G01X4661383Y5149367D01*
G01X4677878Y5136910D01*
G01X4696382Y5127696D01*
G01X4716263Y5122039D01*
G01X4736846Y5120132D01*
G01X4736846Y5120132D01*
G01X4757429Y5122039D01*
G01X4777310Y5127696D01*
G01X4795814Y5136910D01*
G01X4812309Y5149367D01*
G01X4826235Y5164642D01*
G01X4837117Y5182217D01*
G01X4844584Y5201492D01*
G01X4848382Y5221811D01*
G01X4848382Y5232146D01*
G01X4885732Y5232146D01*
G01X4887752Y5211639D01*
G01X4893733Y5191921D01*
G01X4903447Y5173748D01*
G01X4916519Y5157819D01*
G01X4932448Y5144747D01*
G01X4950621Y5135033D01*
G01X4970339Y5129052D01*
G01X4990846Y5127032D01*
G01X4990846Y5127032D01*
G01X5011353Y5129052D01*
G01X5031071Y5135033D01*
G01X5049244Y5144747D01*
G01X5065173Y5157819D01*
G01X5078245Y5173748D01*
G01X5087959Y5191921D01*
G01X5093940Y5211639D01*
G01X5095960Y5232146D01*
G01X5093940Y5252653D01*
G01X5087959Y5272371D01*
G01X5078245Y5290544D01*
G01X5065173Y5306473D01*
G01X5049244Y5319545D01*
G01X5031071Y5329259D01*
G01X5011353Y5335240D01*
G01X4990846Y5337260D01*
G01X4970339Y5335240D01*
G01X4950621Y5329259D01*
G01X4932448Y5319545D01*
G01X4916519Y5306473D01*
G01X4903447Y5290544D01*
G01X4893733Y5272371D01*
G01X4887752Y5252653D01*
G01X4885732Y5232146D01*
G01X4848382Y5232146D01*
G01X4848382Y5242481D01*
G01X4844584Y5262800D01*
G01X4837117Y5282075D01*
G01X4826235Y5299650D01*
G01X4812309Y5314925D01*
G01X4795814Y5327382D01*
G01X4777310Y5336596D01*
G01X4757429Y5342253D01*
G01X4736846Y5344160D01*
G01X4716263Y5342253D01*
G01X4696382Y5336596D01*
G01X4677878Y5327382D01*
G01X4661383Y5314925D01*
G01X4647457Y5299650D01*
G01X4636575Y5282075D01*
G01X4629108Y5262800D01*
G01X4625310Y5242481D01*
G01X4594382Y5242481D01*
G01X4590584Y5262800D01*
G01X4583117Y5282075D01*
G01X4572235Y5299650D01*
G01X4558309Y5314925D01*
G01X4541814Y5327382D01*
G01X4523310Y5336596D01*
G01X4503429Y5342253D01*
G01X4482846Y5344160D01*
G01X4462263Y5342253D01*
G01X4442382Y5336596D01*
G01X4423878Y5327382D01*
G01X4407383Y5314925D01*
G01X4393457Y5299650D01*
G01X4382575Y5282075D01*
G01X4375108Y5262800D01*
G01X4371310Y5242481D01*
G01X4340382Y5242481D01*
G01X4336584Y5262800D01*
G01X4329117Y5282075D01*
G01X4318235Y5299650D01*
G01X4304309Y5314925D01*
G01X4287814Y5327382D01*
G01X4269310Y5336596D01*
G01X4249429Y5342253D01*
G01X4228846Y5344160D01*
G01X4208263Y5342253D01*
G01X4188382Y5336596D01*
G01X4169878Y5327382D01*
G01X4153383Y5314925D01*
G01X4139457Y5299650D01*
G01X4128575Y5282075D01*
G01X4121108Y5262800D01*
G01X4117310Y5242481D01*
G01X4086382Y5242481D01*
G01X4082584Y5262800D01*
G01X4075117Y5282075D01*
G01X4064235Y5299650D01*
G01X4050309Y5314925D01*
G01X4033814Y5327382D01*
G01X4015310Y5336596D01*
G01X3995429Y5342253D01*
G01X3974846Y5344160D01*
G01X3954263Y5342253D01*
G01X3934382Y5336596D01*
G01X3915878Y5327382D01*
G01X3899383Y5314925D01*
G01X3885457Y5299650D01*
G01X3874575Y5282075D01*
G01X3867108Y5262800D01*
G01X3863310Y5242481D01*
G01X3832382Y5242481D01*
G01X3828584Y5262800D01*
G01X3821117Y5282075D01*
G01X3810235Y5299650D01*
G01X3796309Y5314925D01*
G01X3779814Y5327382D01*
G01X3761310Y5336596D01*
G01X3741429Y5342253D01*
G01X3720846Y5344160D01*
G01X3700263Y5342253D01*
G01X3680382Y5336596D01*
G01X3661878Y5327382D01*
G01X3645383Y5314925D01*
G01X3631457Y5299650D01*
G01X3620575Y5282075D01*
G01X3613108Y5262800D01*
G01X3609310Y5242481D01*
G01X3578382Y5242481D01*
G01X3574584Y5262800D01*
G01X3567117Y5282075D01*
G01X3556235Y5299650D01*
G01X3542309Y5314925D01*
G01X3525814Y5327382D01*
G01X3507310Y5336596D01*
G01X3487429Y5342253D01*
G01X3466846Y5344160D01*
G01X3446263Y5342253D01*
G01X3426382Y5336596D01*
G01X3407878Y5327382D01*
G01X3391383Y5314925D01*
G01X3377457Y5299650D01*
G01X3366575Y5282075D01*
G01X3359108Y5262800D01*
G01X3355310Y5242481D01*
G01X3324382Y5242481D01*
G01X3320584Y5262800D01*
G01X3313117Y5282075D01*
G01X3302235Y5299650D01*
G01X3288309Y5314925D01*
G01X3271814Y5327382D01*
G01X3253310Y5336596D01*
G01X3233429Y5342253D01*
G01X3212846Y5344160D01*
G01X3192263Y5342253D01*
G01X3172382Y5336596D01*
G01X3153878Y5327382D01*
G01X3137383Y5314925D01*
G01X3123457Y5299650D01*
G01X3112575Y5282075D01*
G01X3105108Y5262800D01*
G01X3101310Y5242481D01*
G01X3070382Y5242481D01*
G01X3066584Y5262800D01*
G01X3059117Y5282075D01*
G01X3048235Y5299650D01*
G01X3034309Y5314925D01*
G01X3017814Y5327382D01*
G01X2999310Y5336596D01*
G01X2979429Y5342253D01*
G01X2958846Y5344160D01*
G01X2938263Y5342253D01*
G01X2918382Y5336596D01*
G01X2899878Y5327382D01*
G01X2883383Y5314925D01*
G01X2869457Y5299650D01*
G01X2858575Y5282075D01*
G01X2851108Y5262800D01*
G01X2847310Y5242481D01*
G01X2816382Y5242481D01*
G01X2812584Y5262800D01*
G01X2805117Y5282075D01*
G01X2794235Y5299650D01*
G01X2780309Y5314925D01*
G01X2763814Y5327382D01*
G01X2745310Y5336596D01*
G01X2725429Y5342253D01*
G01X2704846Y5344160D01*
G01X2684263Y5342253D01*
G01X2664382Y5336596D01*
G01X2645878Y5327382D01*
G01X2629383Y5314925D01*
G01X2615457Y5299650D01*
G01X2604575Y5282075D01*
G01X2597108Y5262800D01*
G01X2593310Y5242481D01*
G01X2562382Y5242481D01*
G01X2558584Y5262800D01*
G01X2551117Y5282075D01*
G01X2540235Y5299650D01*
G01X2526309Y5314925D01*
G01X2509814Y5327382D01*
G01X2491310Y5336596D01*
G01X2471429Y5342253D01*
G01X2450846Y5344160D01*
G01X2430263Y5342253D01*
G01X2410382Y5336596D01*
G01X2391878Y5327382D01*
G01X2375383Y5314925D01*
G01X2361457Y5299650D01*
G01X2350575Y5282075D01*
G01X2343108Y5262800D01*
G01X2339310Y5242481D01*
G01X2308382Y5242481D01*
G01X2304584Y5262800D01*
G01X2297117Y5282075D01*
G01X2286235Y5299650D01*
G01X2272309Y5314925D01*
G01X2255814Y5327382D01*
G01X2237310Y5336596D01*
G01X2217429Y5342253D01*
G01X2196846Y5344160D01*
G01X2176263Y5342253D01*
G01X2156382Y5336596D01*
G01X2137878Y5327382D01*
G01X2121383Y5314925D01*
G01X2107457Y5299650D01*
G01X2096575Y5282075D01*
G01X2089108Y5262800D01*
G01X2085310Y5242481D01*
G01X2054382Y5242481D01*
G01X2050584Y5262800D01*
G01X2043117Y5282075D01*
G01X2032235Y5299650D01*
G01X2018309Y5314925D01*
G01X2001814Y5327382D01*
G01X1983310Y5336596D01*
G01X1963429Y5342253D01*
G01X1942846Y5344160D01*
G01X1922263Y5342253D01*
G01X1902382Y5336596D01*
G01X1883878Y5327382D01*
G01X1867383Y5314925D01*
G01X1853457Y5299650D01*
G01X1842575Y5282075D01*
G01X1835108Y5262800D01*
G01X1831310Y5242481D01*
G01X1800382Y5242481D01*
G01X1796584Y5262800D01*
G01X1789117Y5282075D01*
G01X1778235Y5299650D01*
G01X1764309Y5314925D01*
G01X1747814Y5327382D01*
G01X1729310Y5336596D01*
G01X1709429Y5342253D01*
G01X1688846Y5344160D01*
G01X1668263Y5342253D01*
G01X1648382Y5336596D01*
G01X1629878Y5327382D01*
G01X1613383Y5314925D01*
G01X1599457Y5299650D01*
G01X1588575Y5282075D01*
G01X1581108Y5262800D01*
G01X1577310Y5242481D01*
G01X73914Y5242481D01*
G01X73914Y5399786D01*
G01X6682486Y5399786D01*
G01X6682486Y4124839D01*
G01X6684130Y4114113D01*
G01X6688910Y4104373D01*
G01X6696388Y4096510D01*
G01X6974586Y3881325D01*
G01X6974586Y545203D01*
G01X6695540Y315528D01*
G01X6688503Y307745D01*
G01X6684023Y298256D01*
G01X6682486Y287876D01*
G01X6682486Y23114D01*
G37*
G36*
G01X4145163Y37475D02*
G01X4153613Y30665D01*
G01X4163316Y25804D01*
G01X4173829Y23114D01*
G01X2698476Y23114D01*
G01X2702931Y27569D01*
G01X2711006Y38093D01*
G01X2716083Y50348D01*
G01X2717814Y63500D01*
G01X2717814Y74009D01*
G01X2735245Y85759D01*
G01X2750265Y100466D01*
G01X2762379Y117646D01*
G01X2771188Y136732D01*
G01X2776401Y157097D01*
G01X2777848Y178068D01*
G01X2775480Y198956D01*
G01X2769376Y219071D01*
G01X2759736Y237752D01*
G01X2746878Y254382D01*
G01X2731226Y268414D01*
G01X2713295Y279386D01*
G01X2864829Y279386D01*
G01X2847165Y268612D01*
G01X2831700Y254867D01*
G01X2818928Y238590D01*
G01X2809255Y220300D01*
G01X2802992Y200580D01*
G01X2800337Y180061D01*
G01X2801376Y159397D01*
G01X2806075Y139247D01*
G01X2814285Y120255D01*
G01X2825743Y103027D01*
G01X2840084Y88113D01*
G01X2856849Y75988D01*
G01X2875505Y67040D01*
G01X2895455Y61555D01*
G01X2916062Y59706D01*
G01X2936670Y61555D01*
G01X2956620Y67040D01*
G01X2975275Y75988D01*
G01X2992041Y88113D01*
G01X3006382Y103027D01*
G01X3017840Y120255D01*
G01X3026049Y139247D01*
G01X3030748Y159397D01*
G01X3031787Y180061D01*
G01X3029132Y200580D01*
G01X3022869Y220300D01*
G01X3013197Y238590D01*
G01X3000424Y254867D01*
G01X2984959Y268612D01*
G01X2967295Y279386D01*
G01X3118829Y279386D01*
G01X3100410Y268049D01*
G01X3084421Y253484D01*
G01X3071418Y236201D01*
G01X3061855Y216801D01*
G01X3056066Y195962D01*
G01X3054254Y174409D01*
G01X3056480Y152895D01*
G01X3062667Y132171D01*
G01X3072600Y112958D01*
G01X3085933Y95927D01*
G01X3102199Y81672D01*
G01X3120832Y70691D01*
G01X3141182Y63365D01*
G01X3162540Y59951D01*
G01X3184160Y60568D01*
G01X3205288Y65193D01*
G01X3225187Y73667D01*
G01X3243164Y85693D01*
G01X3258592Y100852D01*
G01X3270932Y118615D01*
G01X3279753Y138362D01*
G01X3284750Y159406D01*
G01X3285746Y181012D01*
G01X3285009Y186206D01*
G01X3308742Y186206D01*
G01X3308742Y164834D01*
G01X3312669Y143826D01*
G01X3320390Y123898D01*
G01X3331641Y105727D01*
G01X3346039Y89933D01*
G01X3363094Y77053D01*
G01X3382225Y67527D01*
G01X3402781Y61678D01*
G01X3424062Y59706D01*
G01X3445343Y61678D01*
G01X3465899Y67527D01*
G01X3485030Y77053D01*
G01X3502086Y89933D01*
G01X3516484Y105727D01*
G01X3527735Y123898D01*
G01X3535455Y143826D01*
G01X3539382Y164834D01*
G01X3539382Y185570D01*
G01X3569613Y185570D01*
G01X3569613Y165471D01*
G01X3573306Y145715D01*
G01X3580566Y126973D01*
G01X3591147Y109885D01*
G01X3604687Y95032D01*
G01X3620726Y82920D01*
G01X3638718Y73961D01*
G01X3658049Y68461D01*
G01X3678062Y66606D01*
G01X3698075Y68461D01*
G01X3717407Y73961D01*
G01X3735398Y82920D01*
G01X3751437Y95032D01*
G01X3764978Y109885D01*
G01X3775558Y126973D01*
G01X3782819Y145715D01*
G01X3786512Y165471D01*
G01X3786512Y185570D01*
G01X3782819Y205326D01*
G01X3775558Y224068D01*
G01X3764978Y241156D01*
G01X3751437Y256009D01*
G01X3735398Y268121D01*
G01X3717407Y277080D01*
G01X3698075Y282580D01*
G01X3678062Y284434D01*
G01X3678062Y284434D01*
G01X3658049Y282580D01*
G01X3638718Y277080D01*
G01X3620726Y268121D01*
G01X3604687Y256009D01*
G01X3591147Y241156D01*
G01X3580566Y224068D01*
G01X3573306Y205326D01*
G01X3569613Y185570D01*
G01X3539382Y185570D01*
G01X3539382Y186206D01*
G01X3535455Y207214D01*
G01X3527735Y227143D01*
G01X3516484Y245314D01*
G01X3502086Y261108D01*
G01X3485030Y273987D01*
G01X3465899Y283514D01*
G01X3445343Y289362D01*
G01X3424062Y291334D01*
G01X3424062Y291334D01*
G01X3402781Y289362D01*
G01X3382225Y283514D01*
G01X3363094Y273987D01*
G01X3346039Y261108D01*
G01X3331641Y245314D01*
G01X3320390Y227143D01*
G01X3312669Y207214D01*
G01X3308742Y186206D01*
G01X3285009Y186206D01*
G01X3282708Y202426D01*
G01X3275741Y222901D01*
G01X3265088Y241725D01*
G01X3251121Y258239D01*
G01X3234327Y271868D01*
G01X3234327Y308987D01*
G01X3232596Y322139D01*
G01X3227519Y334394D01*
G01X3219444Y344918D01*
G01X3198231Y366131D01*
G01X3187707Y374206D01*
G01X3175452Y379283D01*
G01X3162300Y381014D01*
G01X1955800Y381014D01*
G01X1942648Y379283D01*
G01X1930393Y374206D01*
G01X1919869Y366131D01*
G01X1843151Y289413D01*
G01X1835076Y278889D01*
G01X1830000Y266634D01*
G01X1828268Y253482D01*
G01X1828268Y134830D01*
G01X1820452Y127014D01*
G01X1097772Y127014D01*
G01X1109277Y144300D01*
G01X1117356Y163428D01*
G01X1121724Y183728D01*
G01X1122228Y204486D01*
G01X1118851Y224974D01*
G01X1111711Y244473D01*
G01X1101058Y262297D01*
G01X1087268Y277820D01*
G01X1070823Y290499D01*
G01X1052302Y299887D01*
G01X1032355Y305655D01*
G01X1011682Y307600D01*
G01X811682Y307600D01*
G01X791009Y305655D01*
G01X771062Y299887D01*
G01X752541Y290499D01*
G01X736097Y277820D01*
G01X722306Y262297D01*
G01X711654Y244473D01*
G01X704514Y224974D01*
G01X701136Y204486D01*
G01X701641Y183728D01*
G01X706009Y163428D01*
G01X714087Y144300D01*
G01X725592Y127014D01*
G01X516348Y127014D01*
G01X467497Y175865D01*
G01X467497Y393700D01*
G01X1533186Y393700D01*
G01X1535206Y373193D01*
G01X1541187Y353475D01*
G01X1550901Y335302D01*
G01X1563973Y319373D01*
G01X1579902Y306301D01*
G01X1598075Y296587D01*
G01X1617793Y290606D01*
G01X1638300Y288586D01*
G01X1658807Y290606D01*
G01X1678525Y296587D01*
G01X1696698Y306301D01*
G01X1712627Y319373D01*
G01X1725699Y335302D01*
G01X1735413Y353475D01*
G01X1741394Y373193D01*
G01X1743414Y393700D01*
G01X1741394Y414207D01*
G01X1735413Y433925D01*
G01X1725699Y452098D01*
G01X1712627Y468027D01*
G01X1696698Y481099D01*
G01X1678525Y490813D01*
G01X1658807Y496794D01*
G01X1638300Y498814D01*
G01X1617793Y496794D01*
G01X1598075Y490813D01*
G01X1579902Y481099D01*
G01X1563973Y468027D01*
G01X1550901Y452098D01*
G01X1541187Y433925D01*
G01X1535206Y414207D01*
G01X1533186Y393700D01*
G01X1533186Y393700D01*
G01X467497Y393700D01*
G01X467497Y566788D01*
G01X487779Y566788D01*
G01X489776Y546516D01*
G01X495689Y527022D01*
G01X505292Y509057D01*
G01X518215Y493310D01*
G01X533962Y480387D01*
G01X551927Y470784D01*
G01X571420Y464871D01*
G01X591693Y462874D01*
G01X611966Y464871D01*
G01X631459Y470784D01*
G01X649424Y480387D01*
G01X665171Y493310D01*
G01X678094Y509057D01*
G01X687697Y527022D01*
G01X693610Y546516D01*
G01X695607Y566788D01*
G01X695607Y766788D01*
G01X1100868Y766788D01*
G01X1100868Y566788D01*
G01X1102755Y546426D01*
G01X1108351Y526758D01*
G01X1117466Y508452D01*
G01X1129789Y492133D01*
G01X1144901Y478357D01*
G01X1162288Y467592D01*
G01X1181356Y460205D01*
G01X1201457Y456447D01*
G01X1221906Y456447D01*
G01X1242007Y460205D01*
G01X1261076Y467592D01*
G01X1278462Y478357D01*
G01X1293574Y492133D01*
G01X1305897Y508452D01*
G01X1315012Y526758D01*
G01X1320609Y546426D01*
G01X1322495Y566788D01*
G01X1322495Y766788D01*
G01X1321551Y781223D01*
G01X1318735Y795412D01*
G01X1314094Y809114D01*
G01X1345866Y840886D01*
G01X1544232Y840886D01*
G01X1553712Y828270D01*
G01X1564870Y817112D01*
G01X1577486Y807632D01*
G01X1577486Y771586D01*
G01X1578655Y759721D01*
G01X1582115Y748313D01*
G01X1587735Y737799D01*
G01X1595298Y728584D01*
G01X1676549Y647333D01*
G01X1685764Y639770D01*
G01X1696278Y634150D01*
G01X1707687Y630689D01*
G01X1719551Y629521D01*
G01X2393702Y629521D01*
G01X2404275Y615030D01*
G01X2416960Y602346D01*
G01X2431450Y591773D01*
G01X2431450Y547629D01*
G01X2432619Y535765D01*
G01X2436079Y524356D01*
G01X2441699Y513842D01*
G01X2449262Y504627D01*
G01X2521371Y432518D01*
G01X2530587Y424955D01*
G01X2541101Y419335D01*
G01X2552509Y415874D01*
G01X2564373Y414706D01*
G01X3605620Y414706D01*
G01X3621332Y410080D01*
G01X3637698Y409446D01*
G01X3653721Y412842D01*
G01X3668422Y420062D01*
G01X3680906Y430665D01*
G01X3690410Y444005D01*
G01X3696354Y459266D01*
G01X3698377Y475520D01*
G01X3698377Y475520D01*
G01X3696354Y491773D01*
G01X3690410Y507035D01*
G01X3680906Y520374D01*
G01X3668422Y530977D01*
G01X3653721Y538197D01*
G01X3637698Y541594D01*
G01X3621332Y540960D01*
G01X3605620Y536334D01*
G01X2589563Y536334D01*
G01X2553078Y572819D01*
G01X2553078Y591773D01*
G01X2569770Y604279D01*
G01X2583948Y619576D01*
G01X2595153Y637168D01*
G01X2603021Y656484D01*
G01X2607296Y676898D01*
G01X2607841Y697748D01*
G01X2604637Y718358D01*
G01X2597788Y738058D01*
G01X2587517Y756211D01*
G01X2574157Y772228D01*
G01X2558141Y785588D01*
G01X2539988Y795859D01*
G01X2520287Y802707D01*
G01X2499678Y805911D01*
G01X2478828Y805367D01*
G01X2458413Y801091D01*
G01X2439097Y793224D01*
G01X2421505Y782019D01*
G01X2406208Y767841D01*
G01X2393702Y751149D01*
G01X1744741Y751149D01*
G01X1699114Y796776D01*
G01X1699114Y807632D01*
G01X1714828Y819904D01*
G01X1728117Y834767D01*
G01X1738560Y851750D01*
G01X1745828Y870316D01*
G01X1749688Y889877D01*
G01X1750020Y909812D01*
G01X1746812Y929490D01*
G01X1740166Y948287D01*
G01X1730293Y965609D01*
G01X1717506Y980906D01*
G01X1702209Y993693D01*
G01X1684887Y1003566D01*
G01X1666090Y1010212D01*
G01X1646412Y1013420D01*
G01X1626477Y1013088D01*
G01X1606916Y1009228D01*
G01X1588350Y1001960D01*
G01X1571367Y991517D01*
G01X1556504Y978228D01*
G01X1544232Y962514D01*
G01X1320676Y962514D01*
G01X1308812Y961345D01*
G01X1297404Y957885D01*
G01X1286890Y952265D01*
G01X1277674Y944702D01*
G01X1210569Y877596D01*
G01X1191465Y875742D01*
G01X1172969Y870620D01*
G01X1155633Y862382D01*
G01X1139979Y851277D01*
G01X1126476Y837638D01*
G01X1115529Y821873D01*
G01X1107466Y804456D01*
G01X1102530Y785909D01*
G01X1100868Y766788D01*
G01X695607Y766788D01*
G01X693610Y787061D01*
G01X687697Y806554D01*
G01X678094Y824519D01*
G01X665171Y840266D01*
G01X649424Y853189D01*
G01X631459Y862792D01*
G01X611966Y868705D01*
G01X591693Y870702D01*
G01X571420Y868705D01*
G01X551927Y862792D01*
G01X533962Y853189D01*
G01X518215Y840266D01*
G01X505292Y824519D01*
G01X495689Y806554D01*
G01X489776Y787061D01*
G01X487779Y766788D01*
G01X487779Y766788D01*
G01X487779Y566788D01*
G01X467497Y566788D01*
G01X467497Y1781017D01*
G01X486954Y1772782D01*
G01X507610Y1768347D01*
G01X528732Y1767870D01*
G01X549568Y1771368D01*
G01X569377Y1778715D01*
G01X587453Y1789652D01*
G01X603155Y1803788D01*
G01X615922Y1820621D01*
G01X625302Y1839552D01*
G01X630960Y1859908D01*
G01X632695Y1880964D01*
G01X630446Y1901971D01*
G01X624292Y1922182D01*
G01X614453Y1940879D01*
G01X601277Y1957395D01*
G01X585235Y1971143D01*
G01X566897Y1981634D01*
G01X546914Y1988496D01*
G01X525999Y1991483D01*
G01X504895Y1990490D01*
G01X484353Y1985551D01*
G01X465104Y1976844D01*
G01X465104Y2095181D01*
G01X483173Y2086204D01*
G01X502625Y2080845D01*
G01X522743Y2079301D01*
G01X542784Y2081629D01*
G01X562012Y2087744D01*
G01X579717Y2097419D01*
G01X595248Y2110300D01*
G01X608031Y2125910D01*
G01X617596Y2143675D01*
G01X623591Y2162940D01*
G01X625795Y2182996D01*
G01X624126Y2203104D01*
G01X618645Y2222522D01*
G01X609556Y2240535D01*
G01X597193Y2256480D01*
G01X582011Y2269769D01*
G01X564569Y2279912D01*
G01X545511Y2286536D01*
G01X525538Y2289397D01*
G01X505387Y2288389D01*
G01X485799Y2283549D01*
G01X467497Y2275056D01*
G01X467497Y2732838D01*
G01X483478Y2718624D01*
G01X501637Y2707322D01*
G01X521447Y2699259D01*
G01X542336Y2694668D01*
G01X563701Y2693682D01*
G01X584925Y2696328D01*
G01X605394Y2702532D01*
G01X624516Y2712113D01*
G01X641739Y2724794D01*
G01X656565Y2740210D01*
G01X668566Y2757914D01*
G01X677395Y2777395D01*
G01X682796Y2798089D01*
G01X684614Y2819400D01*
G01X682796Y2840711D01*
G01X677395Y2861405D01*
G01X668566Y2880886D01*
G01X656565Y2898590D01*
G01X641739Y2914006D01*
G01X624516Y2926687D01*
G01X605394Y2936268D01*
G01X584925Y2942472D01*
G01X563701Y2945118D01*
G01X542336Y2944132D01*
G01X521447Y2939541D01*
G01X501637Y2931478D01*
G01X483478Y2920176D01*
G01X467497Y2905962D01*
G01X467497Y2986838D01*
G01X484350Y2971978D01*
G01X503578Y2960353D01*
G01X524567Y2952333D01*
G01X546647Y2948174D01*
G01X569116Y2948010D01*
G01X591255Y2951844D01*
G01X612359Y2959556D01*
G01X631755Y2970898D01*
G01X648824Y2985509D01*
G01X663022Y3002924D01*
G01X673896Y3022586D01*
G01X677452Y3022586D01*
G01X711186Y2988852D01*
G01X711186Y1193800D01*
G01X712917Y1180648D01*
G01X717994Y1168393D01*
G01X726069Y1157869D01*
G01X853069Y1030869D01*
G01X863593Y1022794D01*
G01X875848Y1017717D01*
G01X889000Y1015986D01*
G01X2410242Y1015986D01*
G01X2398144Y999137D01*
G01X2389460Y980299D01*
G01X2384505Y960157D01*
G01X2383458Y939441D01*
G01X2386358Y918902D01*
G01X2393099Y899285D01*
G01X2403436Y881302D01*
G01X2416996Y865605D01*
G01X2433286Y852764D01*
G01X2451714Y843243D01*
G01X2471614Y837389D01*
G01X2492262Y835414D01*
G01X2512911Y837389D01*
G01X2532810Y843243D01*
G01X2551239Y852764D01*
G01X2567528Y865605D01*
G01X2581088Y881302D01*
G01X2591426Y899285D01*
G01X2598167Y918902D01*
G01X2601066Y939441D01*
G01X2600020Y960157D01*
G01X2595064Y980299D01*
G01X2586380Y999137D01*
G01X2574283Y1015986D01*
G01X3941352Y1015986D01*
G01X4013186Y944152D01*
G01X4013186Y258175D01*
G01X3996601Y271685D01*
G01X3977814Y281914D01*
G01X3957466Y288514D01*
G01X3936252Y291259D01*
G01X3914895Y290055D01*
G01X3894123Y284944D01*
G01X3874646Y276100D01*
G01X3857127Y263824D01*
G01X3842165Y248536D01*
G01X3830270Y230758D01*
G01X3821847Y211094D01*
G01X3817185Y190217D01*
G01X3816441Y168839D01*
G01X3819642Y147689D01*
G01X3826678Y127488D01*
G01X3837310Y108926D01*
G01X3851174Y92635D01*
G01X3867797Y79173D01*
G01X3886613Y68997D01*
G01X3906980Y62455D01*
G01X3928202Y59771D01*
G01X3949556Y61035D01*
G01X3970313Y66205D01*
G01X3989765Y75105D01*
G01X4007248Y87430D01*
G01X4022167Y102760D01*
G01X4034012Y120573D01*
G01X4042378Y140260D01*
G01X4145163Y37475D01*
G37*
G36*
G01X734431Y3109331D02*
G01X723907Y3117406D01*
G01X711652Y3122483D01*
G01X698500Y3124214D01*
G01X673896Y3124214D01*
G01X663022Y3143876D01*
G01X648824Y3161291D01*
G01X631755Y3175902D01*
G01X612359Y3187244D01*
G01X591255Y3194956D01*
G01X569116Y3198790D01*
G01X546647Y3198626D01*
G01X524567Y3194467D01*
G01X503578Y3186447D01*
G01X484350Y3174822D01*
G01X467497Y3159962D01*
G01X467497Y3240838D01*
G01X483782Y3226398D01*
G01X502312Y3214980D01*
G01X522532Y3206927D01*
G01X543838Y3202479D01*
G01X565592Y3201770D01*
G01X587142Y3204820D01*
G01X607844Y3211539D01*
G01X627079Y3221725D01*
G01X644270Y3235074D01*
G01X658903Y3251186D01*
G01X1706152Y3251186D01*
G01X1765286Y3192052D01*
G01X1765286Y2804414D01*
G01X1612900Y2804414D01*
G01X1601833Y2802661D01*
G01X1591849Y2797574D01*
G01X1583926Y2789651D01*
G01X1578839Y2779667D01*
G01X1577086Y2768600D01*
G01X1577086Y2616200D01*
G01X1578839Y2605133D01*
G01X1583926Y2595149D01*
G01X1591849Y2587226D01*
G01X1601833Y2582139D01*
G01X1612900Y2580386D01*
G01X1765286Y2580386D01*
G01X1765286Y2069270D01*
G01X1751061Y2072818D01*
G01X1736404Y2073153D01*
G01X1722032Y2070260D01*
G01X1708646Y2064280D01*
G01X1696902Y2055504D01*
G01X1687373Y2044362D01*
G01X1680525Y2031399D01*
G01X1619560Y1970435D01*
G01X1606143Y1986646D01*
G01X1590013Y2000163D01*
G01X1571704Y2010537D01*
G01X1551820Y2017427D01*
G01X1531018Y2020605D01*
G01X1509983Y2019966D01*
G01X1489412Y2015532D01*
G01X1469983Y2007448D01*
G01X1452337Y1995982D01*
G01X1437057Y1981512D01*
G01X1424648Y1964516D01*
G01X1415519Y1945556D01*
G01X1409972Y1925256D01*
G01X1408189Y1904288D01*
G01X1410231Y1883343D01*
G01X1416028Y1863114D01*
G01X1425391Y1844267D01*
G01X1438009Y1827426D01*
G01X1453467Y1813146D01*
G01X1471253Y1801899D01*
G01X1471253Y1486332D01*
G01X1393943Y1486332D01*
G01X1385267Y1507465D01*
G01X1373021Y1526750D01*
G01X1357584Y1543589D01*
G01X1339434Y1557461D01*
G01X1319132Y1567935D01*
G01X1297309Y1574689D01*
G01X1274639Y1577511D01*
G01X1251826Y1576315D01*
G01X1229576Y1571139D01*
G01X1208578Y1562141D01*
G01X1189483Y1549601D01*
G01X1172882Y1533908D01*
G01X1159290Y1515548D01*
G01X1149127Y1495088D01*
G01X1142708Y1473164D01*
G01X1140233Y1450454D01*
G01X1141778Y1427662D01*
G01X1147294Y1405494D01*
G01X1156612Y1384636D01*
G01X1169443Y1365735D01*
G01X1185388Y1349376D01*
G01X1203954Y1336066D01*
G01X1224567Y1326217D01*
G01X1246587Y1320135D01*
G01X1269332Y1318008D01*
G01X1292098Y1319901D01*
G01X1314179Y1325756D01*
G01X1334892Y1335392D01*
G01X1353594Y1348510D01*
G01X1369707Y1364704D01*
G01X1706877Y1364704D01*
G01X1939064Y1132516D01*
G01X1950384Y1123609D01*
G01X1963481Y1117614D01*
G01X910048Y1117614D01*
G01X812814Y1214848D01*
G01X812814Y2169046D01*
G01X1415550Y2169046D01*
G01X1415550Y2148947D01*
G01X1419243Y2129191D01*
G01X1426503Y2110449D01*
G01X1437084Y2093361D01*
G01X1450624Y2078508D01*
G01X1466663Y2066396D01*
G01X1484655Y2057437D01*
G01X1503986Y2051937D01*
G01X1523999Y2050083D01*
G01X1523999Y2050083D01*
G01X1544012Y2051937D01*
G01X1563343Y2057437D01*
G01X1581335Y2066396D01*
G01X1597374Y2078508D01*
G01X1610914Y2093361D01*
G01X1621495Y2110449D01*
G01X1628755Y2129191D01*
G01X1632448Y2148947D01*
G01X1632448Y2169046D01*
G01X1628755Y2188802D01*
G01X1621495Y2207544D01*
G01X1610914Y2224632D01*
G01X1597374Y2239485D01*
G01X1581335Y2251597D01*
G01X1563343Y2260556D01*
G01X1544012Y2266056D01*
G01X1523999Y2267910D01*
G01X1503986Y2266056D01*
G01X1484655Y2260556D01*
G01X1466663Y2251597D01*
G01X1450624Y2239485D01*
G01X1437084Y2224632D01*
G01X1426503Y2207544D01*
G01X1419243Y2188802D01*
G01X1415550Y2169046D01*
G01X812814Y2169046D01*
G01X812814Y3009900D01*
G01X811083Y3023052D01*
G01X806006Y3035307D01*
G01X797931Y3045831D01*
G01X734431Y3109331D01*
G37*
G36*
G01X1763131Y3337931D02*
G01X1752607Y3346006D01*
G01X1740352Y3351083D01*
G01X1727200Y3352814D01*
G01X682020Y3352814D01*
G01X676052Y3373019D01*
G01X666796Y3391945D01*
G01X654511Y3409060D01*
G01X639543Y3423887D01*
G01X622311Y3436007D01*
G01X603298Y3445082D01*
G01X583037Y3450857D01*
G01X562096Y3453171D01*
G01X541063Y3451957D01*
G01X520527Y3447251D01*
G01X501065Y3439185D01*
G01X483221Y3427983D01*
G01X467497Y3413962D01*
G01X467497Y3455610D01*
G01X468800Y3455586D01*
G01X648800Y3455586D01*
G01X659867Y3457339D01*
G01X669851Y3462426D01*
G01X677774Y3470349D01*
G01X682861Y3480333D01*
G01X684614Y3491400D01*
G01X684614Y3492486D01*
G01X2264952Y3492486D01*
G01X2285986Y3471452D01*
G01X2285986Y2759978D01*
G01X2272572Y2774685D01*
G01X2256767Y2786785D01*
G01X2239070Y2795897D01*
G01X2220040Y2801732D01*
G01X2200277Y2804107D01*
G01X2180406Y2802947D01*
G01X2161054Y2798288D01*
G01X2142832Y2790276D01*
G01X2126315Y2779167D01*
G01X2112027Y2765309D01*
G01X2100416Y2749141D01*
G01X2091851Y2731173D01*
G01X2086601Y2711972D01*
G01X2084832Y2692146D01*
G01X2086601Y2672320D01*
G01X2091851Y2653119D01*
G01X2100416Y2635151D01*
G01X2112027Y2618983D01*
G01X2126315Y2605125D01*
G01X2142832Y2594016D01*
G01X2161054Y2586004D01*
G01X2180406Y2581345D01*
G01X2200277Y2580185D01*
G01X2220040Y2582560D01*
G01X2239070Y2588395D01*
G01X2256767Y2597507D01*
G01X2272572Y2609607D01*
G01X2285986Y2624314D01*
G01X2285986Y2358595D01*
G01X2275867Y2376061D01*
G01X2262777Y2391426D01*
G01X2247142Y2404193D01*
G01X2229471Y2413947D01*
G01X2210335Y2420370D01*
G01X2190357Y2423255D01*
G01X2170186Y2422509D01*
G01X2150477Y2418154D01*
G01X2131869Y2410332D01*
G01X2114966Y2399298D01*
G01X2100319Y2385410D01*
G01X2088402Y2369119D01*
G01X2079602Y2350953D01*
G01X2074205Y2331503D01*
G01X2072386Y2311400D01*
G01X2074205Y2291297D01*
G01X2079602Y2271847D01*
G01X2088402Y2253681D01*
G01X2100319Y2237390D01*
G01X2114966Y2223502D01*
G01X2131869Y2212468D01*
G01X2150477Y2204646D01*
G01X2170186Y2200291D01*
G01X2190357Y2199545D01*
G01X2210335Y2202430D01*
G01X2229471Y2208853D01*
G01X2247142Y2218607D01*
G01X2262777Y2231374D01*
G01X2275867Y2246739D01*
G01X2285986Y2264205D01*
G01X2285986Y1830405D01*
G01X2278961Y1849304D01*
G01X2268456Y1866515D01*
G01X2254859Y1881404D01*
G01X2238668Y1893422D01*
G01X2220481Y1902127D01*
G01X2200967Y1907200D01*
G01X2180842Y1908454D01*
G01X2160849Y1905842D01*
G01X2141722Y1899460D01*
G01X2124166Y1889544D01*
G01X2108826Y1876458D01*
G01X2096267Y1860684D01*
G01X2086950Y1842802D01*
G01X2081220Y1823470D01*
G01X2079286Y1803400D01*
G01X2081220Y1783330D01*
G01X2086950Y1763998D01*
G01X2096267Y1746116D01*
G01X2108826Y1730342D01*
G01X2124166Y1717256D01*
G01X2141722Y1707340D01*
G01X2160849Y1700958D01*
G01X2180842Y1698346D01*
G01X2200967Y1699600D01*
G01X2220481Y1704673D01*
G01X2238668Y1713378D01*
G01X2254859Y1725396D01*
G01X2268456Y1740285D01*
G01X2278961Y1757496D01*
G01X2285986Y1776395D01*
G01X2285986Y1663700D01*
G01X2287717Y1650548D01*
G01X2292794Y1638293D01*
G01X2300869Y1627769D01*
G01X2320421Y1608218D01*
G01X1879944Y1608218D01*
G01X1866914Y1621248D01*
G01X1866914Y2609796D01*
G01X1882707Y2597645D01*
G01X1900403Y2588484D01*
G01X1919442Y2582604D01*
G01X1939222Y2580191D01*
G01X1959116Y2581320D01*
G01X1978496Y2585956D01*
G01X1996747Y2593953D01*
G01X2013293Y2605058D01*
G01X2027609Y2618918D01*
G01X2039243Y2635096D01*
G01X2047827Y2653079D01*
G01X2053088Y2672298D01*
G01X2054860Y2692146D01*
G01X2053088Y2711994D01*
G01X2047827Y2731213D01*
G01X2039243Y2749196D01*
G01X2027609Y2765374D01*
G01X2013293Y2779234D01*
G01X1996747Y2790339D01*
G01X1978496Y2798336D01*
G01X1959116Y2802972D01*
G01X1939222Y2804101D01*
G01X1919442Y2801688D01*
G01X1900403Y2795808D01*
G01X1882707Y2786647D01*
G01X1866914Y2774496D01*
G01X1866914Y3213100D01*
G01X1865183Y3226252D01*
G01X1860106Y3238507D01*
G01X1852031Y3249031D01*
G01X1763131Y3337931D01*
G37*
G36*
G01X1592881Y1486332D02*
G01X1592881Y1811899D01*
G01X1605894Y1823111D01*
G01X1617105Y1836124D01*
G01X1632067Y1836124D01*
G01X1643931Y1837292D01*
G01X1655339Y1840753D01*
G01X1665853Y1846373D01*
G01X1675069Y1853936D01*
G01X1765286Y1944153D01*
G01X1765286Y1600200D01*
G01X1767017Y1587048D01*
G01X1772094Y1574793D01*
G01X1780169Y1564269D01*
G01X1822966Y1521473D01*
G01X1833489Y1513397D01*
G01X1845745Y1508321D01*
G01X1858896Y1506590D01*
G01X2055658Y1506590D01*
G01X2046505Y1488467D01*
G01X2040658Y1469024D01*
G01X2038296Y1448860D01*
G01X2039492Y1428592D01*
G01X2044209Y1408845D01*
G01X2052301Y1390225D01*
G01X2063521Y1373304D01*
G01X2077523Y1358603D01*
G01X2093878Y1346572D01*
G01X2112082Y1337583D01*
G01X2131576Y1331910D01*
G01X2151761Y1329729D01*
G01X2172017Y1331107D01*
G01X2191721Y1336000D01*
G01X2238131Y1289590D01*
G01X2248655Y1281514D01*
G01X2260910Y1276438D01*
G01X2274062Y1274707D01*
G01X2444220Y1274707D01*
G01X2457372Y1276438D01*
G01X2469627Y1281514D01*
G01X2480151Y1289590D01*
G01X2540022Y1349461D01*
G01X2553770Y1352154D01*
G01X2566646Y1357675D01*
G01X2578074Y1365777D01*
G01X2594044Y1351784D01*
G01X2612301Y1340942D01*
G01X2632229Y1333615D01*
G01X2653161Y1330049D01*
G01X2674392Y1330365D01*
G01X2695208Y1334551D01*
G01X2714910Y1342467D01*
G01X2732836Y1353848D01*
G01X2748383Y1368309D01*
G01X2761029Y1385366D01*
G01X2770348Y1404445D01*
G01X2776027Y1424905D01*
G01X2777875Y1446057D01*
G01X2775831Y1467192D01*
G01X2769962Y1487598D01*
G01X2760467Y1506590D01*
G01X2817658Y1506590D01*
G01X2808434Y1488289D01*
G01X2802581Y1468649D01*
G01X2800281Y1448285D01*
G01X2801607Y1427834D01*
G01X2806516Y1407937D01*
G01X2814856Y1389217D01*
G01X2826364Y1372260D01*
G01X2840681Y1357596D01*
G01X2857359Y1345686D01*
G01X2875875Y1336902D01*
G01X2895649Y1331520D01*
G01X2916062Y1329706D01*
G01X2936476Y1331520D01*
G01X2956250Y1336902D01*
G01X2974765Y1345686D01*
G01X2991443Y1357596D01*
G01X3005760Y1372260D01*
G01X3017269Y1389217D01*
G01X3025608Y1407937D01*
G01X3030518Y1427834D01*
G01X3031843Y1448285D01*
G01X3029543Y1468649D01*
G01X3023690Y1488289D01*
G01X3014467Y1506590D01*
G01X3079880Y1506590D01*
G01X3070382Y1489407D01*
G01X3064122Y1470799D01*
G01X3061305Y1451370D01*
G01X3062022Y1431750D01*
G01X3066250Y1412578D01*
G01X3073850Y1394476D01*
G01X3084577Y1378033D01*
G01X3098081Y1363783D01*
G01X3113925Y1352188D01*
G01X3131592Y1343627D01*
G01X3150509Y1338376D01*
G01X3170062Y1336606D01*
G01X3189615Y1338376D01*
G01X3208532Y1343627D01*
G01X3226200Y1352188D01*
G01X3242043Y1363783D01*
G01X3255548Y1378033D01*
G01X3266274Y1394476D01*
G01X3273875Y1412578D01*
G01X3278102Y1431750D01*
G01X3278819Y1451370D01*
G01X3276002Y1470799D01*
G01X3269743Y1489407D01*
G01X3260244Y1506590D01*
G01X3333880Y1506590D01*
G01X3324382Y1489407D01*
G01X3318122Y1470799D01*
G01X3315305Y1451370D01*
G01X3316022Y1431750D01*
G01X3320250Y1412578D01*
G01X3327850Y1394476D01*
G01X3338577Y1378033D01*
G01X3352081Y1363783D01*
G01X3367925Y1352188D01*
G01X3385592Y1343627D01*
G01X3404509Y1338376D01*
G01X3424062Y1336606D01*
G01X3443615Y1338376D01*
G01X3462532Y1343627D01*
G01X3480200Y1352188D01*
G01X3496043Y1363783D01*
G01X3509548Y1378033D01*
G01X3520274Y1394476D01*
G01X3527875Y1412578D01*
G01X3532102Y1431750D01*
G01X3532819Y1451370D01*
G01X3530002Y1470799D01*
G01X3523743Y1489407D01*
G01X3514244Y1506590D01*
G01X3587880Y1506590D01*
G01X3578382Y1489407D01*
G01X3572122Y1470799D01*
G01X3569305Y1451370D01*
G01X3570022Y1431750D01*
G01X3574250Y1412578D01*
G01X3581850Y1394476D01*
G01X3592577Y1378033D01*
G01X3606081Y1363783D01*
G01X3621925Y1352188D01*
G01X3639592Y1343627D01*
G01X3658509Y1338376D01*
G01X3678062Y1336606D01*
G01X3697615Y1338376D01*
G01X3716532Y1343627D01*
G01X3734200Y1352188D01*
G01X3750043Y1363783D01*
G01X3763548Y1378033D01*
G01X3774274Y1394476D01*
G01X3781875Y1412578D01*
G01X3786102Y1431750D01*
G01X3786819Y1451370D01*
G01X3784002Y1470799D01*
G01X3777743Y1489407D01*
G01X3768244Y1506590D01*
G01X3833658Y1506590D01*
G01X3824577Y1488645D01*
G01X3818737Y1469400D01*
G01X3816314Y1449434D01*
G01X3817383Y1429351D01*
G01X3821909Y1409755D01*
G01X3829757Y1391238D01*
G01X3840691Y1374358D01*
G01X3854379Y1359624D01*
G01X3870411Y1347480D01*
G01X3888301Y1338292D01*
G01X3907512Y1332338D01*
G01X3927462Y1329798D01*
G01X3947552Y1330747D01*
G01X3967174Y1335157D01*
G01X3985737Y1342895D01*
G01X4002682Y1353729D01*
G01X4017497Y1367330D01*
G01X4029736Y1383289D01*
G01X4039029Y1401125D01*
G01X4045097Y1420299D01*
G01X4047756Y1440235D01*
G01X4046926Y1460329D01*
G01X4042632Y1479977D01*
G01X4035004Y1498586D01*
G01X4093752Y1498586D01*
G01X4165586Y1426752D01*
G01X4165586Y457200D01*
G01X4167317Y444048D01*
G01X4172394Y431793D01*
G01X4180469Y421269D01*
G01X4310263Y291475D01*
G01X4320787Y283400D01*
G01X4333042Y278323D01*
G01X4346194Y276592D01*
G01X4670388Y276592D01*
G01X4656493Y263745D01*
G01X4645031Y248686D01*
G01X4636349Y231870D01*
G01X4630709Y213806D01*
G01X4628280Y195037D01*
G01X4629138Y176132D01*
G01X4633255Y157661D01*
G01X4640507Y140181D01*
G01X4650675Y124220D01*
G01X4202142Y124220D01*
G01X4114814Y211548D01*
G01X4114814Y965200D01*
G01X4113083Y978352D01*
G01X4108006Y990607D01*
G01X4099931Y1001131D01*
G01X3998331Y1102731D01*
G01X3987807Y1110806D01*
G01X3975552Y1115883D01*
G01X3962400Y1117614D01*
G01X3664384Y1117614D01*
G01X3676109Y1125945D01*
G01X3685762Y1136609D01*
G01X3692889Y1149103D01*
G01X3697154Y1162840D01*
G01X3698356Y1177174D01*
G01X3696440Y1191429D01*
G01X3691495Y1204936D01*
G01X3683753Y1217059D01*
G01X3673580Y1227228D01*
G01X3661454Y1234964D01*
G01X3647945Y1239903D01*
G01X3633688Y1241812D01*
G01X3619355Y1240603D01*
G01X3605620Y1236332D01*
G01X2007256Y1236332D01*
G01X1775069Y1468520D01*
G01X1765853Y1476083D01*
G01X1755339Y1481703D01*
G01X1743931Y1485163D01*
G01X1732067Y1486332D01*
G01X1592881Y1486332D01*
G37*
G36*
G01X1929896Y113782D02*
G01X1929896Y232435D01*
G01X1976848Y279386D01*
G01X2121287Y279386D01*
G01X2102276Y271335D01*
G01X2085125Y259841D01*
G01X2070452Y245317D01*
G01X2058783Y228285D01*
G01X2050538Y209357D01*
G01X2046012Y189213D01*
G01X2045370Y168577D01*
G01X2048633Y148191D01*
G01X2055684Y128787D01*
G01X2066271Y111062D01*
G01X2080012Y95653D01*
G01X2096414Y83114D01*
G01X1919598Y83114D01*
G01X1925229Y92509D01*
G01X1928716Y102893D01*
G01X1929896Y113782D01*
G37*
G36*
G01X2186837Y279386D02*
G01X2356829Y279386D01*
G01X2338587Y268181D01*
G01X2322718Y253810D01*
G01X2309766Y236763D01*
G01X2300173Y217624D01*
G01X2294266Y197046D01*
G01X2292248Y175732D01*
G01X2294188Y154411D01*
G01X2300020Y133811D01*
G01X2309543Y114637D01*
G01X2322433Y97543D01*
G01X2338249Y83114D01*
G01X2211710Y83114D01*
G01X2228113Y95653D01*
G01X2241854Y111062D01*
G01X2252440Y128787D01*
G01X2259492Y148191D01*
G01X2262755Y168577D01*
G01X2262112Y189213D01*
G01X2257587Y209357D01*
G01X2249342Y228285D01*
G01X2237673Y245317D01*
G01X2222999Y259841D01*
G01X2205849Y271335D01*
G01X2186837Y279386D01*
G37*
G36*
G01X3997496Y1838588D02*
G01X4350650Y1838588D01*
G01X4381486Y1807752D01*
G01X4381486Y1600572D01*
G01X4314723Y1667335D01*
G01X4304200Y1675410D01*
G01X4291944Y1680486D01*
G01X4278793Y1682218D01*
G01X3954898Y1682218D01*
G01X3972690Y1692461D01*
G01X3988151Y1705966D01*
G01X4000693Y1722220D01*
G01X4009836Y1740601D01*
G01X4015232Y1760408D01*
G01X4016674Y1780887D01*
G01X4014109Y1801255D01*
G01X4007634Y1820737D01*
G01X3997496Y1838588D01*
G37*
G36*
G01X4399259Y1249192D02*
G01X4417775Y1257396D01*
G01X4434790Y1268380D01*
G01X4449889Y1281877D01*
G01X4462704Y1297559D01*
G01X4472924Y1315043D01*
G01X4480299Y1333904D01*
G01X4484651Y1353683D01*
G01X4680466Y1157869D01*
G01X4690989Y1149794D01*
G01X4703245Y1144717D01*
G01X4716396Y1142986D01*
G01X5211352Y1142986D01*
G01X5245086Y1109252D01*
G01X5245086Y382906D01*
G01X5232544Y389320D01*
G01X5218931Y392940D01*
G01X5204860Y393603D01*
G01X5190966Y391280D01*
G01X5177876Y386073D01*
G01X5166182Y378220D01*
G01X4450991Y378220D01*
G01X4453928Y393745D01*
G01X4453108Y409524D01*
G01X4448579Y424661D01*
G01X4448579Y612271D01*
G01X4473711Y637404D01*
G01X4989201Y637404D01*
G01X5002062Y620319D01*
G01X5017846Y605890D01*
G01X5036013Y594609D01*
G01X5055945Y586861D01*
G01X5076961Y582909D01*
G01X5098346Y582888D01*
G01X5119370Y586800D01*
G01X5139316Y594511D01*
G01X5157505Y605757D01*
G01X5173316Y620156D01*
G01X5186210Y637217D01*
G01X5195747Y656357D01*
G01X5201603Y676924D01*
G01X5203577Y698218D01*
G01X5201603Y719511D01*
G01X5195747Y740079D01*
G01X5186210Y759219D01*
G01X5173316Y776279D01*
G01X5157505Y790678D01*
G01X5139316Y801925D01*
G01X5119370Y809635D01*
G01X5098346Y813547D01*
G01X5076961Y813527D01*
G01X5055945Y809575D01*
G01X5036013Y801827D01*
G01X5017846Y790546D01*
G01X5002063Y776117D01*
G01X4989201Y759032D01*
G01X4448521Y759032D01*
G01X4436657Y757863D01*
G01X4425249Y754403D01*
G01X4414735Y748783D01*
G01X4405519Y741220D01*
G01X4344763Y680463D01*
G01X4337200Y671247D01*
G01X4331580Y660733D01*
G01X4328119Y649325D01*
G01X4326951Y637461D01*
G01X4326951Y424661D01*
G01X4325216Y420246D01*
G01X4267214Y478248D01*
G01X4267214Y962260D01*
G01X4979312Y962260D01*
G01X4979312Y942161D01*
G01X4983005Y922405D01*
G01X4990265Y903664D01*
G01X5000846Y886575D01*
G01X5014386Y871722D01*
G01X5030425Y859610D01*
G01X5048417Y850652D01*
G01X5067748Y845151D01*
G01X5087761Y843297D01*
G01X5087761Y843297D01*
G01X5107774Y845151D01*
G01X5127105Y850652D01*
G01X5145097Y859610D01*
G01X5161136Y871722D01*
G01X5174676Y886575D01*
G01X5185257Y903664D01*
G01X5192517Y922405D01*
G01X5196211Y942161D01*
G01X5196211Y962260D01*
G01X5192517Y982016D01*
G01X5185257Y1000758D01*
G01X5174676Y1017846D01*
G01X5161136Y1032699D01*
G01X5145097Y1044811D01*
G01X5127105Y1053770D01*
G01X5107774Y1059270D01*
G01X5087761Y1061125D01*
G01X5067748Y1059270D01*
G01X5048417Y1053770D01*
G01X5030425Y1044811D01*
G01X5014386Y1032699D01*
G01X5000846Y1017846D01*
G01X4990265Y1000758D01*
G01X4983005Y982016D01*
G01X4979312Y962260D01*
G01X4267214Y962260D01*
G01X4267214Y1277018D01*
G01X4283009Y1264343D01*
G01X4300583Y1254278D01*
G01X4319509Y1247070D01*
G01X4339326Y1242894D01*
G01X4359551Y1241852D01*
G01X4379692Y1243968D01*
G01X4399259Y1249192D01*
G37*
G36*
G01X4913634Y276592D02*
G01X4899407Y261248D01*
G01X4888173Y243594D01*
G01X4880300Y224207D01*
G01X4876043Y203719D01*
G01X4875542Y182800D01*
G01X4878814Y162133D01*
G01X4885751Y142391D01*
G01X4896127Y124220D01*
G01X4823525Y124220D01*
G01X4833693Y140181D01*
G01X4840945Y157661D01*
G01X4845062Y176132D01*
G01X4845920Y195037D01*
G01X4843491Y213806D01*
G01X4837851Y231870D01*
G01X4829169Y248686D01*
G01X4817707Y263745D01*
G01X4803812Y276592D01*
G01X4913634Y276592D01*
G37*
G54D10*
G01X6682486Y23114D02*
G01X5617871Y23114D01*
G03X5646537Y37475I-7265J50292D01*
G01X5697802Y88740D01*
G03X5847940Y256970I55298J101760D01*
G03X5638579Y173241I-94840J-66470D01*
G01X5601233Y135895D01*
G03X5492252Y306111I-102133J54605D01*
G03X5404127Y124220I6848J-115611D01*
G01X5340073Y124220D01*
G03X5349482Y240671I-94973J66280D01*
G03X5349604Y244191I-50692J3519D01*
G01X5349604Y330658D01*
G03X5346714Y347552I-50814J0D01*
G01X5346714Y1130300D01*
G03X5331831Y1166231I-50814J0D01*
G01X5268331Y1229731D01*
G03X5266038Y1231886I-35931J-35931D01*
G01X5935252Y1231886D01*
G01X5956286Y1210852D01*
G01X5956286Y294571D01*
G03X6007100Y74686I50814J-104071D01*
G03X6057914Y294571I0J115814D01*
G01X6057914Y1231900D01*
G03X6043031Y1267831I-50814J0D01*
G01X5992231Y1318631D01*
G03X5956300Y1333514I-35931J-35931D01*
G01X4758148Y1333514D01*
G01X4746587Y1345075D01*
G03X4843067Y1413769I-9487J115425D01*
G03X4828726Y1531334I-105967J46731D01*
G01X4899474Y1531334D01*
G03X4991100Y1344686I91626J-70834D01*
G03X5082726Y1531334I0J115814D01*
G01X5153474Y1531334D01*
G03X5245100Y1344686I91626J-70834D01*
G03X5336726Y1531334I0J115814D01*
G01X5407474Y1531334D01*
G03X5499100Y1344686I91626J-70834D01*
G03X5590726Y1531334I0J115814D01*
G01X5670367Y1531334D01*
G03X5753100Y1351586I82733J-70834D01*
G03X5835833Y1531334I0J108914D01*
G01X5924367Y1531334D01*
G03X6007100Y1351586I82733J-70834D01*
G03X6089833Y1531334I0J108914D01*
G01X6178367Y1531334D01*
G03X6261100Y1351586I82733J-70834D01*
G03X6343833Y1531334I0J108914D01*
G01X6372404Y1531334D01*
G01X6405580Y1498159D01*
G03X6596993Y1378607I109520J-37659D01*
G03X6477441Y1570020I-81893J81893D01*
G01X6429383Y1618079D01*
G03X6393452Y1632962I-35931J-35931D01*
G01X4750800Y1632962D01*
G01X4673614Y1710148D01*
G01X4673614Y2463800D01*
G03X4658731Y2499731I-50814J0D01*
G01X4595231Y2563231D01*
G03X4559300Y2578114I-35931J-35931D01*
G01X4034248Y2578114D01*
G01X4025660Y2586702D01*
G01X4025660Y2592321D01*
G03X3974846Y2804160I-50814J99825D01*
G03X3924032Y2592321I0J-112014D01*
G01X3924032Y2565654D01*
G03X3938915Y2529723I50814J0D01*
G01X3977269Y2491369D01*
G03X4013200Y2476486I35931J35931D01*
G01X4261518Y2476486D01*
G03X4356100Y2257806I94582J-88886D01*
G03X4450682Y2476486I0J129794D01*
G01X4538252Y2476486D01*
G01X4571986Y2442752D01*
G01X4571986Y2103738D01*
G03X4569831Y2106031I-38086J-33638D01*
G01X4460331Y2215531D01*
G03X4424400Y2230414I-35931J-35931D01*
G01X4008849Y2230414D01*
G03X3911600Y2398014I-97249J55586D01*
G03X3814351Y2230414I0J-112014D01*
G01X3325275Y2230414D01*
G01X3263660Y2292029D01*
G01X3263660Y2592321D01*
G03X3212846Y2804160I-50814J99825D01*
G03X3162032Y2592321I0J-112014D01*
G01X3162032Y2270981D01*
G03X3176915Y2235050I50814J0D01*
G01X3250898Y2161067D01*
G03X3176199Y2046105I51115J-114963D01*
G01X3176199Y1966105D01*
G03X3210077Y1880216I125814J0D01*
G01X3129181Y1880216D01*
G03X3166901Y1967095I-81194J86879D01*
G01X3166901Y2047095D01*
G03X2929073Y2047095I-118914J0D01*
G01X2929073Y1967095D01*
G03X2966793Y1880216I118914J0D01*
G01X2919801Y1880216D01*
G01X2919801Y2137095D01*
G03X2883987Y2172909I-35814J0D01*
G01X2703987Y2172909D01*
G03X2668173Y2137095I0J-35814D01*
G01X2668173Y2067909D01*
G01X2568666Y2067909D01*
G03X2475909Y2007095I-26443J-60814D01*
G03X2568666Y1946281I66314J0D01*
G01X2668173Y1946281D01*
G01X2668173Y1880216D01*
G01X2521405Y1880216D01*
G03X2412482Y1829402I-42609J-50814D01*
G03X2521405Y1778588I66314J0D01*
G01X3798794Y1778588D01*
G03X3806492Y1779175I0J50814D01*
G03X3868302Y1682218I105108J-1175D01*
G01X2390144Y1682218D01*
G01X2387614Y1684748D01*
G01X2387614Y2599686D01*
G03X2562860Y2692146I63232J92460D01*
G03X2387614Y2784606I-112014J0D01*
G01X2387614Y3492500D01*
G03X2372731Y3528431I-50814J0D01*
G01X2321931Y3579231D01*
G03X2286000Y3594114I-35931J-35931D01*
G01X684614Y3594114D01*
G01X684614Y3671400D01*
G03X648800Y3707214I-35814J0D01*
G01X468800Y3707214D01*
G01X467497Y3707190D01*
G01X467497Y4188331D01*
G03X692497Y4265734I99186J77404D01*
G03X467497Y4343138I-125814J0D01*
G01X467497Y4348687D01*
G01X521229Y4402418D01*
G03X655647Y4608698I45454J117316D01*
G03X449367Y4474280I-88964J-88964D01*
G01X380752Y4405666D01*
G03X365869Y4369735I35931J-35931D01*
G01X365869Y2243879D01*
G03X363476Y2228467I48421J-15411D01*
G01X363476Y1835523D01*
G03X365869Y1820111I50814J0D01*
G01X365869Y1513616D01*
G03X133914Y1497052I-111869J-65816D01*
G01X133914Y4862652D01*
G01X248182Y4976920D01*
G01X440869Y4976920D01*
G01X440869Y4937735D01*
G03X476683Y4901921I35814J0D01*
G01X656683Y4901921D01*
G03X692497Y4937735I0J35814D01*
G01X692497Y5117734D01*
G03X656683Y5153548I-35814J0D01*
G01X476683Y5153548D01*
G03X440869Y5117734I0J-35814D01*
G01X440869Y5078548D01*
G01X227134Y5078548D01*
G03X191204Y5063665I0J-50814D01*
G01X73914Y4946376D01*
G01X73914Y5399786D01*
G01X6682486Y5399786D01*
G01X6682486Y4124839D01*
G03X6696388Y4096510I35814J0D01*
G01X6974586Y3881325D01*
G01X6974586Y545203D01*
G01X6695540Y315528D01*
G03X6682486Y287876I22760J-27652D01*
G01X6682486Y23114D01*
G01X566683Y4899548D02*
G03X566683Y4647921I0J-125814D01*
G03X566683Y4899548I0J125814D01*
G01X1688846Y5120132D02*
G03X1688846Y5344160I0J112014D01*
G03X1688846Y5120132I0J-112014D01*
G01X1942846Y5120132D02*
G03X1942846Y5344160I0J112014D01*
G03X1942846Y5120132I0J-112014D01*
G01X2196846Y5120132D02*
G03X2196846Y5344160I0J112014D01*
G03X2196846Y5120132I0J-112014D01*
G01X2450846Y5120132D02*
G03X2450846Y5344160I0J112014D01*
G03X2450846Y5120132I0J-112014D01*
G01X2704846Y2580132D02*
G03X2704846Y2804160I0J112014D01*
G03X2704846Y2580132I0J-112014D01*
G01X2704846Y5120132D02*
G03X2704846Y5344160I0J112014D01*
G03X2704846Y5120132I0J-112014D01*
G01X2958846Y2580132D02*
G03X2958846Y2804160I0J112014D01*
G03X2958846Y2580132I0J-112014D01*
G01X2958846Y5120132D02*
G03X2958846Y5344160I0J112014D01*
G03X2958846Y5120132I0J-112014D01*
G01X3212846Y5120132D02*
G03X3212846Y5344160I0J112014D01*
G03X3212846Y5120132I0J-112014D01*
G01X3466846Y5120132D02*
G03X3466846Y5344160I0J112014D01*
G03X3466846Y5120132I0J-112014D01*
G01X3466846Y2580132D02*
G03X3466846Y2804160I0J112014D01*
G03X3466846Y2580132I0J-112014D01*
G01X3720846Y5120132D02*
G03X3720846Y5344160I0J112014D01*
G03X3720846Y5120132I0J-112014D01*
G01X3720846Y2580132D02*
G03X3720846Y2804160I0J112014D01*
G03X3720846Y2580132I0J-112014D01*
G01X3974846Y5120132D02*
G03X3974846Y5344160I0J112014D01*
G03X3974846Y5120132I0J-112014D01*
G01X4228846Y5120132D02*
G03X4228846Y5344160I0J112014D01*
G03X4228846Y5120132I0J-112014D01*
G01X4228846Y2580132D02*
G03X4228846Y2804160I0J112014D01*
G03X4228846Y2580132I0J-112014D01*
G01X4482846Y5120132D02*
G03X4482846Y5344160I0J112014D01*
G03X4482846Y5120132I0J-112014D01*
G01X4482846Y2580132D02*
G03X4482846Y2804160I0J112014D01*
G03X4482846Y2580132I0J-112014D01*
G01X4736846Y5120132D02*
G03X4736846Y5344160I0J112014D01*
G03X4736846Y5120132I0J-112014D01*
G01X4865023Y1914489D02*
G03X4735552Y1697611I-39023J-123789D01*
G03X4948615Y1833269I90448J93089D01*
G03X4974204Y1826356I25590J43900D01*
G01X5195412Y1826356D01*
G03X5240850Y1715959I49434J-44203D01*
G03X5299238Y1820088I3996J66194D01*
G01X5299238Y1851986D01*
G03X5284355Y1887917I-50814J0D01*
G01X5259171Y1913100D01*
G03X5248090Y1921493I-35931J-35931D01*
G01X5767421Y1921493D01*
G01X5782738Y1906175D01*
G03X5849868Y1661145I59262J-115475D01*
G03X5886851Y1912498I-7868J129555D01*
G01X5886851Y1924738D01*
G03X5871968Y1960669I-50814J0D01*
G01X5824400Y2008238D01*
G03X5788469Y2023121I-35931J-35931D01*
G01X5106165Y2023121D01*
G01X5106165Y2101435D01*
G03X5193114Y2221095I-38865J119661D01*
G01X5193114Y2301095D01*
G03X4941486Y2301095I-125814J0D01*
G01X4941486Y2221095D01*
G03X5004537Y2112055I125814J0D01*
G01X5004537Y1997490D01*
G03X5019420Y1961559I50814J0D01*
G01X5044604Y1936376D01*
G03X5055685Y1927983I35931J35931D01*
G01X4995252Y1927983D01*
G01X4935473Y1987763D01*
G01X4935342Y2602881D01*
G03X5095960Y2692168I55504J89265D01*
G03X4935304Y2781388I-105114J-22D01*
G01X4934865Y4849015D01*
G01X4974091Y4888241D01*
G01X5200680Y4888241D01*
G03X5236611Y4903124I0J50814D01*
G01X5291175Y4957688D01*
G03X5306058Y4993619I-35931J35931D01*
G01X5306058Y5138337D01*
G03X5233161Y5343549I-61212J93809D01*
G03X5204431Y5127677I11685J-111403D01*
G01X5204431Y5014667D01*
G01X5179632Y4989869D01*
G01X4953043Y4989869D01*
G03X4917112Y4974986I0J-50814D01*
G01X4848115Y4905989D01*
G03X4833232Y4870048I35931J-35931D01*
G01X4833683Y2748446D01*
G03X4624832Y2692122I-96837J-56300D01*
G03X4833707Y2635887I112014J24D01*
G01X4833849Y1966700D01*
G03X4848732Y1930780I50814J11D01*
G01X4865023Y1914489D01*
G01X4990846Y5127032D02*
G03X4990846Y5337260I0J105114D01*
G03X4990846Y5127032I0J-105114D01*
G01X5244846Y2580132D02*
G03X5244846Y2804160I0J112014D01*
G03X5244846Y2580132I0J-112014D01*
G01X5449486Y2390104D02*
G01X5449486Y2130105D01*
G03X5485300Y2094291I35814J0D01*
G01X5665300Y2094291D01*
G03X5701114Y2130105I0J35814D01*
G01X5701114Y2390104D01*
G03X5682767Y2421370I-35814J0D01*
G01X6473981Y2421370D01*
G01X6515086Y2380264D01*
G01X6515086Y2370620D01*
G01X6489700Y2370620D01*
G03X6453886Y2334806I0J-35814D01*
G01X6453886Y2182406D01*
G03X6489700Y2146592I35814J0D01*
G01X6642100Y2146592D01*
G03X6677914Y2182406I0J35814D01*
G01X6677914Y2334806D01*
G03X6642100Y2370620I-35814J0D01*
G01X6616714Y2370620D01*
G01X6616714Y2401312D01*
G03X6601831Y2437243I-50814J0D01*
G01X6530960Y2508115D01*
G03X6495029Y2522998I-35931J-35931D01*
G01X5376774Y2522998D01*
G03X5340843Y2508115I0J-50814D01*
G01X5285369Y2452640D01*
G03X5270486Y2416710I35931J-35931D01*
G01X5270486Y2415200D01*
G03X5195486Y2300105I50814J-115096D01*
G01X5195486Y2220105D01*
G03X5447114Y2220105I125814J0D01*
G01X5447114Y2300105D01*
G03X5385033Y2408581I-125814J0D01*
G01X5397822Y2421370D01*
G01X5467833Y2421370D01*
G03X5449486Y2390104I17468J-31265D01*
G01X6261100Y299414D02*
G03X6261100Y81586I0J-108914D01*
G03X6261100Y299414I0J108914D01*
G01X6515100Y306314D02*
G03X6515100Y74686I0J-115814D01*
G03X6515100Y306314I0J115814D01*
G01X6453886Y1932394D02*
G03X6489700Y1896580I35814J0D01*
G01X6642100Y1896580D01*
G03X6677914Y1932394I0J35814D01*
G01X6677914Y2084794D01*
G03X6642100Y2120608I-35814J0D01*
G01X6489700Y2120608D01*
G03X6453886Y2084794I0J-35814D01*
G01X6453886Y1932394D01*
G01X4145163Y37475D02*
G03X4173829Y23114I35931J35931D01*
G01X2698476Y23114D01*
G01X2702931Y27569D01*
G03X2717814Y63500I-35931J35931D01*
G01X2717814Y74009D01*
G03X2713295Y279386I-55752J101512D01*
G01X2864829Y279386D01*
G03X2916062Y59706I51233J-103866D01*
G03X2967295Y279386I0J115814D01*
G01X3118829Y279386D01*
G03X3162540Y59951I51233J-103866D01*
G03X3234327Y271868I7522J115569D01*
G01X3234327Y308987D01*
G03X3219444Y344918I-50814J0D01*
G01X3198231Y366131D01*
G03X3162300Y381014I-35931J-35931D01*
G01X1955800Y381014D01*
G03X1919869Y366131I0J-50814D01*
G01X1843151Y289413D01*
G03X1828268Y253482I35931J-35931D01*
G01X1828268Y134830D01*
G01X1820452Y127014D01*
G01X1097772Y127014D01*
G03X1011682Y307600I-86090J69773D01*
G01X811682Y307600D01*
G03X725592Y127014I0J-110814D01*
G01X516348Y127014D01*
G01X467497Y175865D01*
G01X467497Y1781017D01*
G03X632695Y1880964I53193J98578D01*
G03X465104Y1976844I-112006J-1369D01*
G01X465104Y2095181D01*
G03X625795Y2182996I55586J89214D01*
G03X467497Y2275056I-105105J1399D01*
G01X467497Y2732838D01*
G03X684614Y2819400I91303J86562D01*
G03X467497Y2905962I-125814J0D01*
G01X467497Y2986838D01*
G03X673896Y3022586I91303J86562D01*
G01X677452Y3022586D01*
G01X711186Y2988852D01*
G01X711186Y1193800D01*
G03X726069Y1157869I50814J0D01*
G01X853069Y1030869D01*
G03X889000Y1015986I35931J35931D01*
G01X2410242Y1015986D01*
G03X2492262Y835414I82020J-71658D01*
G03X2574283Y1015986I0J108914D01*
G01X3941352Y1015986D01*
G01X4013186Y944152D01*
G01X4013186Y258175D01*
G03X3819642Y147689I-81124J-82655D01*
G03X4042378Y140260I112420J27832D01*
G01X4145163Y37475D01*
G01X487779Y766788D02*
G01X487779Y566788D01*
G03X695607Y566788I103914J0D01*
G01X695607Y766788D01*
G03X487779Y766788I-103914J0D01*
G01X3698377Y475520D02*
G03X3605620Y536334I-66314J0D01*
G01X2589563Y536334D01*
G01X2553078Y572819D01*
G01X2553078Y591773D01*
G03X2574157Y772228I-60814J98562D01*
G03X2393702Y751149I-81893J-81893D01*
G01X1744741Y751149D01*
G01X1699114Y796776D01*
G01X1699114Y807632D01*
G03X1717506Y980906I-60814J94068D01*
G03X1544232Y962514I-79206J-79206D01*
G01X1320676Y962514D01*
G03X1277674Y944702I0J-60814D01*
G01X1210569Y877596D01*
G03X1100868Y766788I1113J-110808D01*
G01X1100868Y566788D01*
G03X1322495Y566788I110814J0D01*
G01X1322495Y766788D01*
G03X1314094Y809114I-110814J0D01*
G01X1345866Y840886D01*
G01X1544232Y840886D01*
G03X1577486Y807632I94068J60814D01*
G01X1577486Y771586D01*
G03X1595298Y728584I60814J0D01*
G01X1676549Y647333D01*
G03X1719551Y629521I43002J43002D01*
G01X2393702Y629521D01*
G03X2431450Y591773I98562J60814D01*
G01X2431450Y547629D01*
G03X2449262Y504627I60814J0D01*
G01X2521371Y432518D01*
G03X2564373Y414706I43002J43002D01*
G01X3605620Y414706D01*
G03X3698377Y475520I26443J60814D01*
G01X1533186Y393700D02*
G03X1743414Y393700I105114J0D01*
G03X1533186Y393700I-105114J0D01*
G01X3424062Y291334D02*
G03X3424062Y59706I0J-115814D01*
G03X3424062Y291334I0J115814D01*
G01X3678062Y284434D02*
G03X3678062Y66606I0J-108914D01*
G03X3678062Y284434I0J108914D01*
G01X734431Y3109331D02*
G03X698500Y3124214I-35931J-35931D01*
G01X673896Y3124214D01*
G03X467497Y3159962I-115096J-50814D01*
G01X467497Y3240838D01*
G03X658903Y3251186I91303J86562D01*
G01X1706152Y3251186D01*
G01X1765286Y3192052D01*
G01X1765286Y2804414D01*
G01X1612900Y2804414D01*
G03X1577086Y2768600I0J-35814D01*
G01X1577086Y2616200D01*
G03X1612900Y2580386I35814J0D01*
G01X1765286Y2580386D01*
G01X1765286Y2069270D01*
G03X1680525Y2031399I-23061J-62175D01*
G01X1619560Y1970435D01*
G03X1437057Y1981512I-95559J-65431D01*
G03X1471253Y1801899I86944J-76509D01*
G01X1471253Y1486332D01*
G01X1393943Y1486332D01*
G03X1142708Y1473164I-123943J-38532D01*
G03X1369707Y1364704I127292J-25364D01*
G01X1706877Y1364704D01*
G01X1939064Y1132516D01*
G03X1963481Y1117614I43002J43002D01*
G01X910048Y1117614D01*
G01X812814Y1214848D01*
G01X812814Y3009900D01*
G03X797931Y3045831I-50814J0D01*
G01X734431Y3109331D01*
G01X1523999Y2050083D02*
G03X1523999Y2267910I0J108914D01*
G03X1523999Y2050083I0J-108914D01*
G01X1763131Y3337931D02*
G03X1727200Y3352814I-35931J-35931D01*
G01X682020Y3352814D01*
G03X467497Y3413962I-123220J-25414D01*
G01X467497Y3455610D01*
G01X468800Y3455586D01*
G01X648800Y3455586D01*
G03X684614Y3491400I0J35814D01*
G01X684614Y3492486D01*
G01X2264952Y3492486D01*
G01X2285986Y3471452D01*
G01X2285986Y2759978D01*
G03X2084832Y2692146I-89140J-67832D01*
G03X2285986Y2624314I112014J0D01*
G01X2285986Y2358595D01*
G03X2072386Y2311400I-101586J-47195D01*
G03X2285986Y2264205I112014J0D01*
G01X2285986Y1830405D01*
G03X2079286Y1803400I-101586J-27005D01*
G03X2285986Y1776395I105114J0D01*
G01X2285986Y1663700D01*
G03X2300869Y1627769I50814J0D01*
G01X2320421Y1608218D01*
G01X1879944Y1608218D01*
G01X1866914Y1621248D01*
G01X1866914Y2609796D01*
G03X2054860Y2692146I75932J82350D01*
G03X1866914Y2774496I-112014J0D01*
G01X1866914Y3213100D01*
G03X1852031Y3249031I-50814J0D01*
G01X1763131Y3337931D01*
G01X1592881Y1486332D02*
G01X1592881Y1811899D01*
G03X1617105Y1836124I-68880J93104D01*
G01X1632067Y1836124D01*
G03X1675069Y1853936I0J60814D01*
G01X1765286Y1944153D01*
G01X1765286Y1600200D01*
G03X1780169Y1564269I50814J0D01*
G01X1822966Y1521473D01*
G03X1858896Y1506590I35931J35931D01*
G01X2055658Y1506590D01*
G03X2191721Y1336000I98404J-61069D01*
G01X2238131Y1289590D01*
G03X2274062Y1274707I35931J35931D01*
G01X2444220Y1274707D01*
G03X2480151Y1289590I0J50814D01*
G01X2540022Y1349461D01*
G03X2578074Y1365777I-5802J66060D01*
G03X2732836Y1353848I83988J79743D01*
G03X2760467Y1506590I-70774J91673D01*
G01X2817658Y1506590D01*
G03X2916062Y1329706I98404J-61069D01*
G03X3014467Y1506590I0J115814D01*
G01X3079880Y1506590D01*
G03X3170062Y1336606I90182J-61069D01*
G03X3260244Y1506590I0J108914D01*
G01X3333880Y1506590D01*
G03X3424062Y1336606I90182J-61069D01*
G03X3514244Y1506590I0J108914D01*
G01X3587880Y1506590D01*
G03X3678062Y1336606I90182J-61069D01*
G03X3768244Y1506590I0J108914D01*
G01X3833658Y1506590D01*
G03X3927462Y1329798I98404J-61069D01*
G03X4035004Y1498586I4600J115723D01*
G01X4093752Y1498586D01*
G01X4165586Y1426752D01*
G01X4165586Y457200D01*
G03X4180469Y421269I50814J0D01*
G01X4310263Y291475D01*
G03X4346194Y276592I35931J35931D01*
G01X4670388Y276592D01*
G03X4650675Y124220I66712J-86092D01*
G01X4202142Y124220D01*
G01X4114814Y211548D01*
G01X4114814Y965200D01*
G03X4099931Y1001131I-50814J0D01*
G01X3998331Y1102731D01*
G03X3962400Y1117614I-35931J-35931D01*
G01X3664384Y1117614D01*
G03X3691495Y1204936I-32321J57904D01*
G03X3605620Y1236332I-59432J-29418D01*
G01X2007256Y1236332D01*
G01X1775069Y1468520D01*
G03X1732067Y1486332I-43002J-43002D01*
G01X1592881Y1486332D01*
G01X1929896Y113782D02*
G01X1929896Y232435D01*
G01X1976848Y279386D01*
G01X2121287Y279386D01*
G03X2096414Y83114I32775J-103866D01*
G01X1919598Y83114D01*
G03X1929896Y113782I-40515J30668D01*
G01X2186837Y279386D02*
G01X2356829Y279386D01*
G03X2338249Y83114I51233J-103866D01*
G01X2211710Y83114D01*
G03X2186837Y279386I-57648J92406D01*
G01X3997496Y1838588D02*
G01X4350650Y1838588D01*
G01X4381486Y1807752D01*
G01X4381486Y1600572D01*
G01X4314723Y1667335D01*
G03X4278793Y1682218I-35931J-35931D01*
G01X3954898Y1682218D01*
G03X3997496Y1838588I-43298J95782D01*
G01X4399259Y1249192D02*
G03X4484651Y1353683I-43159J122408D01*
G01X4680466Y1157869D01*
G03X4716396Y1142986I35931J35931D01*
G01X5211352Y1142986D01*
G01X5245086Y1109252D01*
G01X5245086Y382906D01*
G03X5166182Y378220I-36295J-55500D01*
G01X4450991Y378220D01*
G03X4448579Y424661I-63227J19998D01*
G01X4448579Y612271D01*
G01X4473711Y637404D01*
G01X4989201Y637404D01*
G03X5203577Y698218I98562J60814D01*
G03X4989201Y759032I-115814J0D01*
G01X4448521Y759032D01*
G03X4405519Y741220I0J-60814D01*
G01X4344763Y680463D01*
G03X4326951Y637461I43002J-43002D01*
G01X4326951Y424661D01*
G03X4325216Y420246I60814J-26443D01*
G01X4267214Y478248D01*
G01X4267214Y1277018D01*
G03X4399259Y1249192I88886J94582D01*
G01X5087761Y843297D02*
G03X5087761Y1061125I0J108914D01*
G03X5087761Y843297I0J-108914D01*
G01X4913634Y276592D02*
G03X4896127Y124220I77466J-86092D01*
G01X4823525Y124220D01*
G03X4803812Y276592I-86425J66280D01*
G01X4913634Y276592D01*
G54D11*
G01X4816846Y190500D02*
G01X4835854Y190500D01*
G01X4657354Y190500D02*
G01X4638346Y190500D01*
G01X1562354Y393700D02*
G01X1543346Y393700D01*
G01X1714246Y393700D02*
G01X1733254Y393700D01*
G01X1638300Y469646D02*
G01X1638300Y488654D01*
G01X1638300Y317754D02*
G01X1638300Y298746D01*
G01X516947Y666788D02*
G01X497939Y666788D01*
G01X666439Y666788D02*
G01X685447Y666788D01*
G01X591693Y841534D02*
G01X591693Y860542D01*
G01X591693Y492042D02*
G01X591693Y473034D01*
G01X3835654Y1778000D02*
G01X3816646Y1778000D01*
G01X3987546Y1778000D02*
G01X4006554Y1778000D01*
G01X2108454Y1803400D02*
G01X2089446Y1803400D01*
G01X2184400Y1879346D02*
G01X2184400Y1898354D01*
G01X2184400Y1727454D02*
G01X2184400Y1708446D01*
G01X4990846Y5156200D02*
G01X4990846Y5137192D01*
G01X4990846Y5308092D02*
G01X4990846Y5327100D01*
G01X4914900Y5232146D02*
G01X4895892Y5232146D01*
G01X5066792Y5232146D02*
G01X5085800Y5232146D01*
G01X3678062Y1365774D02*
G01X3678062Y1346766D01*
G01X3598316Y1445520D02*
G01X3579308Y1445520D01*
G01X3757808Y1445520D02*
G01X3776816Y1445520D01*
G01X3170062Y1365774D02*
G01X3170062Y1346766D01*
G01X3090316Y1445520D02*
G01X3071308Y1445520D01*
G01X3249808Y1445520D02*
G01X3268816Y1445520D01*
G01X5753100Y1380754D02*
G01X5753100Y1361746D01*
G01X5673354Y1460500D02*
G01X5654346Y1460500D01*
G01X5832846Y1460500D02*
G01X5851854Y1460500D01*
G01X2958241Y2007095D02*
G01X2939233Y2007095D01*
G01X3137733Y2007095D02*
G01X3156741Y2007095D01*
G01X3047987Y2136841D02*
G01X3047987Y2155849D01*
G01X1523999Y2079251D02*
G01X1523999Y2060243D01*
G01X1523999Y2238742D02*
G01X1523999Y2257750D01*
G01X1444253Y2158996D02*
G01X1425245Y2158996D01*
G01X1603745Y2158996D02*
G01X1622753Y2158996D01*
G01X520690Y2108449D02*
G01X520690Y2089441D01*
G01X520690Y2260341D02*
G01X520690Y2279349D01*
G01X596636Y2184395D02*
G01X615644Y2184395D01*
G01X2492262Y864582D02*
G01X2492262Y845574D01*
G01X2412516Y944328D02*
G01X2393508Y944328D01*
G01X2572008Y944328D02*
G01X2591016Y944328D01*
G01X5087761Y872465D02*
G01X5087761Y853457D01*
G01X5087761Y1031957D02*
G01X5087761Y1050965D01*
G01X5008015Y952211D02*
G01X4989007Y952211D01*
G01X5167507Y952211D02*
G01X5186515Y952211D01*
G01X3424062Y1365774D02*
G01X3424062Y1346766D01*
G01X3344316Y1445520D02*
G01X3325308Y1445520D01*
G01X3503808Y1445520D02*
G01X3522816Y1445520D01*
G01X4990846Y2616200D02*
G01X4990846Y2597192D01*
G01X4990846Y2768092D02*
G01X4990846Y2787100D01*
G01X5066792Y2692146D02*
G01X5085800Y2692146D01*
G01X3678062Y255266D02*
G01X3678062Y274274D01*
G01X3678062Y95774D02*
G01X3678062Y76766D01*
G01X3757808Y175520D02*
G01X3776816Y175520D01*
G01X3598316Y175520D02*
G01X3579308Y175520D01*
G01X2233808Y175520D02*
G01X2252816Y175520D01*
G01X2074316Y175520D02*
G01X2055308Y175520D01*
G01X6007100Y1380754D02*
G01X6007100Y1361746D01*
G01X5927354Y1460500D02*
G01X5908346Y1460500D01*
G01X6086846Y1460500D02*
G01X6105854Y1460500D01*
G01X6261100Y270246D02*
G01X6261100Y289254D01*
G01X6261100Y110754D02*
G01X6261100Y91746D01*
G01X6340846Y190500D02*
G01X6359854Y190500D01*
G01X6181354Y190500D02*
G01X6162346Y190500D01*
G01X6261100Y1380754D02*
G01X6261100Y1361746D01*
G01X6181354Y1460500D02*
G01X6162346Y1460500D01*
G01X6340846Y1460500D02*
G01X6359854Y1460500D01*
G04 Copper End*

G04 Pad Start*
G54D12*
G01X5087763Y698218D03*
G01X5087761Y952211D03*
G01X2492264Y690335D03*
G01X2492262Y944328D03*
G54D13*
G01X2184400Y2311400D03*
G01X2184400Y1803400D03*
G01X3911600Y2286000D03*
G01X3911600Y1778000D03*
G01X1638300Y901700D03*
G01X1638300Y393700D03*
G54D12*
G01X1524001Y1905004D03*
G01X1523999Y2158996D03*
G54D14*
G01X6565900Y2258606D03*
G01X6565900Y2008594D03*
G54D15*
G01X566683Y5027734D03*
G54D16*
G01X566683Y4773734D03*
G01X566683Y4519734D03*
G01X566683Y4265734D03*
G54D15*
G01X558800Y3581400D03*
G54D16*
G01X558800Y3327400D03*
G01X558800Y3073400D03*
G01X558800Y2819400D03*
G54D13*
G01X520690Y2184395D03*
G01X520690Y1879595D03*
G54D17*
G01X591693Y666788D03*
G54D19*
G01X911682Y196787D03*
G54D17*
G01X1211682Y666788D03*
G54D20*
G01X5321300Y2260105D03*
G01X5067300Y2261095D03*
G54D21*
G01X5575300Y2260105D03*
G54D22*
G01X5842000Y1790700D03*
G01X4826000Y1790700D03*
G01X4356100Y1371600D03*
G01X4356100Y2387600D03*
G01X254000Y1447800D03*
G01X1270000Y1447800D03*
G54D13*
G01X1688846Y5232146D03*
G01X5244846Y5232146D03*
G01X4990846Y5232146D03*
G01X4736846Y5232146D03*
G01X4482846Y5232146D03*
G01X4228846Y5232146D03*
G01X3974846Y5232146D03*
G01X3720846Y5232146D03*
G01X3466846Y5232146D03*
G01X3212846Y5232146D03*
G01X2958846Y5232146D03*
G01X2704846Y5232146D03*
G01X2450846Y5232146D03*
G01X2196846Y5232146D03*
G01X1942846Y5232146D03*
G54D14*
G01X1689100Y2692400D03*
G54D13*
G01X1942846Y2692146D03*
G01X2196846Y2692146D03*
G01X2450846Y2692146D03*
G01X2704846Y2692146D03*
G01X2958846Y2692146D03*
G01X3212846Y2692146D03*
G01X3466846Y2692146D03*
G01X3720846Y2692146D03*
G01X3974846Y2692146D03*
G01X4228846Y2692146D03*
G01X4482846Y2692146D03*
G01X4736846Y2692146D03*
G01X4990846Y2692146D03*
G01X5244846Y2692146D03*
G54D21*
G01X2793987Y2007095D03*
G54D20*
G01X3302013Y2006105D03*
G01X3047987Y2007095D03*
G54D12*
G01X2154062Y1445520D03*
G01X2408062Y1445520D03*
G01X2662062Y1445520D03*
G01X2916062Y1445520D03*
G01X3170062Y1445520D03*
G01X3424062Y1445520D03*
G01X3678062Y1445520D03*
G01X3932062Y1445520D03*
G01X3932062Y175520D03*
G01X3678062Y175520D03*
G01X3424062Y175520D03*
G01X3170062Y175520D03*
G01X2916062Y175520D03*
G01X2662062Y175520D03*
G01X2408062Y175520D03*
G01X2154062Y175520D03*
G01X4737100Y1460500D03*
G01X4991100Y1460500D03*
G01X5245100Y1460500D03*
G01X5499100Y1460500D03*
G01X5753100Y1460500D03*
G01X6007100Y1460500D03*
G01X6261100Y1460500D03*
G01X6515100Y1460500D03*
G01X6515100Y190500D03*
G01X6261100Y190500D03*
G01X6007100Y190500D03*
G01X5753100Y190500D03*
G01X5499100Y190500D03*
G01X5245100Y190500D03*
G01X4991100Y190500D03*
G01X4737100Y190500D03*
G04 Pad End*

G04 Via Start*
G54D23*
G01X5208791Y327406D03*
G01X2478796Y1829402D03*
G01X5244846Y1782153D03*
G01X2534220Y1415520D03*
G01X4387765Y398218D03*
G01X3632063Y475520D03*
G01X3632063Y1175518D03*
G01X1742225Y2007095D03*
G01X2542223Y2007095D03*
G04 Via End*

G04 Track Start*
G54D24*
G01X5298791Y330658D02*
G01X5298791Y244191D01*
G01X5245100Y190500D01*
G01X566683Y4519734D02*
G01X416683Y4369735D01*
G01X2478796Y1829402D02*
G01X3798794Y1829402D01*
G01X3858793Y1889402D01*
G01X2534220Y1415520D02*
G01X2444220Y1325521D01*
G01X2274062Y1325521D01*
G01X2154062Y1445520D01*
G01X6393452Y1582148D02*
G01X6515100Y1460500D01*
G01X4622800Y1689100D02*
G01X4729752Y1582148D01*
G01X4622800Y2463800D02*
G01X4622800Y1689100D01*
G01X4559300Y2527300D02*
G01X4622800Y2463800D01*
G01X4013200Y2527300D02*
G01X4559300Y2527300D01*
G01X3974846Y2565654D02*
G01X4013200Y2527300D01*
G01X3974846Y2692146D02*
G01X3974846Y2565654D01*
G01X4729752Y1582148D02*
G01X6393452Y1582148D01*
G01X4737100Y1460500D02*
G01X4533900Y1663700D01*
G01X4371698Y1889402D02*
G01X4432300Y1828800D01*
G01X4432300Y1587500D01*
G01X4737100Y1282700D01*
G01X5956300Y1282700D01*
G01X6007100Y1231900D01*
G01X3858793Y1889402D02*
G01X4371698Y1889402D01*
G01X6007100Y1231900D02*
G01X6007100Y190500D01*
G01X5232400Y1193800D02*
G01X5295900Y1130300D01*
G01X4278793Y1631404D02*
G01X4716396Y1193800D01*
G01X5232400Y1193800D01*
G01X5295900Y1130300D02*
G01X5295900Y333549D01*
G01X5298791Y330658D01*
G01X4346194Y327406D02*
G01X5208791Y327406D01*
G01X4216400Y457200D02*
G01X4346194Y327406D01*
G01X4216400Y1447800D02*
G01X4216400Y457200D01*
G01X4114800Y1549400D02*
G01X4216400Y1447800D01*
G01X3986797Y1549400D02*
G01X4114800Y1549400D01*
G01X3978793Y1557404D02*
G01X3986797Y1549400D01*
G01X2635800Y32300D02*
G01X2667000Y63500D01*
G01X2667000Y170583D01*
G01X2662062Y175520D01*
G01X566684Y5027734D02*
G01X227134Y5027734D01*
G01X83100Y4883700D01*
G01X416683Y2230861D02*
G01X414290Y2228467D01*
G01X414290Y1835523D02*
G01X416683Y1833129D01*
G01X416683Y154817D01*
G01X416683Y4369735D02*
G01X416683Y2230861D01*
G01X414290Y2228467D02*
G01X414290Y1835523D01*
G01X416683Y154817D02*
G01X495300Y76200D01*
G01X1955800Y330200D02*
G01X3162300Y330200D01*
G01X3183513Y308987D01*
G01X3183513Y188971D01*
G01X3170062Y175520D01*
G01X1879082Y113782D02*
G01X1879082Y253482D01*
G01X1841500Y76200D02*
G01X1879082Y113782D01*
G01X1879082Y253482D02*
G01X1955800Y330200D01*
G01X495300Y76200D02*
G01X1841500Y76200D01*
G01X5727700Y190500D02*
G01X5610606Y73406D01*
G01X4181094Y73406D01*
G01X4064000Y190500D01*
G01X4064000Y965200D01*
G01X3962400Y1066800D01*
G01X5753100Y190500D02*
G01X5727700Y190500D01*
G01X698500Y3073400D02*
G01X558800Y3073400D01*
G01X762000Y3009900D02*
G01X698500Y3073400D01*
G01X2336800Y1663700D02*
G01X2369096Y1631404D01*
G01X2336800Y3492500D02*
G01X2336800Y1663700D01*
G01X2286000Y3543300D02*
G01X2336800Y3492500D01*
G01X596900Y3543300D02*
G01X2286000Y3543300D01*
G01X558800Y3581400D02*
G01X596900Y3543300D01*
G01X2369096Y1631404D02*
G01X4278793Y1631404D01*
G01X1816100Y1600200D02*
G01X1858896Y1557404D01*
G01X1816100Y3213100D02*
G01X1816100Y1600200D01*
G01X1727200Y3302000D02*
G01X1816100Y3213100D01*
G01X584200Y3302000D02*
G01X1727200Y3302000D01*
G01X558800Y3327400D02*
G01X584200Y3302000D01*
G01X1858896Y1557404D02*
G01X3978793Y1557404D01*
G01X3962400Y1066800D02*
G01X889000Y1066800D01*
G01X762000Y1193800D01*
G01X762000Y3009900D01*
G01X83100Y4883700D02*
G01X83100Y158200D01*
G01X209000Y32300D01*
G01X2635800Y32300D01*
G01X4533900Y1663700D02*
G01X4533900Y2070100D01*
G01X4424400Y2179600D01*
G01X3304227Y2179600D01*
G01X3212846Y2270981D01*
G01X3212846Y2692146D01*
G01X5223241Y1877169D02*
G01X5248424Y1851986D01*
G01X5248424Y1779234D01*
G01X5240029Y1770839D01*
G01X4884663Y1966711D02*
G01X4974204Y1877169D01*
G01X5223241Y1877169D01*
G01X5836037Y1784830D02*
G01X5836037Y1924738D01*
G01X5788469Y1972307D01*
G01X5080534Y1972307D01*
G01X5055351Y1997490D01*
G01X5055351Y2260517D01*
G01X5052553Y2263316D01*
G01X5376774Y2472184D02*
G01X5321300Y2416710D01*
G01X5321300Y2260105D01*
G01X6565900Y2258606D02*
G01X6565900Y2401312D01*
G01X6495029Y2472184D01*
G01X5376774Y2472184D01*
G01X5255245Y4993619D02*
G01X5200680Y4939055D01*
G01X5255245Y5190890D02*
G01X5255245Y4993619D01*
G01X5242653Y5203481D02*
G01X5255245Y5190890D01*
G01X4953043Y4939055D02*
G01X4884046Y4870059D01*
G01X5200680Y4939055D02*
G01X4953043Y4939055D01*
G01X4884046Y4870059D02*
G01X4884663Y1966711D01*
G54D25*
G01X3632063Y1175518D02*
G01X1982066Y1175518D01*
G01X1732067Y1425518D01*
G01X1292282Y1425518D02*
G01X1270000Y1447800D01*
G01X1532067Y1425518D02*
G01X1532067Y1896938D01*
G01X1524001Y1905004D01*
G01X1532067Y1896938D02*
G01X1632067Y1896938D01*
G01X1742225Y2007095D01*
G01X2542223Y2007095D02*
G01X2793987Y2007095D01*
G01X1732067Y1425518D02*
G01X1532067Y1425518D01*
G01X1292282Y1425518D01*
G01X1638300Y901700D02*
G01X1320676Y901700D01*
G01X1211682Y792705D01*
G01X1211682Y666788D01*
G01X2492264Y690335D02*
G01X1719551Y690335D01*
G01X1638300Y771586D01*
G01X1638300Y901700D01*
G01X3632063Y475520D02*
G01X2564373Y475520D01*
G01X2492264Y547629D01*
G01X2492264Y690335D01*
G01X5087763Y698218D02*
G01X4448521Y698218D01*
G01X4387765Y637461D01*
G01X4387765Y398218D01*
G04 Track End*

M02*

