G04 Layer: DrillDrawingLayer*
G04 EasyEDA Pro v2.2.47.7, 2026-05-06 12:10:09*
G04 Gerber Generator version 0.3*
G04 Scale: 100 percent, Rotated: No, Reflected: No*
G04 Dimensions in millimeters*
G04 Leading zeros omitted, absolute positions, 4 integers and 5 decimals*
G04 Generated by one-click*
G04 Object Configs: Pad,Via,Track,Text,Image,Dimension,BoardOutline,BoardCutout,CopperFilled,SolidRegion,FPCStiffener,Line,PlaneZone,ComponentProperty,ComponentSilkscreen,TearDrop*
G04 Layer Configs: 1,2,3,4,5,6,7,8,9,10,11,13,14,56*
G04 Copper Areas: 0*
%FSLAX45Y45*%
%MOMM*%
%AMIconRect*4,1,4,0.28,-0.28,-0.28,-0.28,-0.28,0.28,0.28,0.28,0.28,-0.28,0*4,0,4,0.233333,-0.233333,0.233333,0.233333,-0.233333,0.233333,-0.233333,-0.233333,0.233333,-0.233333,0*%
%AMIconTriangle*4,1,3,-0.339593,0.240473,0.339593,0.240473,0,-0.37884,-0.339593,0.240473,0*4,0,3,-0.265673,0.19404,0,-0.27342,0.266233,0.19404,-0.265673,0.19404,0*%
%AMIconStar6*4,1,12,0.12068,0.20888,0.298527,0.172713,0.241313,0,0.298527,-0.17206,0.12068,-0.208227,0,-0.344073,-0.120073,-0.208227,-0.298573,-0.17206,-0.240707,0,-0.298573,0.17206,-0.120073,0.20888,0,0.344073,0.12068,0.20888,0*4,0,12,-0.000467,0.273467,-0.090067,0.171733,-0.237533,0.136733,-0.193667,-0.007467,-0.237533,-0.1372,-0.090067,-0.171733,-0.000467,-0.273933,0.090067,-0.171733,0.237533,-0.1372,0.194133,0.007,0.237533,0.1372,0.090067,0.171267,-0.000467,0.273467,0*%
%AMIconStar4*4,1,8,-0.311733,0.311733,0,0.202533,0.311733,0.311733,0.202533,0,0.311733,-0.311733,0,-0.202533,-0.304407,-0.311733,-0.202533,0,-0.311733,0.311733,0*4,0,8,0.233333,-0.233333,0.1512,0,0.233333,0.233333,0,0.1512,-0.233333,0.233333,-0.1512,0,-0.233333,-0.233333,0,-0.1512,0.233333,-0.233333,0*%
%AMIconPlus*4,1,12,0.1736,-0.28,-0.1736,-0.28,-0.1736,-0.1736,-0.28,-0.1736,-0.28,0.1736,-0.1736,0.1736,-0.1736,0.28,0.1736,0.28,0.1736,0.1736,0.28,0.1736,0.28,-0.1736,0.1736,-0.1736,0.1736,-0.28,0*4,0,12,0.126933,-0.233333,0.126933,-0.126933,0.233333,-0.126933,0.233333,0.126933,0.126933,0.126933,0.126933,0.233333,-0.126933,0.233333,-0.126933,0.126933,-0.233333,0.126933,-0.233333,-0.126933,-0.126933,-0.126933,-0.126933,-0.233333,0.126933,-0.233333,0*%
%AMIconX*4,1,16,0.28,-0.28,0.076347,-0.28,0,-0.203653,-0.076347,-0.28,-0.28,-0.28,-0.28,-0.076347,-0.203653,0,-0.28,0.076347,-0.28,0.28,-0.076347,0.28,0,0.203653,0.076347,0.28,0.28,0.28,0.28,0.076347,0.203653,0,0.28,-0.076347,0.28,-0.28,0*4,0,16,0.23352,-0.23296,0.23352,-0.095853,0.137107,0.000093,0.23352,0.095853,0.23352,0.2331,0.095853,0.2331,0,0.137107,-0.095853,0.2331,-0.23352,0.2331,-0.23352,0.095853,-0.137107,0.000093,-0.23352,-0.095853,-0.23352,-0.23296,-0.095853,-0.23296,0,-0.137107,0.095853,-0.23296,0.23352,-0.23296,0*%
%AMIconDiamond*4,1,4,0,-0.364,-0.364,0,0,0.364,0.364,0,0,-0.364,0*4,0,4,0,-0.284807,0.284807,0,0,0.28504,-0.284807,0,0,-0.284807,0*%
%AMIconRect2*4,1,6,0.28,-0.28,-0.28,-0.28,-0.28,0.28,-0.23352,0.2331,-0.233333,-0.233333,0.23352,-0.233333,0.28,-0.28,0*4,1,6,0.28,-0.28,0.23352,-0.233333,0.23352,0.2331,-0.23352,0.2331,-0.28,0.28,0.28,0.28,0.28,-0.28,0*4,1,6,0.186853,-0.186667,-0.186667,-0.186667,-0.186667,0.186853,-0.14,0.140187,-0.14,-0.14,0.140187,-0.14,0.186853,-0.186667,0*4,1,6,0.186853,-0.186667,0.140187,-0.14,0.140187,0.140187,-0.14,0.140187,-0.186667,0.186853,0.186853,0.186853,0.186853,-0.186667,0*%
%AMCharA*4,1,8,-0.341787,-0.52192,-0.42896,-0.488693,-0.042373,0.52192,0.0448,0.52192,0.42896,-0.488693,0.341787,-0.52192,0.21392,-0.18536,-0.213173,-0.18536,-0.341787,-0.52192,0*4,0,3,-0.177333,-0.092027,0.178267,-0.092027,0.000933,0.37464,-0.177333,-0.092027,0*%
%AMCharB*4,1,17,-0.367173,-0.53032,-0.367173,0.53032,0.093893,0.53032,0.246587,0.482907,0.31192,0.424853,0.367173,0.319573,0.3668,0.186107,0.320133,0.09464,0.265253,0.03584,0.242107,0.02352,0.265253,0.010827,0.320133,-0.047973,0.3668,-0.13944,0.367173,-0.319573,0.31192,-0.424853,0.246587,-0.48328,0.093893,-0.53032,-0.367173,-0.53032,0*4,0,10,-0.27384,-0.436987,0.086427,-0.436987,0.206827,-0.3976,0.240427,-0.364373,0.278693,-0.28784,0.278693,-0.17192,0.240427,-0.096693,0.206827,-0.06328,0.086427,-0.024267,-0.27384,-0.024267,-0.27384,-0.436987,0*4,0,10,-0.27384,0.069067,0.08624,0.069067,0.206827,0.109947,0.240427,0.143547,0.278693,0.218587,0.278693,0.287467,0.240427,0.364373,0.206827,0.3976,0.086427,0.436987,-0.27384,0.436987,-0.27384,0.069067,0*%
%ADD10IconRect*%
%ADD11C,0.616X0.522667*%
%ADD12IconTriangle*%
%ADD13IconStar6*%
%ADD14IconStar4*%
%ADD15IconPlus*%
%ADD16IconX*%
%ADD17IconDiamond*%
%ADD18IconRect2*%
%ADD19CharA*%
%ADD20CharB*%
G75*


G04 Drill Drawing Start*
G54D10*
G01X6565900Y2008594D03*
G01X6565900Y2258606D03*
G54D11*
G01X591693Y666788D03*
G01X911682Y196787D03*
G01X1211682Y666788D03*
G54D12*
G01X5067300Y2261095D03*
G01X5321300Y2260105D03*
G01X5575300Y2260105D03*
G54D13*
G01X2793987Y2007095D03*
G01X3047987Y2007095D03*
G01X3302013Y2006105D03*
G54D14*
G01X1523999Y2158996D03*
G01X1524001Y1905004D03*
G01X2492262Y944328D03*
G01X2492264Y690335D03*
G01X5087761Y952211D03*
G01X5087763Y698218D03*
G54D15*
G01X1638300Y393700D03*
G01X1638300Y901700D03*
G01X2184400Y1803400D03*
G01X2184400Y2311400D03*
G01X3911600Y1778000D03*
G01X3911600Y2286000D03*
G54D16*
G01X254000Y1447800D03*
G01X1270000Y1447800D03*
G01X4356100Y1371600D03*
G01X4356100Y2387600D03*
G01X4826000Y1790700D03*
G01X5842000Y1790700D03*
G54D17*
G01X558800Y2819400D03*
G01X558800Y3073400D03*
G01X558800Y3327400D03*
G01X558800Y3581400D03*
G01X566683Y4265734D03*
G01X566683Y4519734D03*
G01X566683Y4773734D03*
G01X566683Y5027734D03*
G54D18*
G01X1742225Y2007095D03*
G01X2478796Y1829402D03*
G01X2534220Y1415520D03*
G01X2542223Y2007095D03*
G01X3632063Y475520D03*
G01X3632063Y1175518D03*
G01X4387765Y398218D03*
G01X5208791Y327406D03*
G01X5244846Y1782153D03*
G54D19*
G01X520690Y1879595D03*
G01X520690Y2184395D03*
G01X1688846Y5232146D03*
G01X1689100Y2692400D03*
G01X1942846Y2692146D03*
G01X1942846Y5232146D03*
G01X2196846Y2692146D03*
G01X2196846Y5232146D03*
G01X2450846Y2692146D03*
G01X2450846Y5232146D03*
G01X2704846Y2692146D03*
G01X2704846Y5232146D03*
G01X2958846Y2692146D03*
G01X2958846Y5232146D03*
G01X3212846Y2692146D03*
G01X3212846Y5232146D03*
G01X3466846Y2692146D03*
G01X3466846Y5232146D03*
G01X3720846Y2692146D03*
G01X3720846Y5232146D03*
G01X3974846Y2692146D03*
G01X3974846Y5232146D03*
G01X4228846Y2692146D03*
G01X4228846Y5232146D03*
G01X4482846Y2692146D03*
G01X4482846Y5232146D03*
G01X4736846Y2692146D03*
G01X4736846Y5232146D03*
G01X4990846Y2692146D03*
G01X4990846Y5232146D03*
G01X5244846Y2692146D03*
G01X5244846Y5232146D03*
G54D20*
G01X2154062Y175520D03*
G01X2154062Y1445520D03*
G01X2408062Y175520D03*
G01X2408062Y1445520D03*
G01X2662062Y175520D03*
G01X2662062Y1445520D03*
G01X2916062Y175520D03*
G01X2916062Y1445520D03*
G01X3170062Y175520D03*
G01X3170062Y1445520D03*
G01X3424062Y175520D03*
G01X3424062Y1445520D03*
G01X3678062Y175520D03*
G01X3678062Y1445520D03*
G01X3932062Y175520D03*
G01X3932062Y1445520D03*
G01X4737100Y190500D03*
G01X4737100Y1460500D03*
G01X4991100Y190500D03*
G01X4991100Y1460500D03*
G01X5245100Y190500D03*
G01X5245100Y1460500D03*
G01X5499100Y190500D03*
G01X5499100Y1460500D03*
G01X5753100Y190500D03*
G01X5753100Y1460500D03*
G01X6007100Y190500D03*
G01X6007100Y1460500D03*
G01X6261100Y190500D03*
G01X6261100Y1460500D03*
G01X6515100Y190500D03*
G01X6515100Y1460500D03*
G04 Drill Drawing End*

M02*

